v 22.7184 2.30383 0
v 22.7184 2.30383 1
v 19.0706 14.463 0
v 19.0706 14.463 0
v 22.7184 2.30383 1
v 19.0706 14.463 1
v 19.0706 14.463 0
v 19.0706 14.463 1
v 15.8069 2.30383 0
v 15.8069 2.30383 0
v 19.0706 14.463 1
v 15.8069 2.30383 1
v 15.8069 2.30383 0
v 15.8069 2.30383 1
v 10.8792 -0.767944 0
v 10.8792 -0.767944 0
v 15.8069 2.30383 1
v 10.8792 -0.767944 1
v 10.8792 -0.767944 0
v 10.8792 -0.767944 1
v 6.20755 2.30383 0
v 6.20755 2.30383 0
v 10.8792 -0.767944 1
v 6.20755 2.30383 1
v 6.20755 2.30383 0
v 6.20755 2.30383 1
v 2.23984 22.0144 0
v 2.23984 22.0144 0
v 6.20755 2.30383 1
v 2.23984 22.0144 1
v 2.23984 22.0144 0
v 2.23984 22.0144 1
v 1.72787 22.0144 0
v 1.72787 22.0144 0
v 2.23984 22.0144 1
v 1.72787 22.0144 1
v 1.72787 22.0144 0
v 1.72787 22.0144 1
v -1.66388 25.4702 0
v -1.66388 25.4702 0
v 1.72787 22.0144 1
v -1.66388 25.4702 1
v -1.66388 25.4702 0
v -1.66388 25.4702 1
v -0.735947 28.126 0
v -0.735947 28.126 0
v -1.66388 25.4702 1
v -0.735947 28.126 1
v -0.735947 28.126 0
v -0.735947 28.126 1
v 2.23984 28.8619 0
v 2.23984 28.8619 0
v -0.735947 28.126 1
v 2.23984 28.8619 1
v 2.23984 28.8619 0
v 2.23984 28.8619 1
v 9.6633 28.8619 0
v 9.6633 28.8619 0
v 2.23984 28.8619 1
v 9.6633 28.8619 1
v 9.6633 28.8619 0
v 9.6633 28.8619 1
v 12.6391 28.126 0
v 12.6391 28.126 0
v 9.6633 28.8619 1
v 12.6391 28.126 1
v 12.6391 28.126 0
v 12.6391 28.126 1
v 13.567 25.4702 0
v 13.567 25.4702 0
v 12.6391 28.126 1
v 13.567 25.4702 1
v 13.567 25.4702 0
v 13.567 25.4702 1
v 10.1753 22.0144 0
v 10.1753 22.0144 0
v 13.567 25.4702 1
v 10.1753 22.0144 1
v 10.1753 22.0144 0
v 10.1753 22.0144 1
v 9.6633 22.0144 0
v 9.6633 22.0144 0
v 10.1753 22.0144 1
v 9.6633 22.0144 1
v 9.6633 22.0144 0
v 9.6633 22.0144 1
v 12.1591 6.65552 0
v 12.1591 6.65552 0
v 9.6633 22.0144 1
v 12.1591 6.65552 1
v 12.1591 6.65552 0
v 12.1591 6.65552 1
v 15.4229 18.5587 0
v 15.4229 18.5587 0
v 12.1591 6.65552 1
v 15.4229 18.5587 1
v 15.4229 18.5587 0
v 15.4229 18.5587 1
v 16.6708 20.9265 0
v 16.6708 20.9265 0
v 15.4229 18.5587 1
v 16.6708 20.9265 1
v 16.6708 20.9265 0
v 16.6708 20.9265 1
v 19.2626 21.6304 0
v 19.2626 21.6304 0
v 16.6708 20.9265 1
v 19.2626 21.6304 1
v 19.2626 21.6304 0
v 19.2626 21.6304 1
v 21.8224 20.9265 0
v 21.8224 20.9265 0
v 19.2626 21.6304 1
v 21.8224 20.9265 1
v 21.8224 20.9265 0
v 21.8224 20.9265 1
v 23.0383 18.5587 0
v 23.0383 18.5587 0
v 21.8224 20.9265 1
v 23.0383 18.5587 1
v 23.0383 18.5587 0
v 23.0383 18.5587 1
v 26.4941 6.65552 0
v 26.4941 6.65552 0
v 23.0383 18.5587 1
v 26.4941 6.65552 1
v 26.4941 6.65552 0
v 26.4941 6.65552 1
v 28.8619 22.0144 0
v 28.8619 22.0144 0
v 26.4941 6.65552 1
v 28.8619 22.0144 1
v 28.8619 22.0144 0
v 28.8619 22.0144 1
v 28.3499 22.0144 0
v 28.3499 22.0144 0
v 28.8619 22.0144 1
v 28.3499 22.0144 1
v 28.3499 22.0144 0
v 28.3499 22.0144 1
v 24.8942 25.4702 0
v 24.8942 25.4702 0
v 28.3499 22.0144 1
v 24.8942 25.4702 1
v 24.8942 25.4702 0
v 24.8942 25.4702 1
v 25.8541 28.126 0
v 25.8541 28.126 0
v 24.8942 25.4702 1
v 25.8541 28.126 1
v 25.8541 28.126 0
v 25.8541 28.126 1
v 28.8619 28.8619 0
v 28.8619 28.8619 0
v 25.8541 28.126 1
v 28.8619 28.8619 1
v 28.8619 28.8619 0
v 28.8619 28.8619 1
v 36.2214 28.8619 0
v 36.2214 28.8619 0
v 28.8619 28.8619 1
v 36.2214 28.8619 1
v 36.2214 28.8619 0
v 36.2214 28.8619 1
v 39.2292 28.126 0
v 39.2292 28.126 0
v 36.2214 28.8619 1
v 39.2292 28.126 1
v 39.2292 28.126 0
v 39.2292 28.126 1
v 40.1891 25.4702 0
v 40.1891 25.4702 0
v 39.2292 28.126 1
v 40.1891 25.4702 1
v 40.1891 25.4702 0
v 40.1891 25.4702 1
v 36.7333 22.0144 0
v 36.7333 22.0144 0
v 40.1891 25.4702 1
v 36.7333 22.0144 1
v 36.7333 22.0144 0
v 36.7333 22.0144 1
v 36.2214 22.0144 0
v 36.2214 22.0144 0
v 36.7333 22.0144 1
v 36.2214 22.0144 1
v 36.2214 22.0144 0
v 36.2214 22.0144 1
v 32.3177 2.30383 0
v 32.3177 2.30383 0
v 36.2214 22.0144 1
v 32.3177 2.30383 1
v 32.3177 2.30383 0
v 32.3177 2.30383 1
v 27.582 -0.767944 0
v 27.582 -0.767944 0
v 32.3177 2.30383 1
v 27.582 -0.767944 1
v 27.582 -0.767944 0
v 27.582 -0.767944 1
v 22.7184 2.30383 0
v 22.7184 2.30383 0
v 27.582 -0.767944 1
v 22.7184 2.30383 1
v 12.6391 28.126 1
v -0.735947 28.126 1
v 13.567 25.4702 1
v 13.567 25.4702 1
v -0.735947 28.126 1
v -1.66388 25.4702 1
v 13.567 25.4702 1
v -1.66388 25.4702 1
v 10.1753 22.0144 1
v 39.2292 28.126 1
v 28.8619 28.8619 1
v 25.8541 28.126 1
v 36.7333 22.0144 1
v 24.8942 25.4702 1
v 28.3499 22.0144 1
v 40.1891 25.4702 1
v 24.8942 25.4702 1
v 36.7333 22.0144 1
v 19.0706 14.463 1
v 12.1591 6.65552 1
v 15.8069 2.30383 1
v 26.4941 6.65552 1
v 22.7184 2.30383 1
v 32.3177 2.30383 1
v 28.8619 22.0144 1
v 26.4941 6.65552 1
v 32.3177 2.30383 1
v 10.1753 22.0144 1
v -1.66388 25.4702 1
v 1.72787 22.0144 1
v 16.6708 20.9265 1
v 21.8224 20.9265 1
v 19.2626 21.6304 1
v 15.4229 18.5587 1
v 26.4941 6.65552 1
v 23.0383 18.5587 1
v 40.1891 25.4702 1
v 25.8541 28.126 1
v 24.8942 25.4702 1
v 15.4229 18.5587 1
v 19.0706 14.463 1
v 26.4941 6.65552 1
v 2.23984 28.8619 1
v -0.735947 28.126 1
v 12.6391 28.126 1
v 26.4941 6.65552 1
v 19.0706 14.463 1
v 22.7184 2.30383 1
v 32.3177 2.30383 1
v 22.7184 2.30383 1
v 27.582 -0.767944 1
v 23.0383 18.5587 1
v 16.6708 20.9265 1
v 15.4229 18.5587 1
v 12.1591 6.65552 1
v 2.23984 22.0144 1
v 6.20755 2.30383 1
v 19.0706 14.463 1
v 15.4229 18.5587 1
v 12.1591 6.65552 1
v 15.8069 2.30383 1
v 6.20755 2.30383 1
v 10.8792 -0.767944 1
v 36.2214 22.0144 1
v 28.8619 22.0144 1
v 32.3177 2.30383 1
v 12.1591 6.65552 1
v 9.6633 22.0144 1
v 2.23984 22.0144 1
v 25.8541 28.126 1
v 40.1891 25.4702 1
v 39.2292 28.126 1
v 12.1591 6.65552 1
v 6.20755 2.30383 1
v 15.8069 2.30383 1
v 21.8224 20.9265 1
v 16.6708 20.9265 1
v 23.0383 18.5587 1
v 39.2292 28.126 1
v 36.2214 28.8619 1
v 28.8619 28.8619 1
v 12.6391 28.126 1
v 9.6633 28.8619 1
v 2.23984 28.8619 1
v 12.6391 28.126 0
v 13.567 25.4702 0
v -0.735947 28.126 0
v 13.567 25.4702 0
v -1.66388 25.4702 0
v -0.735947 28.126 0
v 13.567 25.4702 0
v 10.1753 22.0144 0
v -1.66388 25.4702 0
v 39.2292 28.126 0
v 25.8541 28.126 0
v 28.8619 28.8619 0
v 36.7333 22.0144 0
v 28.3499 22.0144 0
v 24.8942 25.4702 0
v 40.1891 25.4702 0
v 36.7333 22.0144 0
v 24.8942 25.4702 0
v 19.0706 14.463 0
v 15.8069 2.30383 0
v 12.1591 6.65552 0
v 26.4941 6.65552 0
v 32.3177 2.30383 0
v 22.7184 2.30383 0
v 28.8619 22.0144 0
v 32.3177 2.30383 0
v 26.4941 6.65552 0
v 10.1753 22.0144 0
v 1.72787 22.0144 0
v -1.66388 25.4702 0
v 16.6708 20.9265 0
v 19.2626 21.6304 0
v 21.8224 20.9265 0
v 15.4229 18.5587 0
v 23.0383 18.5587 0
v 26.4941 6.65552 0
v 40.1891 25.4702 0
v 24.8942 25.4702 0
v 25.8541 28.126 0
v 15.4229 18.5587 0
v 26.4941 6.65552 0
v 19.0706 14.463 0
v 2.23984 28.8619 0
v 12.6391 28.126 0
v -0.735947 28.126 0
v 26.4941 6.65552 0
v 22.7184 2.30383 0
v 19.0706 14.463 0
v 32.3177 2.30383 0
v 27.582 -0.767944 0
v 22.7184 2.30383 0
v 23.0383 18.5587 0
v 15.4229 18.5587 0
v 16.6708 20.9265 0
v 12.1591 6.65552 0
v 6.20755 2.30383 0
v 2.23984 22.0144 0
v 19.0706 14.463 0
v 12.1591 6.65552 0
v 15.4229 18.5587 0
v 15.8069 2.30383 0
v 10.8792 -0.767944 0
v 6.20755 2.30383 0
v 36.2214 22.0144 0
v 32.3177 2.30383 0
v 28.8619 22.0144 0
v 12.1591 6.65552 0
v 2.23984 22.0144 0
v 9.6633 22.0144 0
v 25.8541 28.126 0
v 39.2292 28.126 0
v 40.1891 25.4702 0
v 12.1591 6.65552 0
v 15.8069 2.30383 0
v 6.20755 2.30383 0
v 21.8224 20.9265 0
v 23.0383 18.5587 0
v 16.6708 20.9265 0
v 39.2292 28.126 0
v 28.8619 28.8619 0
v 36.2214 28.8619 0
v 12.6391 28.126 0
v 2.23984 28.8619 0
v 9.6633 28.8619 0
vn -0.957826 -0.287348 0
vn -0.957826 -0.287348 0
vn 0.0146081 -0.999893 0
vn 0.0146081 -0.999893 0
vn -0.957826 -0.287348 0
vn 0.0146081 -0.999893 0
vn 0.965812 -0.259244 -0
vn 0.965812 -0.259244 -0
vn 0.803406 -0.595431 0
vn 0.803406 -0.595431 0
vn 0.965812 -0.259244 -0
vn 0.803406 -0.595431 0
vn 0.529008 -0.848617 -0
vn 0.529008 -0.848617 -0
vn -0.0121109 -0.999927 0
vn -0.0121109 -0.999927 0
vn 0.529008 -0.848617 -0
vn -0.0121109 -0.999927 0
vn -0.549406 -0.835555 0
vn -0.549406 -0.835555 0
vn -0.828768 -0.559592 0
vn -0.828768 -0.559592 0
vn -0.549406 -0.835555 0
vn -0.828768 -0.559592 0
vn -0.980335 -0.19734 0
vn -0.980335 -0.19734 0
vn -0.633506 -0.773738 0
vn -0.633506 -0.773738 0
vn -0.980335 -0.19734 0
vn -0.633506 -0.773738 0
vn -0 -1 0
vn -0 -1 0
vn -0.386996 -0.922081 0
vn -0.386996 -0.922081 0
vn -0 -1 0
vn -0.386996 -0.922081 0
vn -0.713684 -0.700468 0
vn -0.713684 -0.700468 0
vn -0.975907 -0.218188 0
vn -0.975907 -0.218188 0
vn -0.713684 -0.700468 0
vn -0.975907 -0.218188 0
vn -0.944036 0.329844 -0
vn -0.944036 0.329844 -0
vn -0.673218 0.739444 0
vn -0.673218 0.739444 0
vn -0.944036 0.329844 -0
vn -0.673218 0.739444 0
vn -0.240079 0.970753 -0
vn -0.240079 0.970753 -0
vn -0.120927 0.992662 0
vn -0.120927 0.992662 0
vn -0.240079 0.970753 -0
vn -0.120927 0.992662 0
vn -0 1 -0
vn -0 1 -0
vn 0.120927 0.992662 0
vn 0.120927 0.992662 0
vn -0 1 -0
vn 0.120927 0.992662 0
vn 0.240079 0.970753 -0
vn 0.240079 0.970753 -0
vn 0.673218 0.739444 0
vn 0.673218 0.739444 0
vn 0.240079 0.970753 -0
vn 0.673218 0.739444 0
vn 0.944036 0.329844 -0
vn 0.944036 0.329844 -0
vn 0.975907 -0.218188 0
vn 0.975907 -0.218188 0
vn 0.944036 0.329844 -0
vn 0.975907 -0.218188 0
vn 0.713684 -0.700468 -0
vn 0.713684 -0.700468 -0
vn 0.386996 -0.922081 0
vn 0.386996 -0.922081 0
vn 0.713684 -0.700468 -0
vn 0.386996 -0.922081 0
vn -0 -1 0
vn -0 -1 0
vn 0.761707 -0.647921 0
vn 0.761707 -0.647921 0
vn -0 -1 0
vn 0.761707 -0.647921 0
vn 0.987053 0.160396 -0
vn 0.987053 0.160396 -0
vn 0.053237 0.998582 0
vn 0.053237 0.998582 0
vn 0.987053 0.160396 -0
vn 0.053237 0.998582 0
vn -0.964404 0.264433 -0
vn -0.964404 0.264433 -0
vn -0.930022 0.367505 0
vn -0.930022 0.367505 0
vn -0.964404 0.264433 -0
vn -0.930022 0.367505 0
vn -0.884659 0.466239 -0
vn -0.884659 0.466239 -0
vn -0.625275 0.780404 0
vn -0.625275 0.780404 0
vn -0.884659 0.466239 -0
vn -0.625275 0.780404 0
vn -0.262109 0.965038 -0
vn -0.262109 0.965038 -0
vn 0.00157957 0.999999 0
vn 0.00157957 0.999999 0
vn -0.262109 0.965038 -0
vn 0.00157957 0.999999 0
vn 0.265156 0.964205 -0
vn 0.265156 0.964205 -0
vn 0.630643 0.776073 0
vn 0.630643 0.776073 0
vn 0.265156 0.964205 -0
vn 0.630643 0.776073 0
vn 0.889567 0.456805 -0
vn 0.889567 0.456805 -0
vn 0.929228 0.369506 0
vn 0.929228 0.369506 0
vn 0.889567 0.456805 -0
vn 0.929228 0.369506 0
vn 0.960346 0.27881 -0
vn 0.960346 0.27881 -0
vn -0.0647509 0.997901 0
vn -0.0647509 0.997901 0
vn 0.960346 0.27881 -0
vn -0.0647509 0.997901 0
vn -0.988324 0.152367 -0
vn -0.988324 0.152367 -0
vn -0.759067 -0.651012 0
vn -0.759067 -0.651012 0
vn -0.988324 0.152367 -0
vn -0.759067 -0.651012 0
vn -0 -1 0
vn -0 -1 0
vn -0.382683 -0.92388 0
vn -0.382683 -0.92388 0
vn -0 -1 0
vn -0.382683 -0.92388 0
vn -0.707107 -0.707107 0
vn -0.707107 -0.707107 0
vn -0.976054 -0.217529 0
vn -0.976054 -0.217529 0
vn -0.707107 -0.707107 0
vn -0.976054 -0.217529 0
vn -0.940453 0.339923 -0
vn -0.940453 0.339923 -0
vn -0.668332 0.743863 0
vn -0.668332 0.743863 0
vn -0.940453 0.339923 -0
vn -0.668332 0.743863 0
vn -0.23767 0.971346 -0
vn -0.23767 0.971346 -0
vn -0.119695 0.992811 0
vn -0.119695 0.992811 0
vn -0.23767 0.971346 -0
vn -0.119695 0.992811 0
vn -0 1 -0
vn -0 1 -0
vn 0.119695 0.992811 0
vn 0.119695 0.992811 0
vn -0 1 -0
vn 0.119695 0.992811 0
vn 0.23767 0.971346 -0
vn 0.23767 0.971346 -0
vn 0.668332 0.743863 0
vn 0.668332 0.743863 0
vn 0.23767 0.971346 -0
vn 0.668332 0.743863 0
vn 0.940453 0.339923 -0
vn 0.940453 0.339923 -0
vn 0.976054 -0.217529 0
vn 0.976054 -0.217529 0
vn 0.940453 0.339923 -0
vn 0.976054 -0.217529 0
vn 0.707107 -0.707107 -0
vn 0.707107 -0.707107 -0
vn 0.382683 -0.92388 0
vn 0.382683 -0.92388 0
vn 0.707107 -0.707107 -0
vn 0.382683 -0.92388 0
vn -0 -1 0
vn -0 -1 0
vn 0.634713 -0.772748 0
vn 0.634713 -0.772748 0
vn -0 -1 0
vn 0.634713 -0.772748 0
vn 0.980946 -0.194278 -0
vn 0.980946 -0.194278 -0
vn 0.827898 -0.560879 0
vn 0.827898 -0.560879 0
vn 0.980946 -0.194278 -0
vn 0.827898 -0.560879 0
vn 0.544191 -0.838961 -0
vn 0.544191 -0.838961 -0
vn 0.00605409 -0.999982 0
vn 0.00605409 -0.999982 0
vn 0.544191 -0.838961 -0
vn 0.00605409 -0.999982 0
vn -0.533993 -0.845489 0
vn -0.533993 -0.845489 0
vn -0.796405 -0.604763 0
vn -0.796405 -0.604763 0
vn -0.533993 -0.845489 0
vn -0.796405 -0.604763 0
vn 0 0 1
vn 0 0 1
vn 0 0 1
vn 0 0 1
vn 0 0 1
vn 0 0 1
vn 0 0 1
vn 0 0 1
vn 0 0 1
vn 0 0 1
vn 0 0 1
vn 0 0 1
vn 0 0 1
vn 0 0 1
vn 0 0 1
vn 0 0 1
vn 0 0 1
vn 0 0 1
vn 0 0 1
vn 0 0 1
vn 0 0 1
vn 0 0 1
vn 0 0 1
vn 0 0 1
vn 0 0 1
vn 0 0 1
vn 0 0 1
vn 0 0 1
vn 0 0 1
vn 0 0 1
vn 0 0 1
vn 0 0 1
vn 0 0 1
vn 0 0 1
vn 0 0 1
vn 0 0 1
vn 0 0 1
vn 0 0 1
vn 0 0 1
vn 0 0 1
vn 0 0 1
vn 0 0 1
vn 0 0 1
vn 0 0 1
vn 0 0 1
vn 0 0 1
vn 0 0 1
vn 0 0 1
vn 0 0 1
vn 0 0 1
vn 0 0 1
vn 0 0 1
vn 0 0 1
vn 0 0 1
vn 0 0 1
vn 0 0 1
vn 0 0 1
vn 0 0 1
vn 0 0 1
vn 0 0 1
vn 0 0 1
vn 0 0 1
vn 0 0 1
vn 0 0 1
vn 0 0 1
vn 0 0 1
vn 0 0 1
vn 0 0 1
vn 0 0 1
vn 0 0 1
vn 0 0 1
vn 0 0 1
vn 0 0 1
vn 0 0 1
vn 0 0 1
vn 0 0 1
vn 0 0 1
vn 0 0 1
vn 0 0 1
vn 0 0 1
vn 0 0 1
vn 0 0 1
vn 0 0 1
vn 0 0 1
vn 0 0 -1
vn 0 0 -1
vn 0 0 -1
vn 0 0 -1
vn 0 0 -1
vn 0 0 -1
vn 0 0 -1
vn 0 0 -1
vn 0 0 -1
vn 0 0 -1
vn 0 0 -1
vn 0 0 -1
vn 0 0 -1
vn 0 0 -1
vn 0 0 -1
vn 0 0 -1
vn 0 0 -1
vn 0 0 -1
vn 0 0 -1
vn 0 0 -1
vn 0 0 -1
vn 0 0 -1
vn 0 0 -1
vn 0 0 -1
vn 0 0 -1
vn 0 0 -1
vn 0 0 -1
vn 0 0 -1
vn 0 0 -1
vn 0 0 -1
vn 0 0 -1
vn 0 0 -1
vn 0 0 -1
vn 0 0 -1
vn 0 0 -1
vn 0 0 -1
vn 0 0 -1
vn 0 0 -1
vn 0 0 -1
vn 0 0 -1
vn 0 0 -1
vn 0 0 -1
vn 0 0 -1
vn 0 0 -1
vn 0 0 -1
vn 0 0 -1
vn 0 0 -1
vn 0 0 -1
vn 0 0 -1
vn 0 0 -1
vn 0 0 -1
vn 0 0 -1
vn 0 0 -1
vn 0 0 -1
vn 0 0 -1
vn 0 0 -1
vn 0 0 -1
vn 0 0 -1
vn 0 0 -1
vn 0 0 -1
vn 0 0 -1
vn 0 0 -1
vn 0 0 -1
vn 0 0 -1
vn 0 0 -1
vn 0 0 -1
vn 0 0 -1
vn 0 0 -1
vn 0 0 -1
vn 0 0 -1
vn 0 0 -1
vn 0 0 -1
vn 0 0 -1
vn 0 0 -1
vn 0 0 -1
vn 0 0 -1
vn 0 0 -1
vn 0 0 -1
vn 0 0 -1
vn 0 0 -1
vn 0 0 -1
vn 0 0 -1
vn 0 0 -1
vn 0 0 -1
f 1//1 2//2 3//3
f 4//4 5//5 6//6
f 7//7 8//8 9//9
f 10//10 11//11 12//12
f 13//13 14//14 15//15
f 16//16 17//17 18//18
f 19//19 20//20 21//21
f 22//22 23//23 24//24
f 25//25 26//26 27//27
f 28//28 29//29 30//30
f 31//31 32//32 33//33
f 34//34 35//35 36//36
f 37//37 38//38 39//39
f 40//40 41//41 42//42
f 43//43 44//44 45//45
f 46//46 47//47 48//48
f 49//49 50//50 51//51
f 52//52 53//53 54//54
f 55//55 56//56 57//57
f 58//58 59//59 60//60
f 61//61 62//62 63//63
f 64//64 65//65 66//66
f 67//67 68//68 69//69
f 70//70 71//71 72//72
f 73//73 74//74 75//75
f 76//76 77//77 78//78
f 79//79 80//80 81//81
f 82//82 83//83 84//84
f 85//85 86//86 87//87
f 88//88 89//89 90//90
f 91//91 92//92 93//93
f 94//94 95//95 96//96
f 97//97 98//98 99//99
f 100//100 101//101 102//102
f 103//103 104//104 105//105
f 106//106 107//107 108//108
f 109//109 110//110 111//111
f 112//112 113//113 114//114
f 115//115 116//116 117//117
f 118//118 119//119 120//120
f 121//121 122//122 123//123
f 124//124 125//125 126//126
f 127//127 128//128 129//129
f 130//130 131//131 132//132
f 133//133 134//134 135//135
f 136//136 137//137 138//138
f 139//139 140//140 141//141
f 142//142 143//143 144//144
f 145//145 146//146 147//147
f 148//148 149//149 150//150
f 151//151 152//152 153//153
f 154//154 155//155 156//156
f 157//157 158//158 159//159
f 160//160 161//161 162//162
f 163//163 164//164 165//165
f 166//166 167//167 168//168
f 169//169 170//170 171//171
f 172//172 173//173 174//174
f 175//175 176//176 177//177
f 178//178 179//179 180//180
f 181//181 182//182 183//183
f 184//184 185//185 186//186
f 187//187 188//188 189//189
f 190//190 191//191 192//192
f 193//193 194//194 195//195
f 196//196 197//197 198//198
f 199//199 200//200 201//201
f 202//202 203//203 204//204
f 205//205 206//206 207//207
f 208//208 209//209 210//210
f 211//211 212//212 213//213
f 214//214 215//215 216//216
f 217//217 218//218 219//219
f 220//220 221//221 222//222
f 223//223 224//224 225//225
f 226//226 227//227 228//228
f 229//229 230//230 231//231
f 232//232 233//233 234//234
f 235//235 236//236 237//237
f 238//238 239//239 240//240
f 241//241 242//242 243//243
f 244//244 245//245 246//246
f 247//247 248//248 249//249
f 250//250 251//251 252//252
f 253//253 254//254 255//255
f 256//256 257//257 258//258
f 259//259 260//260 261//261
f 262//262 263//263 264//264
f 265//265 266//266 267//267
f 268//268 269//269 270//270
f 271//271 272//272 273//273
f 274//274 275//275 276//276
f 277//277 278//278 279//279
f 280//280 281//281 282//282
f 283//283 284//284 285//285
f 286//286 287//287 288//288
f 289//289 290//290 291//291
f 292//292 293//293 294//294
f 295//295 296//296 297//297
f 298//298 299//299 300//300
f 301//301 302//302 303//303
f 304//304 305//305 306//306
f 307//307 308//308 309//309
f 310//310 311//311 312//312
f 313//313 314//314 315//315
f 316//316 317//317 318//318
f 319//319 320//320 321//321
f 322//322 323//323 324//324
f 325//325 326//326 327//327
f 328//328 329//329 330//330
f 331//331 332//332 333//333
f 334//334 335//335 336//336
f 337//337 338//338 339//339
f 340//340 341//341 342//342
f 343//343 344//344 345//345
f 346//346 347//347 348//348
f 349//349 350//350 351//351
f 352//352 353//353 354//354
f 355//355 356//356 357//357
f 358//358 359//359 360//360
f 361//361 362//362 363//363
f 364//364 365//365 366//366
f 367//367 368//368 369//369
f 370//370 371//371 372//372
