v 4 16.5 0
v 6 16 0
v 4 16.5 1
v 6 16 0
v 6 16 1
v 4 16.5 1
v 6 16 0
v 8.5 17 0
v 6 16 1
v 8.5 17 0
v 8.5 17 1
v 6 16 1
v 8.5 17 0
v 13 18 0
v 8.5 17 1
v 13 18 0
v 13 18 1
v 8.5 17 1
v 13 18 0
v 19 16.5 0
v 13 18 1
v 19 16.5 0
v 19 16.5 1
v 13 18 1
v 19 16.5 0
v 26 15 0
v 19 16.5 1
v 26 15 0
v 26 15 1
v 19 16.5 1
v 26 15 0
v 32.5 17 0
v 26 15 1
v 32.5 17 0
v 32.5 17 1
v 26 15 1
v 32.5 17 0
v 35 21 0
v 32.5 17 1
v 35 21 0
v 35 21 1
v 32.5 17 1
v 35 21 0
v 34.5 23 0
v 35 21 1
v 34.5 23 0
v 34.5 23 1
v 35 21 1
v 34.5 23 0
v 33 24 0
v 34.5 23 1
v 33 24 0
v 33 24 1
v 34.5 23 1
v 33 24 0
v 30 23 0
v 33 24 1
v 30 23 0
v 30 23 1
v 33 24 1
v 30 23 0
v 26 22 0
v 30 23 1
v 26 22 0
v 26 22 1
v 30 23 1
v 26 22 0
v 13 24 0
v 26 22 1
v 13 24 0
v 13 24 1
v 26 22 1
v 13 24 0
v 6 22 0
v 13 24 1
v 6 22 0
v 6 22 1
v 13 24 1
v 6 22 0
v 3 18 0
v 6 22 1
v 3 18 0
v 3 18 1
v 6 22 1
v 3 18 0
v 4 16.5 0
v 3 18 1
v 4 16.5 0
v 4 16.5 1
v 3 18 1
v 19 16.5 1
v 26 15 1
v 32.5 17 1
v 13 18 1
v 3 18 1
v 8.5 17 1
v 6 22 1
v 3 18 1
v 35 21 1
v 3 18 1
v 13 18 1
v 35 21 1
v 34.5 23 1
v 30 23 1
v 35 21 1
v 26 22 1
v 13 24 1
v 6 22 1
v 8.5 17 1
v 4 16.5 1
v 6 16 1
v 30 23 1
v 26 22 1
v 35 21 1
v 35 21 1
v 26 22 1
v 6 22 1
v 33 24 1
v 30 23 1
v 34.5 23 1
v 3 18 1
v 4 16.5 1
v 8.5 17 1
v 13 18 1
v 19 16.5 1
v 32.5 17 1
v 13 18 1
v 32.5 17 1
v 35 21 1
v 19 16.5 0
v 32.5 17 0
v 26 15 0
v 13 18 0
v 8.5 17 0
v 3 18 0
v 6 22 0
v 35 21 0
v 3 18 0
v 3 18 0
v 35 21 0
v 13 18 0
v 34.5 23 0
v 35 21 0
v 30 23 0
v 26 22 0
v 6 22 0
v 13 24 0
v 8.5 17 0
v 6 16 0
v 4 16.5 0
v 30 23 0
v 35 21 0
v 26 22 0
v 35 21 0
v 6 22 0
v 26 22 0
v 33 24 0
v 34.5 23 0
v 30 23 0
v 3 18 0
v 8.5 17 0
v 4 16.5 0
v 13 18 0
v 32.5 17 0
v 19 16.5 0
v 13 18 0
v 35 21 0
v 32.5 17 0
vn -0.242536 -0.970143 0
vn 0.0677121 -0.997705 0
vn -0.242536 -0.970143 0
vn 0.0677121 -0.997705 0
vn 0.0677121 -0.997705 0
vn -0.242536 -0.970143 0
vn 0.371391 -0.928477 0
vn 0.295127 -0.955458 0
vn 0.371391 -0.928477 0
vn 0.295127 -0.955458 0
vn 0.295127 -0.955458 0
vn 0.371391 -0.928477 0
vn 0.21693 -0.976187 0
vn -0.0131546 -0.999914 0
vn 0.21693 -0.976187 0
vn -0.0131546 -0.999914 0
vn -0.0131546 -0.999914 0
vn 0.21693 -0.976187 0
vn -0.242536 -0.970143 0
vn -0.226063 -0.974113 0
vn -0.242536 -0.970143 0
vn -0.226063 -0.974113 0
vn -0.226063 -0.974113 0
vn -0.242536 -0.970143 0
vn -0.209529 -0.977802 0
vn 0.0436888 -0.999045 0
vn -0.209529 -0.977802 0
vn 0.0436888 -0.999045 0
vn 0.0436888 -0.999045 0
vn -0.209529 -0.977802 0
vn 0.294086 -0.955779 0
vn 0.609435 -0.792836 0
vn 0.294086 -0.955779 0
vn 0.609435 -0.792836 0
vn 0.609435 -0.792836 0
vn 0.294086 -0.955779 0
vn 0.847998 -0.529999 0
vn 0.98773 -0.156168 0
vn 0.847998 -0.529999 0
vn 0.98773 -0.156168 0
vn 0.98773 -0.156168 0
vn 0.847998 -0.529999 0
vn 0.970143 0.242536 -0
vn 0.817416 0.576048 0
vn 0.970143 0.242536 -0
vn 0.817416 0.576048 0
vn 0.817416 0.576048 0
vn 0.970143 0.242536 -0
vn 0.5547 0.83205 -0
vn 0.132733 0.991152 0
vn 0.5547 0.83205 -0
vn 0.132733 0.991152 0
vn 0.132733 0.991152 0
vn 0.5547 0.83205 -0
vn -0.316228 0.948683 0
vn -0.279589 0.96012 0
vn -0.316228 0.948683 0
vn -0.279589 0.96012 0
vn -0.279589 0.96012 0
vn -0.316228 0.948683 0
vn -0.242536 0.970143 0
vn -0.0461482 0.998935 0
vn -0.242536 0.970143 0
vn -0.0461482 0.998935 0
vn -0.0461482 0.998935 0
vn -0.242536 0.970143 0
vn 0.152057 0.988372 -0
vn -0.0627841 0.998027 0
vn 0.152057 0.988372 -0
vn -0.0627841 0.998027 0
vn -0.0627841 0.998027 0
vn 0.152057 0.988372 -0
vn -0.274721 0.961524 0
vn -0.566949 0.823753 0
vn -0.274721 0.961524 0
vn -0.566949 0.823753 0
vn -0.566949 0.823753 0
vn -0.274721 0.961524 0
vn -0.8 0.6 0
vn -0.999615 0.0277457 0
vn -0.8 0.6 0
vn -0.999615 0.0277457 0
vn -0.999615 0.0277457 0
vn -0.8 0.6 0
vn -0.83205 -0.5547 0
vn -0.576048 -0.817416 0
vn -0.83205 -0.5547 0
vn -0.576048 -0.817416 0
vn -0.576048 -0.817416 0
vn -0.83205 -0.5547 0
vn 0 0 1
vn 0 0 1
vn 0 0 1
vn 0 0 1
vn 0 0 1
vn 0 0 1
vn 0 0 1
vn 0 0 1
vn 0 0 1
vn 0 0 1
vn 0 0 1
vn 0 0 1
vn 0 0 1
vn 0 0 1
vn 0 0 1
vn 0 0 1
vn 0 0 1
vn 0 0 1
vn 0 0 1
vn 0 0 1
vn 0 0 1
vn 0 0 1
vn 0 0 1
vn 0 0 1
vn 0 0 1
vn 0 0 1
vn 0 0 1
vn 0 0 1
vn 0 0 1
vn 0 0 1
vn 0 0 1
vn 0 0 1
vn 0 0 1
vn 0 0 1
vn 0 0 1
vn 0 0 1
vn 0 0 1
vn 0 0 1
vn 0 0 1
vn 0 0 -1
vn 0 0 -1
vn 0 0 -1
vn 0 0 -1
vn 0 0 -1
vn 0 0 -1
vn 0 0 -1
vn 0 0 -1
vn 0 0 -1
vn 0 0 -1
vn 0 0 -1
vn 0 0 -1
vn 0 0 -1
vn 0 0 -1
vn 0 0 -1
vn 0 0 -1
vn 0 0 -1
vn 0 0 -1
vn 0 0 -1
vn 0 0 -1
vn 0 0 -1
vn 0 0 -1
vn 0 0 -1
vn 0 0 -1
vn 0 0 -1
vn 0 0 -1
vn 0 0 -1
vn 0 0 -1
vn 0 0 -1
vn 0 0 -1
vn 0 0 -1
vn 0 0 -1
vn 0 0 -1
vn 0 0 -1
vn 0 0 -1
vn 0 0 -1
vn 0 0 -1
vn 0 0 -1
vn 0 0 -1
f 1//1 2//2 3//3
f 4//4 5//5 6//6
f 7//7 8//8 9//9
f 10//10 11//11 12//12
f 13//13 14//14 15//15
f 16//16 17//17 18//18
f 19//19 20//20 21//21
f 22//22 23//23 24//24
f 25//25 26//26 27//27
f 28//28 29//29 30//30
f 31//31 32//32 33//33
f 34//34 35//35 36//36
f 37//37 38//38 39//39
f 40//40 41//41 42//42
f 43//43 44//44 45//45
f 46//46 47//47 48//48
f 49//49 50//50 51//51
f 52//52 53//53 54//54
f 55//55 56//56 57//57
f 58//58 59//59 60//60
f 61//61 62//62 63//63
f 64//64 65//65 66//66
f 67//67 68//68 69//69
f 70//70 71//71 72//72
f 73//73 74//74 75//75
f 76//76 77//77 78//78
f 79//79 80//80 81//81
f 82//82 83//83 84//84
f 85//85 86//86 87//87
f 88//88 89//89 90//90
f 91//91 92//92 93//93
f 94//94 95//95 96//96
f 97//97 98//98 99//99
f 100//100 101//101 102//102
f 103//103 104//104 105//105
f 106//106 107//107 108//108
f 109//109 110//110 111//111
f 112//112 113//113 114//114
f 115//115 116//116 117//117
f 118//118 119//119 120//120
f 121//121 122//122 123//123
f 124//124 125//125 126//126
f 127//127 128//128 129//129
f 130//130 131//131 132//132
f 133//133 134//134 135//135
f 136//136 137//137 138//138
f 139//139 140//140 141//141
f 142//142 143//143 144//144
f 145//145 146//146 147//147
f 148//148 149//149 150//150
f 151//151 152//152 153//153
f 154//154 155//155 156//156
f 157//157 158//158 159//159
f 160//160 161//161 162//162
f 163//163 164//164 165//165
f 166//166 167//167 168//168
