v 21 3 0
v 21 3 1
v 28 3 0
v 28 3 0
v 21 3 1
v 28 3 1
v 28 3 0
v 28 3 1
v 28 12 0
v 28 12 0
v 28 3 1
v 28 12 1
v 28 12 0
v 28 12 1
v 21 3 0
v 21 3 0
v 28 12 1
v 21 3 1
v 28 17 0
v 28 17 1
v 32 16 0
v 32 16 0
v 28 17 1
v 32 16 1
v 32 16 0
v 32 16 1
v 33 14 0
v 33 14 0
v 32 16 1
v 33 14 1
v 33 14 0
v 33 14 1
v 33 3 0
v 33 3 0
v 33 14 1
v 33 3 1
v 33 3 0
v 33 3 1
v 35 3 0
v 35 3 0
v 33 3 1
v 35 3 1
v 35 3 0
v 35 3 1
v 36 2.5 0
v 36 2.5 0
v 35 3 1
v 36 2.5 1
v 36 2.5 0
v 36 2.5 1
v 36 -1.5 0
v 36 -1.5 0
v 36 2.5 1
v 36 -1.5 1
v 36 -1.5 0
v 36 -1.5 1
v 35 -2 0
v 35 -2 0
v 36 -1.5 1
v 35 -2 1
v 35 -2 0
v 35 -2 1
v 33 -2 0
v 33 -2 0
v 35 -2 1
v 33 -2 1
v 33 -2 0
v 33 -2 1
v 33 -4 0
v 33 -4 0
v 33 -2 1
v 33 -4 1
v 33 -4 0
v 33 -4 1
v 30 -6 0
v 30 -6 0
v 33 -4 1
v 30 -6 1
v 30 -6 0
v 30 -6 1
v 28.5 -5.5 0
v 28.5 -5.5 0
v 30 -6 1
v 28.5 -5.5 1
v 28.5 -5.5 0
v 28.5 -5.5 1
v 28 -4 0
v 28 -4 0
v 28.5 -5.5 1
v 28 -4 1
v 28 -4 0
v 28 -4 1
v 28 -2 0
v 28 -2 0
v 28 -4 1
v 28 -2 1
v 28 -2 0
v 28 -2 1
v 18 -2 0
v 18 -2 0
v 28 -2 1
v 18 -2 1
v 18 -2 0
v 18 -2 1
v 16 1 0
v 16 1 0
v 18 -2 1
v 16 1 1
v 16 1 0
v 16 1 1
v 17 5 0
v 17 5 0
v 16 1 1
v 17 5 1
v 17 5 0
v 17 5 1
v 26 16 0
v 26 16 0
v 17 5 1
v 26 16 1
v 26 16 0
v 26 16 1
v 27 17 0
v 27 17 0
v 26 16 1
v 27 17 1
v 27 17 0
v 27 17 1
v 28 17 0
v 28 17 0
v 27 17 1
v 28 17 1
v 5 13 0
v 5 13 1
v 31 27 0
v 31 27 0
v 5 13 1
v 31 27 1
v 31 27 0
v 31 27 1
v 33 27 0
v 33 27 0
v 31 27 1
v 33 27 1
v 33 27 0
v 33 27 1
v 33.5 26.5 0
v 33.5 26.5 0
v 33 27 1
v 33.5 26.5 1
v 33.5 26.5 0
v 33.5 26.5 1
v 34 25 0
v 34 25 0
v 33.5 26.5 1
v 34 25 1
v 34 25 0
v 34 25 1
v 33 24 0
v 33 24 0
v 34 25 1
v 33 24 1
v 33 24 0
v 33 24 1
v 6 10 0
v 6 10 0
v 33 24 1
v 6 10 1
v 6 10 0
v 6 10 1
v 5 10 0
v 5 10 0
v 6 10 1
v 5 10 1
v 5 10 0
v 5 10 1
v 4.5 10.5 0
v 4.5 10.5 0
v 5 10 1
v 4.5 10.5 1
v 4.5 10.5 0
v 4.5 10.5 1
v 4 12 0
v 4 12 0
v 4.5 10.5 1
v 4 12 1
v 4 12 0
v 4 12 1
v 5 13 0
v 5 13 0
v 4 12 1
v 5 13 1
v 19 38 0
v 19 38 1
v 15 33 0
v 15 33 0
v 19 38 1
v 15 33 1
v 15 33 0
v 15 33 1
v 20 28 0
v 20 28 0
v 15 33 1
v 20 28 1
v 20 28 0
v 20 28 1
v 17.5 23 0
v 17.5 23 0
v 20 28 1
v 17.5 23 1
v 17.5 23 0
v 17.5 23 1
v 10 21 0
v 10 21 0
v 17.5 23 1
v 10 21 1
v 10 21 0
v 10 21 1
v 4.5 21.5 0
v 4.5 21.5 0
v 10 21 1
v 4.5 21.5 1
v 4.5 21.5 0
v 4.5 21.5 1
v 2 24 0
v 2 24 0
v 4.5 21.5 1
v 2 24 1
v 2 24 0
v 2 24 1
v 5 26 0
v 5 26 0
v 2 24 1
v 5 26 1
v 5 26 0
v 5 26 1
v 7 25.5 0
v 7 25.5 0
v 5 26 1
v 7 25.5 1
v 7 25.5 0
v 7 25.5 1
v 10 25 0
v 10 25 0
v 7 25.5 1
v 10 25 1
v 10 25 0
v 10 25 1
v 13 26 0
v 13 26 0
v 10 25 1
v 13 26 1
v 13 26 0
v 13 26 1
v 14 28 0
v 14 28 0
v 13 26 1
v 14 28 1
v 14 28 0
v 14 28 1
v 13 30 0
v 13 30 0
v 14 28 1
v 13 30 1
v 13 30 0
v 13 30 1
v 11 31 0
v 11 31 0
v 13 30 1
v 11 31 1
v 11 31 0
v 11 31 1
v 9.5 31 0
v 9.5 31 0
v 11 31 1
v 9.5 31 1
v 9.5 31 0
v 9.5 31 1
v 9 31.5 0
v 9 31.5 0
v 9.5 31 1
v 9 31.5 1
v 9 31.5 0
v 9 31.5 1
v 9 33 0
v 9 33 0
v 9 31.5 1
v 9 33 1
v 9 33 0
v 9 33 1
v 9.5 34.5 0
v 9.5 34.5 0
v 9 33 1
v 9.5 34.5 1
v 9.5 34.5 0
v 9.5 34.5 1
v 12.5 35.5 0
v 12.5 35.5 0
v 9.5 34.5 1
v 12.5 35.5 1
v 12.5 35.5 0
v 12.5 35.5 1
v 13 38 0
v 13 38 0
v 12.5 35.5 1
v 13 38 1
v 13 38 0
v 13 38 1
v 11 40 0
v 11 40 0
v 13 38 1
v 11 40 1
v 11 40 0
v 11 40 1
v 5 38 0
v 5 38 0
v 11 40 1
v 5 38 1
v 5 38 0
v 5 38 1
v 4 38.5 0
v 4 38.5 0
v 5 38 1
v 4 38.5 1
v 4 38.5 0
v 4 38.5 1
v 3 40 0
v 3 40 0
v 4 38.5 1
v 3 40 1
v 3 40 0
v 3 40 1
v 5.5 43 0
v 5.5 43 0
v 3 40 1
v 5.5 43 1
v 5.5 43 0
v 5.5 43 1
v 11.5 44 0
v 11.5 44 0
v 5.5 43 1
v 11.5 44 1
v 11.5 44 0
v 11.5 44 1
v 17 42.5 0
v 17 42.5 0
v 11.5 44 1
v 17 42.5 1
v 17 42.5 0
v 17 42.5 1
v 19 38 0
v 19 38 0
v 17 42.5 1
v 19 38 1
v 11 40 1
v 13 38 1
v 19 38 1
v 13 38 1
v 15 33 1
v 19 38 1
v 15 33 1
v 13 38 1
v 12.5 35.5 1
v 15 33 1
v 9.5 34.5 1
v 9 33 1
v 9 33 1
v 11 31 1
v 20 28 1
v 15 33 1
v 9 33 1
v 20 28 1
v 9 33 1
v 9 31.5 1
v 11 31 1
v 11 31 1
v 13 30 1
v 20 28 1
v 27 17 1
v 26 16 1
v 32 16 1
v 13 30 1
v 14 28 1
v 20 28 1
v 20 28 1
v 14 28 1
v 17.5 23 1
v 14 28 1
v 13 26 1
v 17.5 23 1
v 13 26 1
v 10 25 1
v 17.5 23 1
v 10 25 1
v 2 24 1
v 17.5 23 1
v 31 27 1
v 5 13 1
v 33.5 26.5 1
v 12.5 35.5 1
v 9.5 34.5 1
v 15 33 1
v 4 12 1
v 4.5 10.5 1
v 6 10 1
v 33 3 1
v 28 12 1
v 28 3 1
v 28 -2 1
v 28 -4 1
v 33 -4 1
v 4.5 21.5 1
v 10 21 1
v 17.5 23 1
v 33 -4 1
v 28 -4 1
v 30 -6 1
v 33 14 1
v 26 16 1
v 28 12 1
v 28 12 1
v 26 16 1
v 17 5 1
v 5 13 1
v 6 10 1
v 33 24 1
v 11 40 1
v 19 38 1
v 17 42.5 1
v 5 13 1
v 34 25 1
v 33.5 26.5 1
v 18 -2 1
v 35 -2 1
v 36 -1.5 1
v 28 12 1
v 17 5 1
v 21 3 1
v 7 25.5 1
v 5 26 1
v 2 24 1
v 4.5 10.5 1
v 5 10 1
v 6 10 1
v 21 3 1
v 16 1 1
v 36 2.5 1
v 16 1 1
v 18 -2 1
v 36 -1.5 1
v 5.5 43 1
v 3 40 1
v 17 42.5 1
v 3 40 1
v 5 38 1
v 11 40 1
v 9.5 31 1
v 11 31 1
v 9 31.5 1
v 36 2.5 1
v 35 3 1
v 21 3 1
v 3 40 1
v 4 38.5 1
v 5 38 1
v 6 10 1
v 5 13 1
v 4 12 1
v 21 3 1
v 17 5 1
v 16 1 1
v 36 2.5 1
v 16 1 1
v 36 -1.5 1
v 7 25.5 1
v 2 24 1
v 10 25 1
v 28 -2 1
v 33 -4 1
v 33 -2 1
v 5 13 1
v 33 24 1
v 34 25 1
v 5.5 43 1
v 17 42.5 1
v 11.5 44 1
v 26 16 1
v 33 14 1
v 32 16 1
v 30 -6 1
v 28 -4 1
v 28.5 -5.5 1
v 28 17 1
v 27 17 1
v 32 16 1
v 33 3 1
v 33 14 1
v 28 12 1
v 33.5 26.5 1
v 33 27 1
v 31 27 1
v 2 24 1
v 4.5 21.5 1
v 17.5 23 1
v 3 40 1
v 11 40 1
v 17 42.5 1
v 11 40 0
v 19 38 0
v 13 38 0
v 13 38 0
v 19 38 0
v 15 33 0
v 15 33 0
v 12.5 35.5 0
v 13 38 0
v 15 33 0
v 9 33 0
v 9.5 34.5 0
v 9 33 0
v 20 28 0
v 11 31 0
v 15 33 0
v 20 28 0
v 9 33 0
v 9 33 0
v 11 31 0
v 9 31.5 0
v 11 31 0
v 20 28 0
v 13 30 0
v 27 17 0
v 32 16 0
v 26 16 0
v 13 30 0
v 20 28 0
v 14 28 0
v 20 28 0
v 17.5 23 0
v 14 28 0
v 14 28 0
v 17.5 23 0
v 13 26 0
v 13 26 0
v 17.5 23 0
v 10 25 0
v 10 25 0
v 17.5 23 0
v 2 24 0
v 31 27 0
v 33.5 26.5 0
v 5 13 0
v 12.5 35.5 0
v 15 33 0
v 9.5 34.5 0
v 4 12 0
v 6 10 0
v 4.5 10.5 0
v 33 3 0
v 28 3 0
v 28 12 0
v 28 -2 0
v 33 -4 0
v 28 -4 0
v 4.5 21.5 0
v 17.5 23 0
v 10 21 0
v 33 -4 0
v 30 -6 0
v 28 -4 0
v 33 14 0
v 28 12 0
v 26 16 0
v 28 12 0
v 17 5 0
v 26 16 0
v 5 13 0
v 33 24 0
v 6 10 0
v 11 40 0
v 17 42.5 0
v 19 38 0
v 5 13 0
v 33.5 26.5 0
v 34 25 0
v 18 -2 0
v 36 -1.5 0
v 35 -2 0
v 28 12 0
v 21 3 0
v 17 5 0
v 7 25.5 0
v 2 24 0
v 5 26 0
v 4.5 10.5 0
v 6 10 0
v 5 10 0
v 21 3 0
v 36 2.5 0
v 16 1 0
v 16 1 0
v 36 -1.5 0
v 18 -2 0
v 5.5 43 0
v 17 42.5 0
v 3 40 0
v 3 40 0
v 11 40 0
v 5 38 0
v 9.5 31 0
v 9 31.5 0
v 11 31 0
v 36 2.5 0
v 21 3 0
v 35 3 0
v 3 40 0
v 5 38 0
v 4 38.5 0
v 6 10 0
v 4 12 0
v 5 13 0
v 21 3 0
v 16 1 0
v 17 5 0
v 36 2.5 0
v 36 -1.5 0
v 16 1 0
v 7 25.5 0
v 10 25 0
v 2 24 0
v 28 -2 0
v 33 -2 0
v 33 -4 0
v 5 13 0
v 34 25 0
v 33 24 0
v 5.5 43 0
v 11.5 44 0
v 17 42.5 0
v 26 16 0
v 32 16 0
v 33 14 0
v 30 -6 0
v 28.5 -5.5 0
v 28 -4 0
v 28 17 0
v 32 16 0
v 27 17 0
v 33 3 0
v 28 12 0
v 33 14 0
v 33.5 26.5 0
v 31 27 0
v 33 27 0
v 2 24 0
v 17.5 23 0
v 4.5 21.5 0
v 3 40 0
v 17 42.5 0
v 11 40 0
vn -0 1 -0
vn -0 1 -0
vn -0.707107 0.707107 0
vn -0.707107 0.707107 0
vn -0 1 -0
vn -0.707107 0.707107 0
vn -1 -0 -0
vn -1 -0 -0
vn -0.324536 -0.945873 0
vn -0.324536 -0.945873 0
vn -1 -0 -0
vn -0.324536 -0.945873 0
vn 0.789352 -0.613941 -0
vn 0.789352 -0.613941 -0
vn 0.898315 0.439351 0
vn 0.898315 0.439351 0
vn 0.789352 -0.613941 -0
vn 0.898315 0.439351 0
vn 0.242536 0.970143 -0
vn 0.242536 0.970143 -0
vn 0.625727 0.780042 0
vn 0.625727 0.780042 0
vn 0.242536 0.970143 -0
vn 0.625727 0.780042 0
vn 0.894427 0.447214 -0
vn 0.894427 0.447214 -0
vn 0.973249 0.229753 0
vn 0.973249 0.229753 0
vn 0.894427 0.447214 -0
vn 0.973249 0.229753 0
vn 1 -0 -0
vn 1 -0 -0
vn 0.707107 0.707107 0
vn 0.707107 0.707107 0
vn 1 -0 -0
vn 0.707107 0.707107 0
vn -0 1 -0
vn -0 1 -0
vn 0.229753 0.973249 0
vn 0.229753 0.973249 0
vn -0 1 -0
vn 0.229753 0.973249 0
vn 0.447214 0.894427 -0
vn 0.447214 0.894427 -0
vn 0.850651 0.525731 0
vn 0.850651 0.525731 0
vn 0.447214 0.894427 -0
vn 0.850651 0.525731 0
vn 1 -0 -0
vn 1 -0 -0
vn 0.850651 -0.525731 0
vn 0.850651 -0.525731 0
vn 1 -0 -0
vn 0.850651 -0.525731 0
vn 0.447214 -0.894427 -0
vn 0.447214 -0.894427 -0
vn 0.229753 -0.973249 0
vn 0.229753 -0.973249 0
vn 0.447214 -0.894427 -0
vn 0.229753 -0.973249 0
vn -0 -1 0
vn -0 -1 0
vn 0.707107 -0.707107 0
vn 0.707107 -0.707107 0
vn -0 -1 0
vn 0.707107 -0.707107 0
vn 1 -0 -0
vn 1 -0 -0
vn 0.881675 -0.471858 0
vn 0.881675 -0.471858 0
vn 1 -0 -0
vn 0.881675 -0.471858 0
vn 0.5547 -0.83205 -0
vn 0.5547 -0.83205 -0
vn 0.132733 -0.991152 0
vn 0.132733 -0.991152 0
vn 0.5547 -0.83205 -0
vn 0.132733 -0.991152 0
vn -0.316228 -0.948683 0
vn -0.316228 -0.948683 0
vn -0.707107 -0.707107 0
vn -0.707107 -0.707107 0
vn -0.316228 -0.948683 0
vn -0.707107 -0.707107 0
vn -0.948683 -0.316228 0
vn -0.948683 -0.316228 0
vn -0.987087 -0.160182 0
vn -0.987087 -0.160182 0
vn -0.948683 -0.316228 0
vn -0.987087 -0.160182 0
vn -1 -0 -0
vn -1 -0 -0
vn -0.707107 -0.707107 0
vn -0.707107 -0.707107 0
vn -1 -0 -0
vn -0.707107 -0.707107 0
vn -0 -1 0
vn -0 -1 0
vn -0.471858 -0.881675 0
vn -0.471858 -0.881675 0
vn -0 -1 0
vn -0.471858 -0.881675 0
vn -0.83205 -0.5547 0
vn -0.83205 -0.5547 0
vn -0.985328 -0.170672 0
vn -0.985328 -0.170672 0
vn -0.83205 -0.5547 0
vn -0.985328 -0.170672 0
vn -0.970143 0.242536 -0
vn -0.970143 0.242536 -0
vn -0.893663 0.448739 0
vn -0.893663 0.448739 0
vn -0.970143 0.242536 -0
vn -0.893663 0.448739 0
vn -0.773957 0.633238 -0
vn -0.773957 0.633238 -0
vn -0.741453 0.671005 0
vn -0.741453 0.671005 0
vn -0.773957 0.633238 -0
vn -0.741453 0.671005 0
vn -0.707107 0.707107 -0
vn -0.707107 0.707107 -0
vn -0.382683 0.92388 0
vn -0.382683 0.92388 0
vn -0.707107 0.707107 -0
vn -0.382683 0.92388 0
vn -0 1 -0
vn -0 1 -0
vn 0.122183 0.992508 0
vn 0.122183 0.992508 0
vn -0 1 -0
vn 0.122183 0.992508 0
vn -0.4741 0.880471 -0
vn -0.4741 0.880471 -0
vn -0.244468 0.969657 0
vn -0.244468 0.969657 0
vn -0.4741 0.880471 -0
vn -0.244468 0.969657 0
vn -0 1 -0
vn -0 1 -0
vn 0.382683 0.92388 0
vn 0.382683 0.92388 0
vn -0 1 -0
vn 0.382683 0.92388 0
vn 0.707107 0.707107 -0
vn 0.707107 0.707107 -0
vn 0.850651 0.525731 0
vn 0.850651 0.525731 0
vn 0.707107 0.707107 -0
vn 0.850651 0.525731 0
vn 0.948683 0.316228 -0
vn 0.948683 0.316228 -0
vn 0.973249 -0.229753 0
vn 0.973249 -0.229753 0
vn 0.948683 0.316228 -0
vn 0.973249 -0.229753 0
vn 0.707107 -0.707107 -0
vn 0.707107 -0.707107 -0
vn 0.590659 -0.806921 0
vn 0.590659 -0.806921 0
vn 0.707107 -0.707107 -0
vn 0.590659 -0.806921 0
vn 0.460317 -0.887755 -0
vn 0.460317 -0.887755 -0
vn 0.236902 -0.971533 0
vn 0.236902 -0.971533 0
vn 0.460317 -0.887755 -0
vn 0.236902 -0.971533 0
vn -0 -1 0
vn -0 -1 0
vn -0.382683 -0.92388 0
vn -0.382683 -0.92388 0
vn -0 -1 0
vn -0.382683 -0.92388 0
vn -0.707107 -0.707107 0
vn -0.707107 -0.707107 0
vn -0.850651 -0.525731 0
vn -0.850651 -0.525731 0
vn -0.707107 -0.707107 0
vn -0.850651 -0.525731 0
vn -0.948683 -0.316228 0
vn -0.948683 -0.316228 0
vn -0.973249 0.229753 0
vn -0.973249 0.229753 0
vn -0.948683 -0.316228 0
vn -0.973249 0.229753 0
vn -0.707107 0.707107 -0
vn -0.707107 0.707107 -0
vn -0.596931 0.802293 0
vn -0.596931 0.802293 0
vn -0.707107 0.707107 -0
vn -0.596931 0.802293 0
vn 0.780869 -0.624695 -0
vn 0.780869 -0.624695 -0
vn 0.99847 0.0553004 0
vn 0.99847 0.0553004 0
vn 0.780869 -0.624695 -0
vn 0.99847 0.0553004 0
vn 0.707107 0.707107 -0
vn 0.707107 0.707107 -0
vn 0.987087 0.160182 0
vn 0.987087 0.160182 0
vn 0.707107 0.707107 -0
vn 0.987087 0.160182 0
vn 0.894427 -0.447214 -0
vn 0.894427 -0.447214 -0
vn 0.631802 -0.77513 0
vn 0.631802 -0.77513 0
vn 0.894427 -0.447214 -0
vn 0.631802 -0.77513 0
vn 0.257663 -0.966235 -0
vn 0.257663 -0.966235 -0
vn 0.0848693 -0.996392 0
vn 0.0848693 -0.996392 0
vn 0.257663 -0.966235 -0
vn 0.0848693 -0.996392 0
vn -0.0905357 -0.995893 0
vn -0.0905357 -0.995893 0
vn -0.424155 -0.905589 0
vn -0.424155 -0.905589 0
vn -0.0905357 -0.995893 0
vn -0.424155 -0.905589 0
vn -0.707107 -0.707107 0
vn -0.707107 -0.707107 0
vn -0.995133 0.0985376 0
vn -0.995133 0.0985376 0
vn -0.707107 -0.707107 0
vn -0.995133 0.0985376 0
vn -0.5547 0.83205 -0
vn -0.5547 0.83205 -0
vn -0.170672 0.985328 0
vn -0.170672 0.985328 0
vn -0.5547 0.83205 -0
vn -0.170672 0.985328 0
vn 0.242536 0.970143 -0
vn 0.242536 0.970143 -0
vn 0.203629 0.979048 0
vn 0.203629 0.979048 0
vn 0.242536 0.970143 -0
vn 0.203629 0.979048 0
vn 0.164399 0.986394 -0
vn 0.164399 0.986394 -0
vn -0.078221 0.996936 0
vn -0.078221 0.996936 0
vn 0.164399 0.986394 -0
vn -0.078221 0.996936 0
vn -0.316228 0.948683 -0
vn -0.316228 0.948683 -0
vn -0.655202 0.755454 0
vn -0.655202 0.755454 0
vn -0.316228 0.948683 -0
vn -0.655202 0.755454 0
vn -0.894427 0.447214 -0
vn -0.894427 0.447214 -0
vn -1 -0 0
vn -1 -0 0
vn -0.894427 0.447214 -0
vn -1 -0 0
vn -0.894427 -0.447214 0
vn -0.894427 -0.447214 0
vn -0.707107 -0.707107 0
vn -0.707107 -0.707107 0
vn -0.894427 -0.447214 0
vn -0.707107 -0.707107 0
vn -0.447214 -0.894427 0
vn -0.447214 -0.894427 0
vn -0.229753 -0.973249 0
vn -0.229753 -0.973249 0
vn -0.447214 -0.894427 0
vn -0.229753 -0.973249 0
vn -0 -1 0
vn -0 -1 0
vn -0.382683 -0.92388 0
vn -0.382683 -0.92388 0
vn -0 -1 0
vn -0.382683 -0.92388 0
vn -0.707107 -0.707107 0
vn -0.707107 -0.707107 0
vn -0.92388 -0.382683 0
vn -0.92388 -0.382683 0
vn -0.707107 -0.707107 0
vn -0.92388 -0.382683 0
vn -1 -0 -0
vn -1 -0 -0
vn -0.987087 0.160182 0
vn -0.987087 0.160182 0
vn -1 -0 -0
vn -0.987087 0.160182 0
vn -0.948683 0.316228 -0
vn -0.948683 0.316228 -0
vn -0.707107 0.707107 0
vn -0.707107 0.707107 0
vn -0.948683 0.316228 -0
vn -0.707107 0.707107 0
vn -0.316228 0.948683 -0
vn -0.316228 0.948683 -0
vn -0.749678 0.661803 0
vn -0.749678 0.661803 0
vn -0.316228 0.948683 -0
vn -0.749678 0.661803 0
vn -0.980581 0.196116 -0
vn -0.980581 0.196116 -0
vn -0.957092 -0.289784 0
vn -0.957092 -0.289784 0
vn -0.980581 0.196116 -0
vn -0.957092 -0.289784 0
vn -0.707107 -0.707107 0
vn -0.707107 -0.707107 0
vn -0.229753 -0.973249 0
vn -0.229753 -0.973249 0
vn -0.707107 -0.707107 0
vn -0.229753 -0.973249 0
vn 0.316228 -0.948683 -0
vn 0.316228 -0.948683 -0
vn -0.070889 -0.997484 0
vn -0.070889 -0.997484 0
vn 0.316228 -0.948683 -0
vn -0.070889 -0.997484 0
vn -0.447214 -0.894427 0
vn -0.447214 -0.894427 0
vn -0.661803 -0.749678 0
vn -0.661803 -0.749678 0
vn -0.447214 -0.894427 0
vn -0.661803 -0.749678 0
vn -0.83205 -0.5547 0
vn -0.83205 -0.5547 0
vn -0.998576 0.0533426 0
vn -0.998576 0.0533426 0
vn -0.83205 -0.5547 0
vn -0.998576 0.0533426 0
vn -0.768221 0.640184 -0
vn -0.768221 0.640184 -0
vn -0.497404 0.867519 0
vn -0.497404 0.867519 0
vn -0.768221 0.640184 -0
vn -0.497404 0.867519 0
vn -0.164399 0.986394 -0
vn -0.164399 0.986394 -0
vn 0.0505303 0.998723 0
vn 0.0505303 0.998723 0
vn -0.164399 0.986394 -0
vn 0.0505303 0.998723 0
vn 0.263117 0.964764 -0
vn 0.263117 0.964764 -0
vn 0.651388 0.758745 0
vn 0.651388 0.758745 0
vn 0.263117 0.964764 -0
vn 0.651388 0.758745 0
vn 0.913812 0.406139 -0
vn 0.913812 0.406139 -0
vn 0.991786 -0.127907 0
vn 0.991786 -0.127907 0
vn 0.913812 0.406139 -0
vn 0.991786 -0.127907 0
vn 0 0 1
vn 0 0 1
vn 0 0 1
vn 0 0 1
vn 0 0 1
vn 0 0 1
vn 0 0 1
vn 0 0 1
vn 0 0 1
vn 0 0 1
vn 0 0 1
vn 0 0 1
vn 0 0 1
vn 0 0 1
vn 0 0 1
vn 0 0 1
vn 0 0 1
vn 0 0 1
vn 0 0 1
vn 0 0 1
vn 0 0 1
vn 0 0 1
vn 0 0 1
vn 0 0 1
vn 0 0 1
vn 0 0 1
vn 0 0 1
vn 0 0 1
vn 0 0 1
vn 0 0 1
vn 0 0 1
vn 0 0 1
vn 0 0 1
vn 0 0 1
vn 0 0 1
vn 0 0 1
vn 0 0 1
vn 0 0 1
vn 0 0 1
vn 0 0 1
vn 0 0 1
vn 0 0 1
vn 0 0 1
vn 0 0 1
vn 0 0 1
vn 0 0 1
vn 0 0 1
vn 0 0 1
vn 0 0 1
vn 0 0 1
vn 0 0 1
vn 0 0 1
vn 0 0 1
vn 0 0 1
vn 0 0 1
vn 0 0 1
vn 0 0 1
vn 0 0 1
vn 0 0 1
vn 0 0 1
vn 0 0 1
vn 0 0 1
vn 0 0 1
vn 0 0 1
vn 0 0 1
vn 0 0 1
vn 0 0 1
vn 0 0 1
vn 0 0 1
vn 0 0 1
vn 0 0 1
vn 0 0 1
vn 0 0 1
vn 0 0 1
vn 0 0 1
vn 0 0 1
vn 0 0 1
vn 0 0 1
vn 0 0 1
vn 0 0 1
vn 0 0 1
vn 0 0 1
vn 0 0 1
vn 0 0 1
vn 0 0 1
vn 0 0 1
vn 0 0 1
vn 0 0 1
vn 0 0 1
vn 0 0 1
vn 0 0 1
vn 0 0 1
vn 0 0 1
vn 0 0 1
vn 0 0 1
vn 0 0 1
vn 0 0 1
vn 0 0 1
vn 0 0 1
vn 0 0 1
vn 0 0 1
vn 0 0 1
vn 0 0 1
vn 0 0 1
vn 0 0 1
vn 0 0 1
vn 0 0 1
vn 0 0 1
vn 0 0 1
vn 0 0 1
vn 0 0 1
vn 0 0 1
vn 0 0 1
vn 0 0 1
vn 0 0 1
vn 0 0 1
vn 0 0 1
vn 0 0 1
vn 0 0 1
vn 0 0 1
vn 0 0 1
vn 0 0 1
vn 0 0 1
vn 0 0 1
vn 0 0 1
vn 0 0 1
vn 0 0 1
vn 0 0 1
vn 0 0 1
vn 0 0 1
vn 0 0 1
vn 0 0 1
vn 0 0 1
vn 0 0 1
vn 0 0 1
vn 0 0 1
vn 0 0 1
vn 0 0 1
vn 0 0 1
vn 0 0 1
vn 0 0 1
vn 0 0 1
vn 0 0 1
vn 0 0 1
vn 0 0 1
vn 0 0 1
vn 0 0 1
vn 0 0 1
vn 0 0 1
vn 0 0 1
vn 0 0 1
vn 0 0 1
vn 0 0 1
vn 0 0 -1
vn 0 0 -1
vn 0 0 -1
vn 0 0 -1
vn 0 0 -1
vn 0 0 -1
vn 0 0 -1
vn 0 0 -1
vn 0 0 -1
vn 0 0 -1
vn 0 0 -1
vn 0 0 -1
vn 0 0 -1
vn 0 0 -1
vn 0 0 -1
vn 0 0 -1
vn 0 0 -1
vn 0 0 -1
vn 0 0 -1
vn 0 0 -1
vn 0 0 -1
vn 0 0 -1
vn 0 0 -1
vn 0 0 -1
vn 0 0 -1
vn 0 0 -1
vn 0 0 -1
vn 0 0 -1
vn 0 0 -1
vn 0 0 -1
vn 0 0 -1
vn 0 0 -1
vn 0 0 -1
vn 0 0 -1
vn 0 0 -1
vn 0 0 -1
vn 0 0 -1
vn 0 0 -1
vn 0 0 -1
vn 0 0 -1
vn 0 0 -1
vn 0 0 -1
vn 0 0 -1
vn 0 0 -1
vn 0 0 -1
vn 0 0 -1
vn 0 0 -1
vn 0 0 -1
vn 0 0 -1
vn 0 0 -1
vn 0 0 -1
vn 0 0 -1
vn 0 0 -1
vn 0 0 -1
vn 0 0 -1
vn 0 0 -1
vn 0 0 -1
vn 0 0 -1
vn 0 0 -1
vn 0 0 -1
vn 0 0 -1
vn 0 0 -1
vn 0 0 -1
vn 0 0 -1
vn 0 0 -1
vn 0 0 -1
vn 0 0 -1
vn 0 0 -1
vn 0 0 -1
vn 0 0 -1
vn 0 0 -1
vn 0 0 -1
vn 0 0 -1
vn 0 0 -1
vn 0 0 -1
vn 0 0 -1
vn 0 0 -1
vn 0 0 -1
vn 0 0 -1
vn 0 0 -1
vn 0 0 -1
vn 0 0 -1
vn 0 0 -1
vn 0 0 -1
vn 0 0 -1
vn 0 0 -1
vn 0 0 -1
vn 0 0 -1
vn 0 0 -1
vn 0 0 -1
vn 0 0 -1
vn 0 0 -1
vn 0 0 -1
vn 0 0 -1
vn 0 0 -1
vn 0 0 -1
vn 0 0 -1
vn 0 0 -1
vn 0 0 -1
vn 0 0 -1
vn 0 0 -1
vn 0 0 -1
vn 0 0 -1
vn 0 0 -1
vn 0 0 -1
vn 0 0 -1
vn 0 0 -1
vn 0 0 -1
vn 0 0 -1
vn 0 0 -1
vn 0 0 -1
vn 0 0 -1
vn 0 0 -1
vn 0 0 -1
vn 0 0 -1
vn 0 0 -1
vn 0 0 -1
vn 0 0 -1
vn 0 0 -1
vn 0 0 -1
vn 0 0 -1
vn 0 0 -1
vn 0 0 -1
vn 0 0 -1
vn 0 0 -1
vn 0 0 -1
vn 0 0 -1
vn 0 0 -1
vn 0 0 -1
vn 0 0 -1
vn 0 0 -1
vn 0 0 -1
vn 0 0 -1
vn 0 0 -1
vn 0 0 -1
vn 0 0 -1
vn 0 0 -1
vn 0 0 -1
vn 0 0 -1
vn 0 0 -1
vn 0 0 -1
vn 0 0 -1
vn 0 0 -1
vn 0 0 -1
vn 0 0 -1
vn 0 0 -1
vn 0 0 -1
vn 0 0 -1
vn 0 0 -1
vn 0 0 -1
vn 0 0 -1
vn 0 0 -1
vn 0 0 -1
f 1//1 2//2 3//3
f 4//4 5//5 6//6
f 7//7 8//8 9//9
f 10//10 11//11 12//12
f 13//13 14//14 15//15
f 16//16 17//17 18//18
f 19//19 20//20 21//21
f 22//22 23//23 24//24
f 25//25 26//26 27//27
f 28//28 29//29 30//30
f 31//31 32//32 33//33
f 34//34 35//35 36//36
f 37//37 38//38 39//39
f 40//40 41//41 42//42
f 43//43 44//44 45//45
f 46//46 47//47 48//48
f 49//49 50//50 51//51
f 52//52 53//53 54//54
f 55//55 56//56 57//57
f 58//58 59//59 60//60
f 61//61 62//62 63//63
f 64//64 65//65 66//66
f 67//67 68//68 69//69
f 70//70 71//71 72//72
f 73//73 74//74 75//75
f 76//76 77//77 78//78
f 79//79 80//80 81//81
f 82//82 83//83 84//84
f 85//85 86//86 87//87
f 88//88 89//89 90//90
f 91//91 92//92 93//93
f 94//94 95//95 96//96
f 97//97 98//98 99//99
f 100//100 101//101 102//102
f 103//103 104//104 105//105
f 106//106 107//107 108//108
f 109//109 110//110 111//111
f 112//112 113//113 114//114
f 115//115 116//116 117//117
f 118//118 119//119 120//120
f 121//121 122//122 123//123
f 124//124 125//125 126//126
f 127//127 128//128 129//129
f 130//130 131//131 132//132
f 133//133 134//134 135//135
f 136//136 137//137 138//138
f 139//139 140//140 141//141
f 142//142 143//143 144//144
f 145//145 146//146 147//147
f 148//148 149//149 150//150
f 151//151 152//152 153//153
f 154//154 155//155 156//156
f 157//157 158//158 159//159
f 160//160 161//161 162//162
f 163//163 164//164 165//165
f 166//166 167//167 168//168
f 169//169 170//170 171//171
f 172//172 173//173 174//174
f 175//175 176//176 177//177
f 178//178 179//179 180//180
f 181//181 182//182 183//183
f 184//184 185//185 186//186
f 187//187 188//188 189//189
f 190//190 191//191 192//192
f 193//193 194//194 195//195
f 196//196 197//197 198//198
f 199//199 200//200 201//201
f 202//202 203//203 204//204
f 205//205 206//206 207//207
f 208//208 209//209 210//210
f 211//211 212//212 213//213
f 214//214 215//215 216//216
f 217//217 218//218 219//219
f 220//220 221//221 222//222
f 223//223 224//224 225//225
f 226//226 227//227 228//228
f 229//229 230//230 231//231
f 232//232 233//233 234//234
f 235//235 236//236 237//237
f 238//238 239//239 240//240
f 241//241 242//242 243//243
f 244//244 245//245 246//246
f 247//247 248//248 249//249
f 250//250 251//251 252//252
f 253//253 254//254 255//255
f 256//256 257//257 258//258
f 259//259 260//260 261//261
f 262//262 263//263 264//264
f 265//265 266//266 267//267
f 268//268 269//269 270//270
f 271//271 272//272 273//273
f 274//274 275//275 276//276
f 277//277 278//278 279//279
f 280//280 281//281 282//282
f 283//283 284//284 285//285
f 286//286 287//287 288//288
f 289//289 290//290 291//291
f 292//292 293//293 294//294
f 295//295 296//296 297//297
f 298//298 299//299 300//300
f 301//301 302//302 303//303
f 304//304 305//305 306//306
f 307//307 308//308 309//309
f 310//310 311//311 312//312
f 313//313 314//314 315//315
f 316//316 317//317 318//318
f 319//319 320//320 321//321
f 322//322 323//323 324//324
f 325//325 326//326 327//327
f 328//328 329//329 330//330
f 331//331 332//332 333//333
f 334//334 335//335 336//336
f 337//337 338//338 339//339
f 340//340 341//341 342//342
f 343//343 344//344 345//345
f 346//346 347//347 348//348
f 349//349 350//350 351//351
f 352//352 353//353 354//354
f 355//355 356//356 357//357
f 358//358 359//359 360//360
f 361//361 362//362 363//363
f 364//364 365//365 366//366
f 367//367 368//368 369//369
f 370//370 371//371 372//372
f 373//373 374//374 375//375
f 376//376 377//377 378//378
f 379//379 380//380 381//381
f 382//382 383//383 384//384
f 385//385 386//386 387//387
f 388//388 389//389 390//390
f 391//391 392//392 393//393
f 394//394 395//395 396//396
f 397//397 398//398 399//399
f 400//400 401//401 402//402
f 403//403 404//404 405//405
f 406//406 407//407 408//408
f 409//409 410//410 411//411
f 412//412 413//413 414//414
f 415//415 416//416 417//417
f 418//418 419//419 420//420
f 421//421 422//422 423//423
f 424//424 425//425 426//426
f 427//427 428//428 429//429
f 430//430 431//431 432//432
f 433//433 434//434 435//435
f 436//436 437//437 438//438
f 439//439 440//440 441//441
f 442//442 443//443 444//444
f 445//445 446//446 447//447
f 448//448 449//449 450//450
f 451//451 452//452 453//453
f 454//454 455//455 456//456
f 457//457 458//458 459//459
f 460//460 461//461 462//462
f 463//463 464//464 465//465
f 466//466 467//467 468//468
f 469//469 470//470 471//471
f 472//472 473//473 474//474
f 475//475 476//476 477//477
f 478//478 479//479 480//480
f 481//481 482//482 483//483
f 484//484 485//485 486//486
f 487//487 488//488 489//489
f 490//490 491//491 492//492
f 493//493 494//494 495//495
f 496//496 497//497 498//498
f 499//499 500//500 501//501
f 502//502 503//503 504//504
f 505//505 506//506 507//507
f 508//508 509//509 510//510
f 511//511 512//512 513//513
f 514//514 515//515 516//516
f 517//517 518//518 519//519
f 520//520 521//521 522//522
f 523//523 524//524 525//525
f 526//526 527//527 528//528
f 529//529 530//530 531//531
f 532//532 533//533 534//534
f 535//535 536//536 537//537
f 538//538 539//539 540//540
f 541//541 542//542 543//543
f 544//544 545//545 546//546
f 547//547 548//548 549//549
f 550//550 551//551 552//552
f 553//553 554//554 555//555
f 556//556 557//557 558//558
f 559//559 560//560 561//561
f 562//562 563//563 564//564
f 565//565 566//566 567//567
f 568//568 569//569 570//570
f 571//571 572//572 573//573
f 574//574 575//575 576//576
f 577//577 578//578 579//579
f 580//580 581//581 582//582
f 583//583 584//584 585//585
f 586//586 587//587 588//588
f 589//589 590//590 591//591
f 592//592 593//593 594//594
f 595//595 596//596 597//597
f 598//598 599//599 600//600
f 601//601 602//602 603//603
f 604//604 605//605 606//606
f 607//607 608//608 609//609
f 610//610 611//611 612//612
f 613//613 614//614 615//615
f 616//616 617//617 618//618
f 619//619 620//620 621//621
f 622//622 623//623 624//624
f 625//625 626//626 627//627
f 628//628 629//629 630//630
f 631//631 632//632 633//633
f 634//634 635//635 636//636
f 637//637 638//638 639//639
f 640//640 641//641 642//642
f 643//643 644//644 645//645
f 646//646 647//647 648//648
f 649//649 650//650 651//651
f 652//652 653//653 654//654
f 655//655 656//656 657//657
f 658//658 659//659 660//660
