v 19.2626 38.0772 0
v 19.2626 38.0772 1
v 27.07 36.2854 0
v 27.07 36.2854 0
v 19.2626 38.0772 1
v 27.07 36.2854 1
v 27.07 36.2854 0
v 27.07 36.2854 1
v 28.8619 39.2292 0
v 28.8619 39.2292 0
v 27.07 36.2854 1
v 28.8619 39.2292 1
v 28.8619 39.2292 0
v 28.8619 39.2292 1
v 30.8458 40.6371 0
v 30.8458 40.6371 0
v 28.8619 39.2292 1
v 30.8458 40.6371 1
v 30.8458 40.6371 0
v 30.8458 40.6371 1
v 32.6056 39.9011 0
v 32.6056 39.9011 0
v 30.8458 40.6371 1
v 32.6056 39.9011 1
v 32.6056 39.9011 0
v 32.6056 39.9011 1
v 33.4696 38.3332 0
v 33.4696 38.3332 0
v 32.6056 39.9011 1
v 33.4696 38.3332 1
v 33.4696 38.3332 0
v 33.4696 38.3332 1
v 33.2136 37.3093 0
v 33.2136 37.3093 0
v 33.4696 38.3332 1
v 33.2136 37.3093 1
v 33.2136 37.3093 0
v 33.2136 37.3093 1
v 30.9098 33.5976 0
v 30.9098 33.5976 0
v 33.2136 37.3093 1
v 30.9098 33.5976 1
v 30.9098 33.5976 0
v 30.9098 33.5976 1
v 36.8613 18.5587 0
v 36.8613 18.5587 0
v 30.9098 33.5976 1
v 36.8613 18.5587 1
v 36.8613 18.5587 0
v 36.8613 18.5587 1
v 31.9017 4.51167 0
v 31.9017 4.51167 0
v 36.8613 18.5587 1
v 31.9017 4.51167 1
v 31.9017 4.51167 0
v 31.9017 4.51167 1
v 19.2626 -0.95993 0
v 19.2626 -0.95993 0
v 31.9017 4.51167 1
v 19.2626 -0.95993 1
v 19.2626 -0.95993 0
v 19.2626 -0.95993 1
v 11.3272 0.895935 0
v 11.3272 0.895935 0
v 19.2626 -0.95993 1
v 11.3272 0.895935 1
v 11.3272 0.895935 0
v 11.3272 0.895935 1
v 8.95935 -2.8158 0
v 8.95935 -2.8158 0
v 11.3272 0.895935 1
v 8.95935 -2.8158 1
v 8.95935 -2.8158 0
v 8.95935 -2.8158 1
v 6.97549 -4.28769 0
v 6.97549 -4.28769 0
v 8.95935 -2.8158 1
v 6.97549 -4.28769 1
v 6.97549 -4.28769 0
v 6.97549 -4.28769 1
v 5.18362 -3.55174 0
v 5.18362 -3.55174 0
v 6.97549 -4.28769 1
v 5.18362 -3.55174 1
v 5.18362 -3.55174 0
v 5.18362 -3.55174 1
v 4.28769 -1.98386 0
v 4.28769 -1.98386 0
v 5.18362 -3.55174 1
v 4.28769 -1.98386 1
v 4.28769 -1.98386 0
v 4.28769 -1.98386 1
v 4.60767 -0.95993 0
v 4.60767 -0.95993 0
v 4.28769 -1.98386 1
v 4.60767 -0.95993 1
v 4.60767 -0.95993 0
v 4.60767 -0.95993 1
v 7.48746 3.64774 0
v 7.48746 3.64774 0
v 4.60767 -0.95993 1
v 7.48746 3.64774 1
v 7.48746 3.64774 0
v 7.48746 3.64774 1
v 1.59988 18.5587 0
v 1.59988 18.5587 0
v 7.48746 3.64774 1
v 1.59988 18.5587 1
v 1.59988 18.5587 0
v 1.59988 18.5587 1
v 6.55952 32.6056 0
v 6.55952 32.6056 0
v 1.59988 18.5587 1
v 6.55952 32.6056 1
v 6.55952 32.6056 0
v 6.55952 32.6056 1
v 19.2626 38.0772 0
v 19.2626 38.0772 0
v 6.55952 32.6056 1
v 19.2626 38.0772 1
v 25.5341 9.43932 0
v 25.5341 9.43932 1
v 27.902 18.5587 0
v 27.902 18.5587 0
v 25.5341 9.43932 1
v 27.902 18.5587 1
v 27.902 18.5587 0
v 27.902 18.5587 1
v 26.4301 26.1741 0
v 26.4301 26.1741 0
v 27.902 18.5587 1
v 26.4301 26.1741 1
v 26.4301 26.1741 0
v 26.4301 26.1741 1
v 15.1669 7.42346 0
v 15.1669 7.42346 0
v 26.4301 26.1741 1
v 15.1669 7.42346 1
v 15.1669 7.42346 0
v 15.1669 7.42346 1
v 19.1346 6.20755 0
v 19.1346 6.20755 0
v 15.1669 7.42346 1
v 19.1346 6.20755 1
v 19.1346 6.20755 0
v 19.1346 6.20755 1
v 25.5341 9.43932 0
v 25.5341 9.43932 0
v 19.1346 6.20755 1
v 25.5341 9.43932 1
v 10.6232 18.5587 0
v 10.6232 18.5587 1
v 11.9031 11.1992 0
v 11.9031 11.1992 0
v 10.6232 18.5587 1
v 11.9031 11.1992 1
v 11.9031 11.1992 0
v 11.9031 11.1992 1
v 23.1023 29.8218 0
v 23.1023 29.8218 0
v 11.9031 11.1992 1
v 23.1023 29.8218 1
v 23.1023 29.8218 0
v 23.1023 29.8218 1
v 19.0706 30.8458 0
v 19.0706 30.8458 0
v 23.1023 29.8218 1
v 19.0706 30.8458 1
v 19.0706 30.8458 0
v 19.0706 30.8458 1
v 12.9271 27.614 0
v 12.9271 27.614 0
v 19.0706 30.8458 1
v 12.9271 27.614 1
v 12.9271 27.614 0
v 12.9271 27.614 1
v 10.6232 18.5587 0
v 10.6232 18.5587 0
v 12.9271 27.614 1
v 10.6232 18.5587 1
v 11.9031 11.1992 1
v 15.1669 7.42346 1
v 26.4301 26.1741 1
v 11.3272 0.895935 1
v 4.60767 -0.95993 1
v 8.95935 -2.8158 1
v 12.9271 27.614 1
v 1.59988 18.5587 1
v 10.6232 18.5587 1
v 33.4696 38.3332 1
v 28.8619 39.2292 1
v 27.07 36.2854 1
v 7.48746 3.64774 1
v 15.1669 7.42346 1
v 11.9031 11.1992 1
v 12.9271 27.614 1
v 6.55952 32.6056 1
v 1.59988 18.5587 1
v 10.6232 18.5587 1
v 1.59988 18.5587 1
v 11.9031 11.1992 1
v 15.1669 7.42346 1
v 7.48746 3.64774 1
v 19.1346 6.20755 1
v 31.9017 4.51167 1
v 25.5341 9.43932 1
v 19.1346 6.20755 1
v 28.8619 39.2292 1
v 33.4696 38.3332 1
v 32.6056 39.9011 1
v 6.55952 32.6056 1
v 30.9098 33.5976 1
v 27.07 36.2854 1
v 30.9098 33.5976 1
v 19.0706 30.8458 1
v 23.1023 29.8218 1
v 6.55952 32.6056 1
v 27.07 36.2854 1
v 19.2626 38.0772 1
v 31.9017 4.51167 1
v 27.902 18.5587 1
v 25.5341 9.43932 1
v 36.8613 18.5587 1
v 23.1023 29.8218 1
v 26.4301 26.1741 1
v 36.8613 18.5587 1
v 27.902 18.5587 1
v 31.9017 4.51167 1
v 11.9031 11.1992 1
v 1.59988 18.5587 1
v 7.48746 3.64774 1
v 7.48746 3.64774 1
v 31.9017 4.51167 1
v 19.1346 6.20755 1
v 8.95935 -2.8158 1
v 4.60767 -0.95993 1
v 4.28769 -1.98386 1
v 19.0706 30.8458 1
v 6.55952 32.6056 1
v 12.9271 27.614 1
v 6.55952 32.6056 1
v 19.0706 30.8458 1
v 30.9098 33.5976 1
v 5.18362 -3.55174 1
v 6.97549 -4.28769 1
v 8.95935 -2.8158 1
v 30.9098 33.5976 1
v 23.1023 29.8218 1
v 36.8613 18.5587 1
v 26.4301 26.1741 1
v 23.1023 29.8218 1
v 11.9031 11.1992 1
v 26.4301 26.1741 1
v 27.902 18.5587 1
v 36.8613 18.5587 1
v 7.48746 3.64774 1
v 11.3272 0.895935 1
v 19.2626 -0.95993 1
v 8.95935 -2.8158 1
v 4.28769 -1.98386 1
v 5.18362 -3.55174 1
v 30.8458 40.6371 1
v 28.8619 39.2292 1
v 32.6056 39.9011 1
v 33.4696 38.3332 1
v 27.07 36.2854 1
v 33.2136 37.3093 1
v 11.3272 0.895935 1
v 7.48746 3.64774 1
v 4.60767 -0.95993 1
v 31.9017 4.51167 1
v 7.48746 3.64774 1
v 19.2626 -0.95993 1
v 33.2136 37.3093 1
v 27.07 36.2854 1
v 30.9098 33.5976 1
v 11.9031 11.1992 0
v 26.4301 26.1741 0
v 15.1669 7.42346 0
v 11.3272 0.895935 0
v 8.95935 -2.8158 0
v 4.60767 -0.95993 0
v 12.9271 27.614 0
v 10.6232 18.5587 0
v 1.59988 18.5587 0
v 33.4696 38.3332 0
v 27.07 36.2854 0
v 28.8619 39.2292 0
v 7.48746 3.64774 0
v 11.9031 11.1992 0
v 15.1669 7.42346 0
v 12.9271 27.614 0
v 1.59988 18.5587 0
v 6.55952 32.6056 0
v 10.6232 18.5587 0
v 11.9031 11.1992 0
v 1.59988 18.5587 0
v 15.1669 7.42346 0
v 19.1346 6.20755 0
v 7.48746 3.64774 0
v 31.9017 4.51167 0
v 19.1346 6.20755 0
v 25.5341 9.43932 0
v 28.8619 39.2292 0
v 32.6056 39.9011 0
v 33.4696 38.3332 0
v 6.55952 32.6056 0
v 27.07 36.2854 0
v 30.9098 33.5976 0
v 30.9098 33.5976 0
v 23.1023 29.8218 0
v 19.0706 30.8458 0
v 6.55952 32.6056 0
v 19.2626 38.0772 0
v 27.07 36.2854 0
v 31.9017 4.51167 0
v 25.5341 9.43932 0
v 27.902 18.5587 0
v 36.8613 18.5587 0
v 26.4301 26.1741 0
v 23.1023 29.8218 0
v 36.8613 18.5587 0
v 31.9017 4.51167 0
v 27.902 18.5587 0
v 11.9031 11.1992 0
v 7.48746 3.64774 0
v 1.59988 18.5587 0
v 7.48746 3.64774 0
v 19.1346 6.20755 0
v 31.9017 4.51167 0
v 8.95935 -2.8158 0
v 4.28769 -1.98386 0
v 4.60767 -0.95993 0
v 19.0706 30.8458 0
v 12.9271 27.614 0
v 6.55952 32.6056 0
v 6.55952 32.6056 0
v 30.9098 33.5976 0
v 19.0706 30.8458 0
v 5.18362 -3.55174 0
v 8.95935 -2.8158 0
v 6.97549 -4.28769 0
v 30.9098 33.5976 0
v 36.8613 18.5587 0
v 23.1023 29.8218 0
v 26.4301 26.1741 0
v 11.9031 11.1992 0
v 23.1023 29.8218 0
v 26.4301 26.1741 0
v 36.8613 18.5587 0
v 27.902 18.5587 0
v 7.48746 3.64774 0
v 19.2626 -0.95993 0
v 11.3272 0.895935 0
v 8.95935 -2.8158 0
v 5.18362 -3.55174 0
v 4.28769 -1.98386 0
v 30.8458 40.6371 0
v 32.6056 39.9011 0
v 28.8619 39.2292 0
v 33.4696 38.3332 0
v 33.2136 37.3093 0
v 27.07 36.2854 0
v 11.3272 0.895935 0
v 4.60767 -0.95993 0
v 7.48746 3.64774 0
v 31.9017 4.51167 0
v 19.2626 -0.95993 0
v 7.48746 3.64774 0
v 33.2136 37.3093 0
v 30.9098 33.5976 0
v 27.07 36.2854 0
vn 0.223692 0.97466 -0
vn 0.223692 0.97466 -0
vn -0.388684 0.921371 0
vn -0.388684 0.921371 0
vn 0.223692 0.97466 -0
vn -0.388684 0.921371 0
vn -0.854199 0.519947 -0
vn -0.854199 0.519947 -0
vn -0.731555 0.681783 0
vn -0.731555 0.681783 0
vn -0.854199 0.519947 -0
vn -0.731555 0.681783 0
vn -0.578747 0.815507 -0
vn -0.578747 0.815507 -0
vn -0.11033 0.993895 0
vn -0.11033 0.993895 0
vn -0.578747 0.815507 -0
vn -0.11033 0.993895 0
vn 0.385806 0.92258 -0
vn 0.385806 0.92258 -0
vn 0.66808 0.744089 0
vn 0.66808 0.744089 0
vn 0.385806 0.92258 -0
vn 0.66808 0.744089 0
vn 0.875838 0.482605 -0
vn 0.875838 0.482605 -0
vn 0.991649 0.128964 0
vn 0.991649 0.128964 0
vn 0.875838 0.482605 -0
vn 0.991649 0.128964 0
vn 0.970143 -0.242536 -0
vn 0.970143 -0.242536 -0
vn 0.920969 -0.389636 0
vn 0.920969 -0.389636 0
vn 0.970143 -0.242536 -0
vn 0.920969 -0.389636 0
vn 0.84964 -0.527363 -0
vn 0.84964 -0.527363 -0
vn 0.996013 -0.0892119 0
vn 0.996013 -0.0892119 0
vn 0.84964 -0.527363 -0
vn 0.996013 -0.0892119 0
vn 0.929835 0.367977 -0
vn 0.929835 0.367977 -0
vn 0.999825 0.0187092 0
vn 0.999825 0.0187092 0
vn 0.929835 0.367977 -0
vn 0.999825 0.0187092 0
vn 0.942951 -0.332932 -0
vn 0.942951 -0.332932 -0
vn 0.731124 -0.682244 0
vn 0.731124 -0.682244 0
vn 0.942951 -0.332932 -0
vn 0.731124 -0.682244 0
vn 0.397281 -0.917697 -0
vn 0.397281 -0.917697 -0
vn 0.0892863 -0.996006 0
vn 0.0892863 -0.996006 0
vn 0.397281 -0.917697 -0
vn 0.0892863 -0.996006 0
vn -0.227726 -0.973725 0
vn -0.227726 -0.973725 0
vn 0.377046 -0.926194 0
vn 0.377046 -0.926194 0
vn -0.227726 -0.973725 0
vn 0.377046 -0.926194 0
vn 0.843062 -0.537816 -0
vn 0.843062 -0.537816 -0
vn 0.731579 -0.681756 0
vn 0.731579 -0.681756 0
vn 0.843062 -0.537816 -0
vn 0.731579 -0.681756 0
vn 0.595847 -0.803098 -0
vn 0.595847 -0.803098 -0
vn 0.123986 -0.992284 0
vn 0.123986 -0.992284 0
vn 0.595847 -0.803098 -0
vn 0.123986 -0.992284 0
vn -0.379919 -0.92502 0
vn -0.379919 -0.92502 0
vn -0.659895 -0.751357 0
vn -0.659895 -0.751357 0
vn -0.379919 -0.92502 0
vn -0.659895 -0.751357 0
vn -0.868243 -0.496139 0
vn -0.868243 -0.496139 0
vn -0.99416 -0.10792 0
vn -0.99416 -0.10792 0
vn -0.868243 -0.496139 0
vn -0.99416 -0.10792 0
vn -0.95448 0.298275 -0
vn -0.95448 0.298275 -0
vn -0.908656 0.417545 0
vn -0.908656 0.417545 0
vn -0.95448 0.298275 -0
vn -0.908656 0.417545 0
vn -0.847998 0.529999 -0
vn -0.847998 0.529999 -0
vn -0.995838 0.0911438 0
vn -0.995838 0.0911438 0
vn -0.847998 0.529999 -0
vn -0.995838 0.0911438 0
vn -0.930119 -0.367257 0
vn -0.930119 -0.367257 0
vn -0.999832 -0.0183223 0
vn -0.999832 -0.0183223 0
vn -0.930119 -0.367257 0
vn -0.999832 -0.0183223 0
vn -0.942951 0.332932 -0
vn -0.942951 0.332932 -0
vn -0.730497 0.682916 0
vn -0.730497 0.682916 0
vn -0.942951 0.332932 -0
vn -0.730497 0.682916 0
vn -0.395594 0.918426 -0
vn -0.395594 0.918426 -0
vn -0.0904328 0.995903 0
vn -0.0904328 0.995903 0
vn -0.395594 0.918426 -0
vn -0.0904328 0.995903 0
vn -0.967905 0.251316 -0
vn -0.967905 0.251316 -0
vn -0.999502 0.0315529 0
vn -0.999502 0.0315529 0
vn -0.967905 0.251316 -0
vn -0.999502 0.0315529 0
vn -0.98183 -0.189765 0
vn -0.98183 -0.189765 0
vn -0.174107 -0.984727 0
vn -0.174107 -0.984727 0
vn -0.98183 -0.189765 0
vn -0.174107 -0.984727 0
vn 0.857235 -0.514926 -0
vn 0.857235 -0.514926 -0
vn 0.933675 0.358121 0
vn 0.933675 0.358121 0
vn 0.857235 -0.514926 -0
vn 0.933675 0.358121 0
vn 0.293002 0.956112 -0
vn 0.293002 0.956112 -0
vn -0.0850344 0.996378 0
vn -0.0850344 0.996378 0
vn 0.293002 0.956112 -0
vn -0.0850344 0.996378 0
vn -0.450781 0.892635 -0
vn -0.450781 0.892635 -0
vn -0.778454 0.627702 0
vn -0.778454 0.627702 0
vn -0.450781 0.892635 -0
vn -0.778454 0.627702 0
vn 0.985212 0.171341 -0
vn 0.985212 0.171341 -0
vn 0.183572 0.983006 0
vn 0.183572 0.983006 0
vn 0.985212 0.171341 -0
vn 0.183572 0.983006 0
vn -0.856973 0.515362 -0
vn -0.856973 0.515362 -0
vn -0.924784 -0.380492 0
vn -0.924784 -0.380492 0
vn -0.856973 0.515362 -0
vn -0.924784 -0.380492 0
vn -0.246154 -0.969231 0
vn -0.246154 -0.969231 0
vn 0.117504 -0.993072 0
vn 0.117504 -0.993072 0
vn -0.246154 -0.969231 0
vn 0.117504 -0.993072 0
vn 0.465556 -0.885018 -0
vn 0.465556 -0.885018 -0
vn 0.785166 -0.619285 0
vn 0.785166 -0.619285 0
vn 0.465556 -0.885018 -0
vn 0.785166 -0.619285 0
vn 0.969127 -0.246562 -0
vn 0.969127 -0.246562 -0
vn 0.99926 -0.0384611 0
vn 0.99926 -0.0384611 0
vn 0.969127 -0.246562 -0
vn 0.99926 -0.0384611 0
vn 0 0 1
vn 0 0 1
vn 0 0 1
vn 0 0 1
vn 0 0 1
vn 0 0 1
vn 0 0 1
vn 0 0 1
vn 0 0 1
vn 0 0 1
vn 0 0 1
vn 0 0 1
vn 0 0 1
vn 0 0 1
vn 0 0 1
vn 0 0 1
vn 0 0 1
vn 0 0 1
vn 0 0 1
vn 0 0 1
vn 0 0 1
vn 0 0 1
vn 0 0 1
vn 0 0 1
vn 0 0 1
vn 0 0 1
vn 0 0 1
vn 0 0 1
vn 0 0 1
vn 0 0 1
vn 0 0 1
vn 0 0 1
vn 0 0 1
vn 0 0 1
vn 0 0 1
vn 0 0 1
vn 0 0 1
vn 0 0 1
vn 0 0 1
vn 0 0 1
vn 0 0 1
vn 0 0 1
vn 0 0 1
vn 0 0 1
vn 0 0 1
vn 0 0 1
vn 0 0 1
vn 0 0 1
vn 0 0 1
vn 0 0 1
vn 0 0 1
vn 0 0 1
vn 0 0 1
vn 0 0 1
vn 0 0 1
vn 0 0 1
vn 0 0 1
vn 0 0 1
vn 0 0 1
vn 0 0 1
vn 0 0 1
vn 0 0 1
vn 0 0 1
vn 0 0 1
vn 0 0 1
vn 0 0 1
vn 0 0 1
vn 0 0 1
vn 0 0 1
vn 0 0 1
vn 0 0 1
vn 0 0 1
vn 0 0 1
vn 0 0 1
vn 0 0 1
vn 0 0 1
vn 0 0 1
vn 0 0 1
vn 0 0 1
vn 0 0 1
vn 0 0 1
vn 0 0 1
vn 0 0 1
vn 0 0 1
vn 0 0 1
vn 0 0 1
vn 0 0 1
vn 0 0 1
vn 0 0 1
vn 0 0 1
vn 0 0 1
vn 0 0 1
vn 0 0 1
vn 0 0 1
vn 0 0 1
vn 0 0 1
vn 0 0 -1
vn 0 0 -1
vn 0 0 -1
vn 0 0 -1
vn 0 0 -1
vn 0 0 -1
vn 0 0 -1
vn 0 0 -1
vn 0 0 -1
vn 0 0 -1
vn 0 0 -1
vn 0 0 -1
vn 0 0 -1
vn 0 0 -1
vn 0 0 -1
vn 0 0 -1
vn 0 0 -1
vn 0 0 -1
vn 0 0 -1
vn 0 0 -1
vn 0 0 -1
vn 0 0 -1
vn 0 0 -1
vn 0 0 -1
vn 0 0 -1
vn 0 0 -1
vn 0 0 -1
vn 0 0 -1
vn 0 0 -1
vn 0 0 -1
vn 0 0 -1
vn 0 0 -1
vn 0 0 -1
vn 0 0 -1
vn 0 0 -1
vn 0 0 -1
vn 0 0 -1
vn 0 0 -1
vn 0 0 -1
vn 0 0 -1
vn 0 0 -1
vn 0 0 -1
vn 0 0 -1
vn 0 0 -1
vn 0 0 -1
vn 0 0 -1
vn 0 0 -1
vn 0 0 -1
vn 0 0 -1
vn 0 0 -1
vn 0 0 -1
vn 0 0 -1
vn 0 0 -1
vn 0 0 -1
vn 0 0 -1
vn 0 0 -1
vn 0 0 -1
vn 0 0 -1
vn 0 0 -1
vn 0 0 -1
vn 0 0 -1
vn 0 0 -1
vn 0 0 -1
vn 0 0 -1
vn 0 0 -1
vn 0 0 -1
vn 0 0 -1
vn 0 0 -1
vn 0 0 -1
vn 0 0 -1
vn 0 0 -1
vn 0 0 -1
vn 0 0 -1
vn 0 0 -1
vn 0 0 -1
vn 0 0 -1
vn 0 0 -1
vn 0 0 -1
vn 0 0 -1
vn 0 0 -1
vn 0 0 -1
vn 0 0 -1
vn 0 0 -1
vn 0 0 -1
vn 0 0 -1
vn 0 0 -1
vn 0 0 -1
vn 0 0 -1
vn 0 0 -1
vn 0 0 -1
vn 0 0 -1
vn 0 0 -1
vn 0 0 -1
vn 0 0 -1
vn 0 0 -1
vn 0 0 -1
f 1//1 2//2 3//3
f 4//4 5//5 6//6
f 7//7 8//8 9//9
f 10//10 11//11 12//12
f 13//13 14//14 15//15
f 16//16 17//17 18//18
f 19//19 20//20 21//21
f 22//22 23//23 24//24
f 25//25 26//26 27//27
f 28//28 29//29 30//30
f 31//31 32//32 33//33
f 34//34 35//35 36//36
f 37//37 38//38 39//39
f 40//40 41//41 42//42
f 43//43 44//44 45//45
f 46//46 47//47 48//48
f 49//49 50//50 51//51
f 52//52 53//53 54//54
f 55//55 56//56 57//57
f 58//58 59//59 60//60
f 61//61 62//62 63//63
f 64//64 65//65 66//66
f 67//67 68//68 69//69
f 70//70 71//71 72//72
f 73//73 74//74 75//75
f 76//76 77//77 78//78
f 79//79 80//80 81//81
f 82//82 83//83 84//84
f 85//85 86//86 87//87
f 88//88 89//89 90//90
f 91//91 92//92 93//93
f 94//94 95//95 96//96
f 97//97 98//98 99//99
f 100//100 101//101 102//102
f 103//103 104//104 105//105
f 106//106 107//107 108//108
f 109//109 110//110 111//111
f 112//112 113//113 114//114
f 115//115 116//116 117//117
f 118//118 119//119 120//120
f 121//121 122//122 123//123
f 124//124 125//125 126//126
f 127//127 128//128 129//129
f 130//130 131//131 132//132
f 133//133 134//134 135//135
f 136//136 137//137 138//138
f 139//139 140//140 141//141
f 142//142 143//143 144//144
f 145//145 146//146 147//147
f 148//148 149//149 150//150
f 151//151 152//152 153//153
f 154//154 155//155 156//156
f 157//157 158//158 159//159
f 160//160 161//161 162//162
f 163//163 164//164 165//165
f 166//166 167//167 168//168
f 169//169 170//170 171//171
f 172//172 173//173 174//174
f 175//175 176//176 177//177
f 178//178 179//179 180//180
f 181//181 182//182 183//183
f 184//184 185//185 186//186
f 187//187 188//188 189//189
f 190//190 191//191 192//192
f 193//193 194//194 195//195
f 196//196 197//197 198//198
f 199//199 200//200 201//201
f 202//202 203//203 204//204
f 205//205 206//206 207//207
f 208//208 209//209 210//210
f 211//211 212//212 213//213
f 214//214 215//215 216//216
f 217//217 218//218 219//219
f 220//220 221//221 222//222
f 223//223 224//224 225//225
f 226//226 227//227 228//228
f 229//229 230//230 231//231
f 232//232 233//233 234//234
f 235//235 236//236 237//237
f 238//238 239//239 240//240
f 241//241 242//242 243//243
f 244//244 245//245 246//246
f 247//247 248//248 249//249
f 250//250 251//251 252//252
f 253//253 254//254 255//255
f 256//256 257//257 258//258
f 259//259 260//260 261//261
f 262//262 263//263 264//264
f 265//265 266//266 267//267
f 268//268 269//269 270//270
f 271//271 272//272 273//273
f 274//274 275//275 276//276
f 277//277 278//278 279//279
f 280//280 281//281 282//282
f 283//283 284//284 285//285
f 286//286 287//287 288//288
f 289//289 290//290 291//291
f 292//292 293//293 294//294
f 295//295 296//296 297//297
f 298//298 299//299 300//300
f 301//301 302//302 303//303
f 304//304 305//305 306//306
f 307//307 308//308 309//309
f 310//310 311//311 312//312
f 313//313 314//314 315//315
f 316//316 317//317 318//318
f 319//319 320//320 321//321
f 322//322 323//323 324//324
f 325//325 326//326 327//327
f 328//328 329//329 330//330
f 331//331 332//332 333//333
f 334//334 335//335 336//336
f 337//337 338//338 339//339
f 340//340 341//341 342//342
f 343//343 344//344 345//345
f 346//346 347//347 348//348
f 349//349 350//350 351//351
f 352//352 353//353 354//354
f 355//355 356//356 357//357
f 358//358 359//359 360//360
f 361//361 362//362 363//363
f 364//364 365//365 366//366
f 367//367 368//368 369//369
f 370//370 371//371 372//372
