v 19 -7 0
v 22 -9 0
v 19 -7 1
v 22 -9 0
v 22 -9 1
v 19 -7 1
v 22 -9 0
v 19 -12 0
v 22 -9 1
v 19 -12 0
v 19 -12 1
v 22 -9 1
v 19 -12 0
v 15 -11 0
v 19 -12 1
v 15 -11 0
v 15 -11 1
v 19 -12 1
v 15 -11 0
v 13 -10 0
v 15 -11 1
v 13 -10 0
v 13 -10 1
v 15 -11 1
v 13 -10 0
v 12 -11 0
v 13 -10 1
v 12 -11 0
v 12 -11 1
v 13 -10 1
v 12 -11 0
v 14.5 -14 0
v 12 -11 1
v 14.5 -14 0
v 14.5 -14 1
v 12 -11 1
v 14.5 -14 0
v 20 -15 0
v 14.5 -14 1
v 20 -15 0
v 20 -15 1
v 14.5 -14 1
v 20 -15 0
v 26 -13.5 0
v 20 -15 1
v 26 -13.5 0
v 26 -13.5 1
v 20 -15 1
v 26 -13.5 0
v 28 -9 0
v 26 -13.5 1
v 28 -9 0
v 28 -9 1
v 26 -13.5 1
v 28 -9 0
v 26.5 -5.5 0
v 28 -9 1
v 26.5 -5.5 0
v 26.5 -5.5 1
v 28 -9 1
v 26.5 -5.5 0
v 22 -4 0
v 26.5 -5.5 1
v 22 -4 0
v 22 -4 1
v 26.5 -5.5 1
v 22 -4 0
v 20 -4 0
v 22 -4 1
v 20 -4 0
v 20 -4 1
v 22 -4 1
v 20 -4 0
v 20 0 0
v 20 -4 1
v 20 0 0
v 20 0 1
v 20 -4 1
v 20 0 0
v 17 0 0
v 20 0 1
v 17 0 0
v 17 0 1
v 20 0 1
v 17 0 0
v 17 -7 0
v 17 0 1
v 17 -7 0
v 17 -7 1
v 17 0 1
v 17 -7 0
v 19 -7 0
v 17 -7 1
v 19 -7 0
v 19 -7 1
v 17 -7 1
v 19 30 0
v 19 30 1
v 29 27 0
v 29 27 0
v 19 30 1
v 29 27 1
v 29 27 0
v 29 27 1
v 32 30 0
v 32 30 0
v 29 27 1
v 32 30 1
v 32 30 0
v 32 30 1
v 34 29 0
v 34 29 0
v 32 30 1
v 34 29 1
v 34 29 0
v 34 29 1
v 35 25 0
v 35 25 0
v 34 29 1
v 35 25 1
v 35 25 0
v 35 25 1
v 35 20 0
v 35 20 0
v 35 25 1
v 35 20 1
v 35 20 0
v 35 20 1
v 32 16 0
v 32 16 0
v 35 20 1
v 32 16 1
v 32 16 0
v 32 16 1
v 28 19 0
v 28 19 0
v 32 16 1
v 28 19 1
v 28 19 0
v 28 19 1
v 20 23 0
v 20 23 0
v 28 19 1
v 20 23 1
v 20 23 0
v 20 23 1
v 14 20.5 0
v 14 20.5 0
v 20 23 1
v 14 20.5 1
v 14 20.5 0
v 14 20.5 1
v 12 14 0
v 12 14 0
v 14 20.5 1
v 12 14 1
v 12 14 0
v 12 14 1
v 14 8.5 0
v 14 8.5 0
v 12 14 1
v 14 8.5 1
v 14 8.5 0
v 14 8.5 1
v 20 6 0
v 20 6 0
v 14 8.5 1
v 20 6 1
v 20 6 0
v 20 6 1
v 25.5 7 0
v 25.5 7 0
v 20 6 1
v 25.5 7 1
v 25.5 7 0
v 25.5 7 1
v 29.5 9 0
v 29.5 9 0
v 25.5 7 1
v 29.5 9 1
v 29.5 9 0
v 29.5 9 1
v 32 10 0
v 32 10 0
v 29.5 9 1
v 32 10 1
v 32 10 0
v 32 10 1
v 34 9 0
v 34 9 0
v 32 10 1
v 34 9 1
v 34 9 0
v 34 9 1
v 35 7 0
v 35 7 0
v 34 9 1
v 35 7 1
v 35 7 0
v 35 7 1
v 30.5 1.5 0
v 30.5 1.5 0
v 35 7 1
v 30.5 1.5 1
v 30.5 1.5 0
v 30.5 1.5 1
v 20 -1 0
v 20 -1 0
v 30.5 1.5 1
v 20 -1 1
v 20 -1 0
v 20 -1 1
v 7.5 3.5 0
v 7.5 3.5 0
v 20 -1 1
v 7.5 3.5 1
v 7.5 3.5 0
v 7.5 3.5 1
v 3 14 0
v 3 14 0
v 7.5 3.5 1
v 3 14 1
v 3 14 0
v 3 14 1
v 7.5 25.5 0
v 7.5 25.5 0
v 3 14 1
v 7.5 25.5 1
v 7.5 25.5 0
v 7.5 25.5 1
v 19 30 0
v 19 30 0
v 7.5 25.5 1
v 19 30 1
v 19 -12 1
v 12 -11 1
v 14.5 -14 1
v 14.5 -14 1
v 26 -13.5 1
v 19 -12 1
v 15 -11 1
v 12 -11 1
v 19 -12 1
v 26 -13.5 1
v 14.5 -14 1
v 20 -15 1
v 35 25 1
v 29 27 1
v 7.5 25.5 1
v 35 25 1
v 7.5 25.5 1
v 20 23 1
v 20 23 1
v 7.5 25.5 1
v 14 20.5 1
v 7.5 25.5 1
v 3 14 1
v 14 20.5 1
v 3 14 1
v 7.5 3.5 1
v 14 8.5 1
v 26.5 -5.5 1
v 17 -7 1
v 19 -7 1
v 35 25 1
v 20 23 1
v 35 20 1
v 17 -7 1
v 26.5 -5.5 1
v 20 -4 1
v 22 -9 1
v 26 -13.5 1
v 28 -9 1
v 34 9 1
v 29.5 9 1
v 35 7 1
v 35 7 1
v 25.5 7 1
v 30.5 1.5 1
v 20 6 1
v 7.5 3.5 1
v 30.5 1.5 1
v 29.5 9 1
v 25.5 7 1
v 35 7 1
v 14 8.5 1
v 7.5 3.5 1
v 20 6 1
v 7.5 3.5 1
v 20 -1 1
v 30.5 1.5 1
v 28 19 1
v 32 16 1
v 35 20 1
v 19 -7 1
v 22 -9 1
v 28 -9 1
v 29 27 1
v 35 25 1
v 34 29 1
v 26 -13.5 1
v 22 -9 1
v 19 -12 1
v 20 23 1
v 28 19 1
v 35 20 1
v 19 -7 1
v 28 -9 1
v 26.5 -5.5 1
v 34 9 1
v 32 10 1
v 29.5 9 1
v 17 0 1
v 17 -7 1
v 20 -4 1
v 14 20.5 1
v 3 14 1
v 12 14 1
v 17 0 1
v 20 -4 1
v 20 0 1
v 32 30 1
v 29 27 1
v 34 29 1
v 29 27 1
v 19 30 1
v 7.5 25.5 1
v 26.5 -5.5 1
v 22 -4 1
v 20 -4 1
v 25.5 7 1
v 20 6 1
v 30.5 1.5 1
v 3 14 1
v 14 8.5 1
v 12 14 1
v 15 -11 1
v 13 -10 1
v 12 -11 1
v 19 -12 0
v 14.5 -14 0
v 12 -11 0
v 14.5 -14 0
v 19 -12 0
v 26 -13.5 0
v 15 -11 0
v 19 -12 0
v 12 -11 0
v 26 -13.5 0
v 20 -15 0
v 14.5 -14 0
v 35 25 0
v 7.5 25.5 0
v 29 27 0
v 35 25 0
v 20 23 0
v 7.5 25.5 0
v 20 23 0
v 14 20.5 0
v 7.5 25.5 0
v 7.5 25.5 0
v 14 20.5 0
v 3 14 0
v 3 14 0
v 14 8.5 0
v 7.5 3.5 0
v 26.5 -5.5 0
v 19 -7 0
v 17 -7 0
v 35 25 0
v 35 20 0
v 20 23 0
v 17 -7 0
v 20 -4 0
v 26.5 -5.5 0
v 22 -9 0
v 28 -9 0
v 26 -13.5 0
v 34 9 0
v 35 7 0
v 29.5 9 0
v 35 7 0
v 30.5 1.5 0
v 25.5 7 0
v 20 6 0
v 30.5 1.5 0
v 7.5 3.5 0
v 29.5 9 0
v 35 7 0
v 25.5 7 0
v 14 8.5 0
v 20 6 0
v 7.5 3.5 0
v 7.5 3.5 0
v 30.5 1.5 0
v 20 -1 0
v 28 19 0
v 35 20 0
v 32 16 0
v 19 -7 0
v 28 -9 0
v 22 -9 0
v 29 27 0
v 34 29 0
v 35 25 0
v 26 -13.5 0
v 19 -12 0
v 22 -9 0
v 20 23 0
v 35 20 0
v 28 19 0
v 19 -7 0
v 26.5 -5.5 0
v 28 -9 0
v 34 9 0
v 29.5 9 0
v 32 10 0
v 17 0 0
v 20 -4 0
v 17 -7 0
v 14 20.5 0
v 12 14 0
v 3 14 0
v 17 0 0
v 20 0 0
v 20 -4 0
v 32 30 0
v 34 29 0
v 29 27 0
v 29 27 0
v 7.5 25.5 0
v 19 30 0
v 26.5 -5.5 0
v 20 -4 0
v 22 -4 0
v 25.5 7 0
v 30.5 1.5 0
v 20 6 0
v 3 14 0
v 12 14 0
v 14 8.5 0
v 15 -11 0
v 12 -11 0
v 13 -10 0
vn -0.5547 -0.83205 0
vn -0.995133 -0.0985376 0
vn -0.5547 -0.83205 0
vn -0.995133 -0.0985376 0
vn -0.995133 -0.0985376 0
vn -0.5547 -0.83205 0
vn -0.707107 0.707107 0
vn -0.266934 0.963715 0
vn -0.707107 0.707107 0
vn -0.266934 0.963715 0
vn -0.266934 0.963715 0
vn -0.707107 0.707107 0
vn 0.242536 0.970143 -0
vn 0.346947 0.937885 0
vn 0.242536 0.970143 -0
vn 0.346947 0.937885 0
vn 0.346947 0.937885 0
vn 0.242536 0.970143 -0
vn 0.447214 0.894427 -0
vn -0.160182 0.987087 0
vn 0.447214 0.894427 -0
vn -0.160182 0.987087 0
vn -0.160182 0.987087 0
vn 0.447214 0.894427 -0
vn -0.707107 0.707107 0
vn -0.998973 0.0453144 0
vn -0.707107 0.707107 0
vn -0.998973 0.0453144 0
vn -0.998973 0.0453144 0
vn -0.707107 0.707107 0
vn -0.768221 -0.640184 0
vn -0.503769 -0.863839 0
vn -0.768221 -0.640184 0
vn -0.503769 -0.863839 0
vn -0.503769 -0.863839 0
vn -0.768221 -0.640184 0
vn -0.178885 -0.98387 0
vn 0.032557 -0.99947 0
vn -0.178885 -0.98387 0
vn 0.032557 -0.99947 0
vn 0.032557 -0.99947 0
vn -0.178885 -0.98387 0
vn 0.242536 -0.970143 0
vn 0.643281 -0.765631 0
vn 0.242536 -0.970143 0
vn 0.643281 -0.765631 0
vn 0.643281 -0.765631 0
vn 0.242536 -0.970143 0
vn 0.913812 -0.406139 0
vn 0.999978 -0.00666622 0
vn 0.913812 -0.406139 0
vn 0.999978 -0.00666622 0
vn 0.999978 -0.00666622 0
vn 0.913812 -0.406139 0
vn 0.919145 0.393919 -0
vn 0.67711 0.735882 0
vn 0.919145 0.393919 -0
vn 0.67711 0.735882 0
vn 0.67711 0.735882 0
vn 0.919145 0.393919 -0
vn 0.316228 0.948683 -0
vn 0.160182 0.987087 0
vn 0.316228 0.948683 -0
vn 0.160182 0.987087 0
vn 0.160182 0.987087 0
vn 0.316228 0.948683 -0
vn 0 1 -0
vn 0.707107 0.707107 0
vn 0 1 -0
vn 0.707107 0.707107 0
vn 0.707107 0.707107 0
vn 0 1 -0
vn 1 0 0
vn 0.707107 0.707107 0
vn 1 0 0
vn 0.707107 0.707107 0
vn 0.707107 0.707107 0
vn 1 0 0
vn 0 1 -0
vn -0.707107 0.707107 0
vn 0 1 -0
vn -0.707107 0.707107 0
vn -0.707107 0.707107 0
vn 0 1 -0
vn -1 0 0
vn -0.707107 -0.707107 0
vn -1 0 0
vn -0.707107 -0.707107 0
vn -0.707107 -0.707107 0
vn -1 0 0
vn 0 -1 0
vn -0.289784 -0.957092 0
vn 0 -1 0
vn -0.289784 -0.957092 0
vn -0.289784 -0.957092 0
vn 0 -1 0
vn 0.287348 0.957826 -0
vn 0.287348 0.957826 -0
vn -0.244468 0.969657 0
vn -0.244468 0.969657 0
vn 0.287348 0.957826 -0
vn -0.244468 0.969657 0
vn -0.707107 0.707107 -0
vn -0.707107 0.707107 -0
vn -0.160182 0.987087 0
vn -0.160182 0.987087 0
vn -0.707107 0.707107 -0
vn -0.160182 0.987087 0
vn 0.447214 0.894427 -0
vn 0.447214 0.894427 -0
vn 0.780042 0.625727 0
vn 0.780042 0.625727 0
vn 0.447214 0.894427 -0
vn 0.780042 0.625727 0
vn 0.970143 0.242536 -0
vn 0.970143 0.242536 -0
vn 0.992508 0.122183 0
vn 0.992508 0.122183 0
vn 0.970143 0.242536 -0
vn 0.992508 0.122183 0
vn 1 -0 -0
vn 1 -0 -0
vn 0.948683 -0.316228 0
vn 0.948683 -0.316228 0
vn 1 -0 -0
vn 0.948683 -0.316228 0
vn 0.8 -0.6 -0
vn 0.8 -0.6 -0
vn 0.141421 -0.989949 0
vn 0.141421 -0.989949 0
vn 0.8 -0.6 -0
vn 0.141421 -0.989949 0
vn -0.6 -0.8 0
vn -0.6 -0.8 0
vn -0.525731 -0.850651 0
vn -0.525731 -0.850651 0
vn -0.6 -0.8 0
vn -0.525731 -0.850651 0
vn -0.447214 -0.894427 0
vn -0.447214 -0.894427 0
vn -0.0344215 -0.999407 0
vn -0.0344215 -0.999407 0
vn -0.447214 -0.894427 0
vn -0.0344215 -0.999407 0
vn 0.384615 -0.923077 -0
vn 0.384615 -0.923077 -0
vn 0.740319 -0.672256 0
vn 0.740319 -0.672256 0
vn 0.384615 -0.923077 -0
vn 0.740319 -0.672256 0
vn 0.955779 -0.294086 -0
vn 0.955779 -0.294086 -0
vn 0.999684 0.0251332 0
vn 0.999684 0.0251332 0
vn 0.955779 -0.294086 -0
vn 0.999684 0.0251332 0
vn 0.939793 0.341743 -0
vn 0.939793 0.341743 -0
vn 0.723189 0.690651 0
vn 0.723189 0.690651 0
vn 0.939793 0.341743 -0
vn 0.723189 0.690651 0
vn 0.384615 0.923077 -0
vn 0.384615 0.923077 -0
vn 0.107262 0.994231 0
vn 0.107262 0.994231 0
vn 0.384615 0.923077 -0
vn 0.107262 0.994231 0
vn -0.178885 0.98387 -0
vn -0.178885 0.98387 -0
vn -0.316228 0.948683 0
vn -0.316228 0.948683 0
vn -0.178885 0.98387 -0
vn -0.316228 0.948683 0
vn -0.447214 0.894427 -0
vn -0.447214 0.894427 -0
vn -0.409656 0.91224 0
vn -0.409656 0.91224 0
vn -0.447214 0.894427 -0
vn -0.409656 0.91224 0
vn -0.371391 0.928477 -0
vn -0.371391 0.928477 -0
vn 0.0415587 0.999136 0
vn 0.0415587 0.999136 0
vn -0.371391 0.928477 -0
vn 0.0415587 0.999136 0
vn 0.447214 0.894427 -0
vn 0.447214 0.894427 -0
vn 0.707107 0.707107 0
vn 0.707107 0.707107 0
vn 0.447214 0.894427 -0
vn 0.707107 0.707107 0
vn 0.894427 0.447214 -0
vn 0.894427 0.447214 -0
vn 0.993841 -0.110813 0
vn 0.993841 -0.110813 0
vn 0.894427 0.447214 -0
vn 0.993841 -0.110813 0
vn 0.773957 -0.633238 -0
vn 0.773957 -0.633238 -0
vn 0.530682 -0.847571 0
vn 0.530682 -0.847571 0
vn 0.773957 -0.633238 -0
vn 0.530682 -0.847571 0
vn 0.231621 -0.972806 -0
vn 0.231621 -0.972806 -0
vn -0.0558771 -0.998438 0
vn -0.0558771 -0.998438 0
vn 0.231621 -0.972806 -0
vn -0.0558771 -0.998438 0
vn -0.338719 -0.940887 0
vn -0.338719 -0.940887 0
vn -0.68582 -0.727771 0
vn -0.68582 -0.727771 0
vn -0.338719 -0.940887 0
vn -0.68582 -0.727771 0
vn -0.919145 -0.393919 0
vn -0.919145 -0.393919 0
vn -0.999873 -0.0159513 0
vn -0.999873 -0.0159513 0
vn -0.919145 -0.393919 0
vn -0.999873 -0.0159513 0
vn -0.931243 0.364399 -0
vn -0.931243 0.364399 -0
vn -0.707107 0.707107 0
vn -0.707107 0.707107 0
vn -0.931243 0.364399 -0
vn -0.707107 0.707107 0
vn -0.364399 0.931243 -0
vn -0.364399 0.931243 -0
vn -0.0407542 0.999169 0
vn -0.0407542 0.999169 0
vn -0.364399 0.931243 -0
vn -0.0407542 0.999169 0
vn 0 0 1
vn 0 0 1
vn 0 0 1
vn 0 0 1
vn 0 0 1
vn 0 0 1
vn 0 0 1
vn 0 0 1
vn 0 0 1
vn 0 0 1
vn 0 0 1
vn 0 0 1
vn 0 0 1
vn 0 0 1
vn 0 0 1
vn 0 0 1
vn 0 0 1
vn 0 0 1
vn 0 0 1
vn 0 0 1
vn 0 0 1
vn 0 0 1
vn 0 0 1
vn 0 0 1
vn 0 0 1
vn 0 0 1
vn 0 0 1
vn 0 0 1
vn 0 0 1
vn 0 0 1
vn 0 0 1
vn 0 0 1
vn 0 0 1
vn 0 0 1
vn 0 0 1
vn 0 0 1
vn 0 0 1
vn 0 0 1
vn 0 0 1
vn 0 0 1
vn 0 0 1
vn 0 0 1
vn 0 0 1
vn 0 0 1
vn 0 0 1
vn 0 0 1
vn 0 0 1
vn 0 0 1
vn 0 0 1
vn 0 0 1
vn 0 0 1
vn 0 0 1
vn 0 0 1
vn 0 0 1
vn 0 0 1
vn 0 0 1
vn 0 0 1
vn 0 0 1
vn 0 0 1
vn 0 0 1
vn 0 0 1
vn 0 0 1
vn 0 0 1
vn 0 0 1
vn 0 0 1
vn 0 0 1
vn 0 0 1
vn 0 0 1
vn 0 0 1
vn 0 0 1
vn 0 0 1
vn 0 0 1
vn 0 0 1
vn 0 0 1
vn 0 0 1
vn 0 0 1
vn 0 0 1
vn 0 0 1
vn 0 0 1
vn 0 0 1
vn 0 0 1
vn 0 0 1
vn 0 0 1
vn 0 0 1
vn 0 0 1
vn 0 0 1
vn 0 0 1
vn 0 0 1
vn 0 0 1
vn 0 0 1
vn 0 0 1
vn 0 0 1
vn 0 0 1
vn 0 0 1
vn 0 0 1
vn 0 0 1
vn 0 0 1
vn 0 0 1
vn 0 0 1
vn 0 0 1
vn 0 0 1
vn 0 0 1
vn 0 0 1
vn 0 0 1
vn 0 0 1
vn 0 0 -1
vn 0 0 -1
vn 0 0 -1
vn 0 0 -1
vn 0 0 -1
vn 0 0 -1
vn 0 0 -1
vn 0 0 -1
vn 0 0 -1
vn 0 0 -1
vn 0 0 -1
vn 0 0 -1
vn 0 0 -1
vn 0 0 -1
vn 0 0 -1
vn 0 0 -1
vn 0 0 -1
vn 0 0 -1
vn 0 0 -1
vn 0 0 -1
vn 0 0 -1
vn 0 0 -1
vn 0 0 -1
vn 0 0 -1
vn 0 0 -1
vn 0 0 -1
vn 0 0 -1
vn 0 0 -1
vn 0 0 -1
vn 0 0 -1
vn 0 0 -1
vn 0 0 -1
vn 0 0 -1
vn 0 0 -1
vn 0 0 -1
vn 0 0 -1
vn 0 0 -1
vn 0 0 -1
vn 0 0 -1
vn 0 0 -1
vn 0 0 -1
vn 0 0 -1
vn 0 0 -1
vn 0 0 -1
vn 0 0 -1
vn 0 0 -1
vn 0 0 -1
vn 0 0 -1
vn 0 0 -1
vn 0 0 -1
vn 0 0 -1
vn 0 0 -1
vn 0 0 -1
vn 0 0 -1
vn 0 0 -1
vn 0 0 -1
vn 0 0 -1
vn 0 0 -1
vn 0 0 -1
vn 0 0 -1
vn 0 0 -1
vn 0 0 -1
vn 0 0 -1
vn 0 0 -1
vn 0 0 -1
vn 0 0 -1
vn 0 0 -1
vn 0 0 -1
vn 0 0 -1
vn 0 0 -1
vn 0 0 -1
vn 0 0 -1
vn 0 0 -1
vn 0 0 -1
vn 0 0 -1
vn 0 0 -1
vn 0 0 -1
vn 0 0 -1
vn 0 0 -1
vn 0 0 -1
vn 0 0 -1
vn 0 0 -1
vn 0 0 -1
vn 0 0 -1
vn 0 0 -1
vn 0 0 -1
vn 0 0 -1
vn 0 0 -1
vn 0 0 -1
vn 0 0 -1
vn 0 0 -1
vn 0 0 -1
vn 0 0 -1
vn 0 0 -1
vn 0 0 -1
vn 0 0 -1
vn 0 0 -1
vn 0 0 -1
vn 0 0 -1
vn 0 0 -1
vn 0 0 -1
vn 0 0 -1
vn 0 0 -1
vn 0 0 -1
vn 0 0 -1
f 1//1 2//2 3//3
f 4//4 5//5 6//6
f 7//7 8//8 9//9
f 10//10 11//11 12//12
f 13//13 14//14 15//15
f 16//16 17//17 18//18
f 19//19 20//20 21//21
f 22//22 23//23 24//24
f 25//25 26//26 27//27
f 28//28 29//29 30//30
f 31//31 32//32 33//33
f 34//34 35//35 36//36
f 37//37 38//38 39//39
f 40//40 41//41 42//42
f 43//43 44//44 45//45
f 46//46 47//47 48//48
f 49//49 50//50 51//51
f 52//52 53//53 54//54
f 55//55 56//56 57//57
f 58//58 59//59 60//60
f 61//61 62//62 63//63
f 64//64 65//65 66//66
f 67//67 68//68 69//69
f 70//70 71//71 72//72
f 73//73 74//74 75//75
f 76//76 77//77 78//78
f 79//79 80//80 81//81
f 82//82 83//83 84//84
f 85//85 86//86 87//87
f 88//88 89//89 90//90
f 91//91 92//92 93//93
f 94//94 95//95 96//96
f 97//97 98//98 99//99
f 100//100 101//101 102//102
f 103//103 104//104 105//105
f 106//106 107//107 108//108
f 109//109 110//110 111//111
f 112//112 113//113 114//114
f 115//115 116//116 117//117
f 118//118 119//119 120//120
f 121//121 122//122 123//123
f 124//124 125//125 126//126
f 127//127 128//128 129//129
f 130//130 131//131 132//132
f 133//133 134//134 135//135
f 136//136 137//137 138//138
f 139//139 140//140 141//141
f 142//142 143//143 144//144
f 145//145 146//146 147//147
f 148//148 149//149 150//150
f 151//151 152//152 153//153
f 154//154 155//155 156//156
f 157//157 158//158 159//159
f 160//160 161//161 162//162
f 163//163 164//164 165//165
f 166//166 167//167 168//168
f 169//169 170//170 171//171
f 172//172 173//173 174//174
f 175//175 176//176 177//177
f 178//178 179//179 180//180
f 181//181 182//182 183//183
f 184//184 185//185 186//186
f 187//187 188//188 189//189
f 190//190 191//191 192//192
f 193//193 194//194 195//195
f 196//196 197//197 198//198
f 199//199 200//200 201//201
f 202//202 203//203 204//204
f 205//205 206//206 207//207
f 208//208 209//209 210//210
f 211//211 212//212 213//213
f 214//214 215//215 216//216
f 217//217 218//218 219//219
f 220//220 221//221 222//222
f 223//223 224//224 225//225
f 226//226 227//227 228//228
f 229//229 230//230 231//231
f 232//232 233//233 234//234
f 235//235 236//236 237//237
f 238//238 239//239 240//240
f 241//241 242//242 243//243
f 244//244 245//245 246//246
f 247//247 248//248 249//249
f 250//250 251//251 252//252
f 253//253 254//254 255//255
f 256//256 257//257 258//258
f 259//259 260//260 261//261
f 262//262 263//263 264//264
f 265//265 266//266 267//267
f 268//268 269//269 270//270
f 271//271 272//272 273//273
f 274//274 275//275 276//276
f 277//277 278//278 279//279
f 280//280 281//281 282//282
f 283//283 284//284 285//285
f 286//286 287//287 288//288
f 289//289 290//290 291//291
f 292//292 293//293 294//294
f 295//295 296//296 297//297
f 298//298 299//299 300//300
f 301//301 302//302 303//303
f 304//304 305//305 306//306
f 307//307 308//308 309//309
f 310//310 311//311 312//312
f 313//313 314//314 315//315
f 316//316 317//317 318//318
f 319//319 320//320 321//321
f 322//322 323//323 324//324
f 325//325 326//326 327//327
f 328//328 329//329 330//330
f 331//331 332//332 333//333
f 334//334 335//335 336//336
f 337//337 338//338 339//339
f 340//340 341//341 342//342
f 343//343 344//344 345//345
f 346//346 347//347 348//348
f 349//349 350//350 351//351
f 352//352 353//353 354//354
f 355//355 356//356 357//357
f 358//358 359//359 360//360
f 361//361 362//362 363//363
f 364//364 365//365 366//366
f 367//367 368//368 369//369
f 370//370 371//371 372//372
f 373//373 374//374 375//375
f 376//376 377//377 378//378
f 379//379 380//380 381//381
f 382//382 383//383 384//384
f 385//385 386//386 387//387
f 388//388 389//389 390//390
f 391//391 392//392 393//393
f 394//394 395//395 396//396
f 397//397 398//398 399//399
f 400//400 401//401 402//402
f 403//403 404//404 405//405
f 406//406 407//407 408//408
f 409//409 410//410 411//411
f 412//412 413//413 414//414
f 415//415 416//416 417//417
f 418//418 419//419 420//420
f 421//421 422//422 423//423
f 424//424 425//425 426//426
f 427//427 428//428 429//429
f 430//430 431//431 432//432
f 433//433 434//434 435//435
f 436//436 437//437 438//438
f 439//439 440//440 441//441
f 442//442 443//443 444//444
