v 20 32 0
v 13 13 0
v 20 32 1
v 13 13 0
v 13 13 1
v 20 32 1
v 13 13 0
v 20 -7 0
v 13 13 1
v 20 -7 0
v 20 -7 1
v 13 13 1
v 20 -7 0
v 27 -13 0
v 20 -7 1
v 27 -13 0
v 27 -13 1
v 20 -7 1
v 27 -13 0
v 28.5 -12.5 0
v 27 -13 1
v 28.5 -12.5 0
v 28.5 -12.5 1
v 27 -13 1
v 28.5 -12.5 0
v 29 -11 0
v 28.5 -12.5 1
v 29 -11 0
v 29 -11 1
v 28.5 -12.5 1
v 29 -11 0
v 28.5 -10 0
v 29 -11 1
v 28.5 -10 0
v 28.5 -10 1
v 29 -11 1
v 28.5 -10 0
v 26.5 -7 0
v 28.5 -10 1
v 26.5 -7 0
v 26.5 -7 1
v 28.5 -10 1
v 26.5 -7 0
v 25 -3 0
v 26.5 -7 1
v 25 -3 0
v 25 -3 1
v 26.5 -7 1
v 25 -3 0
v 21 13 0
v 25 -3 1
v 21 13 0
v 21 13 1
v 25 -3 1
v 21 13 0
v 26 30 0
v 21 13 1
v 26 30 0
v 26 30 1
v 21 13 1
v 26 30 0
v 27 33 0
v 26 30 1
v 27 33 0
v 27 33 1
v 26 30 1
v 27 33 0
v 28.5 35.5 0
v 27 33 1
v 28.5 35.5 0
v 28.5 35.5 1
v 27 33 1
v 28.5 35.5 0
v 29 37 0
v 28.5 35.5 1
v 29 37 0
v 29 37 1
v 28.5 35.5 1
v 29 37 0
v 28.5 37.5 0
v 29 37 1
v 28.5 37.5 0
v 28.5 37.5 1
v 29 37 1
v 28.5 37.5 0
v 27 38 0
v 28.5 37.5 1
v 27 38 0
v 27 38 1
v 28.5 37.5 1
v 27 38 0
v 20 32 0
v 27 38 1
v 20 32 0
v 20 32 1
v 27 38 1
v 28.5 35.5 1
v 20 32 1
v 27 33 1
v 26 30 1
v 13 13 1
v 21 13 1
v 20 32 1
v 28.5 37.5 1
v 27 38 1
v 13 13 1
v 20 -7 1
v 25 -3 1
v 21 13 1
v 13 13 1
v 25 -3 1
v 29 37 1
v 20 32 1
v 28.5 35.5 1
v 20 -7 1
v 26.5 -7 1
v 25 -3 1
v 28.5 37.5 1
v 20 32 1
v 29 37 1
v 26 30 1
v 20 32 1
v 13 13 1
v 20 -7 1
v 28.5 -10 1
v 26.5 -7 1
v 20 32 1
v 26 30 1
v 27 33 1
v 20 -7 1
v 27 -13 1
v 28.5 -10 1
v 27 -13 1
v 29 -11 1
v 28.5 -10 1
v 27 -13 1
v 28.5 -12.5 1
v 29 -11 1
v 28.5 35.5 0
v 27 33 0
v 20 32 0
v 26 30 0
v 21 13 0
v 13 13 0
v 20 32 0
v 27 38 0
v 28.5 37.5 0
v 13 13 0
v 25 -3 0
v 20 -7 0
v 21 13 0
v 25 -3 0
v 13 13 0
v 29 37 0
v 28.5 35.5 0
v 20 32 0
v 20 -7 0
v 25 -3 0
v 26.5 -7 0
v 28.5 37.5 0
v 29 37 0
v 20 32 0
v 26 30 0
v 13 13 0
v 20 32 0
v 20 -7 0
v 26.5 -7 0
v 28.5 -10 0
v 20 32 0
v 27 33 0
v 26 30 0
v 20 -7 0
v 28.5 -10 0
v 27 -13 0
v 27 -13 0
v 28.5 -10 0
v 29 -11 0
v 27 -13 0
v 29 -11 0
v 28.5 -12.5 0
vn -0.938343 0.345705 0
vn -0.999967 0.00815766 0
vn -0.938343 0.345705 0
vn -0.999967 0.00815766 0
vn -0.999967 0.00815766 0
vn -0.938343 0.345705 0
vn -0.943858 -0.33035 0
vn -0.825662 -0.564166 0
vn -0.943858 -0.33035 0
vn -0.825662 -0.564166 0
vn -0.825662 -0.564166 0
vn -0.943858 -0.33035 0
vn -0.650791 -0.759257 0
vn -0.192234 -0.981349 0
vn -0.650791 -0.759257 0
vn -0.192234 -0.981349 0
vn -0.192234 -0.981349 0
vn -0.650791 -0.759257 0
vn 0.316228 -0.948683 0
vn 0.707107 -0.707107 0
vn 0.316228 -0.948683 0
vn 0.707107 -0.707107 0
vn 0.707107 -0.707107 0
vn 0.316228 -0.948683 0
vn 0.948683 -0.316228 0
vn 0.997484 0.070889 0
vn 0.948683 -0.316228 0
vn 0.997484 0.070889 0
vn 0.997484 0.070889 0
vn 0.948683 -0.316228 0
vn 0.894427 0.447214 -0
vn 0.86491 0.501927 0
vn 0.894427 0.447214 -0
vn 0.86491 0.501927 0
vn 0.86491 0.501927 0
vn 0.894427 0.447214 -0
vn 0.83205 0.5547 -0
vn 0.890029 0.455903 0
vn 0.83205 0.5547 -0
vn 0.890029 0.455903 0
vn 0.890029 0.455903 0
vn 0.83205 0.5547 -0
vn 0.936329 0.351123 -0
vn 0.954781 0.297311 0
vn 0.936329 0.351123 -0
vn 0.954781 0.297311 0
vn 0.954781 0.297311 0
vn 0.936329 0.351123 -0
vn 0.970143 0.242536 -0
vn 0.999789 -0.0205351 0
vn 0.970143 0.242536 -0
vn 0.999789 -0.0205351 0
vn 0.999789 -0.0205351 0
vn 0.970143 0.242536 -0
vn 0.959365 -0.282166 0
vn 0.954176 -0.299245 0
vn 0.959365 -0.282166 0
vn 0.954176 -0.299245 0
vn 0.954176 -0.299245 0
vn 0.959365 -0.282166 0
vn 0.948683 -0.316228 0
vn 0.908513 -0.417856 0
vn 0.948683 -0.316228 0
vn 0.908513 -0.417856 0
vn 0.908513 -0.417856 0
vn 0.948683 -0.316228 0
vn 0.857493 -0.514496 0
vn 0.908513 -0.417856 0
vn 0.857493 -0.514496 0
vn 0.908513 -0.417856 0
vn 0.908513 -0.417856 0
vn 0.857493 -0.514496 0
vn 0.948683 -0.316228 0
vn 0.973249 0.229753 0
vn 0.948683 -0.316228 0
vn 0.973249 0.229753 0
vn 0.973249 0.229753 0
vn 0.948683 -0.316228 0
vn 0.707107 0.707107 -0
vn 0.525731 0.850651 0
vn 0.707107 0.707107 -0
vn 0.525731 0.850651 0
vn 0.525731 0.850651 0
vn 0.707107 0.707107 -0
vn 0.316228 0.948683 -0
vn -0.192234 0.981349 0
vn 0.316228 0.948683 -0
vn -0.192234 0.981349 0
vn -0.192234 0.981349 0
vn 0.316228 0.948683 -0
vn -0.650791 0.759257 0
vn -0.821032 0.570882 0
vn -0.650791 0.759257 0
vn -0.821032 0.570882 0
vn -0.821032 0.570882 0
vn -0.650791 0.759257 0
vn 0 0 1
vn 0 0 1
vn 0 0 1
vn 0 0 1
vn 0 0 1
vn 0 0 1
vn 0 0 1
vn 0 0 1
vn 0 0 1
vn 0 0 1
vn 0 0 1
vn 0 0 1
vn 0 0 1
vn 0 0 1
vn 0 0 1
vn 0 0 1
vn 0 0 1
vn 0 0 1
vn 0 0 1
vn 0 0 1
vn 0 0 1
vn 0 0 1
vn 0 0 1
vn 0 0 1
vn 0 0 1
vn 0 0 1
vn 0 0 1
vn 0 0 1
vn 0 0 1
vn 0 0 1
vn 0 0 1
vn 0 0 1
vn 0 0 1
vn 0 0 1
vn 0 0 1
vn 0 0 1
vn 0 0 1
vn 0 0 1
vn 0 0 1
vn 0 0 1
vn 0 0 1
vn 0 0 1
vn 0 0 -1
vn 0 0 -1
vn 0 0 -1
vn 0 0 -1
vn 0 0 -1
vn 0 0 -1
vn 0 0 -1
vn 0 0 -1
vn 0 0 -1
vn 0 0 -1
vn 0 0 -1
vn 0 0 -1
vn 0 0 -1
vn 0 0 -1
vn 0 0 -1
vn 0 0 -1
vn 0 0 -1
vn 0 0 -1
vn 0 0 -1
vn 0 0 -1
vn 0 0 -1
vn 0 0 -1
vn 0 0 -1
vn 0 0 -1
vn 0 0 -1
vn 0 0 -1
vn 0 0 -1
vn 0 0 -1
vn 0 0 -1
vn 0 0 -1
vn 0 0 -1
vn 0 0 -1
vn 0 0 -1
vn 0 0 -1
vn 0 0 -1
vn 0 0 -1
vn 0 0 -1
vn 0 0 -1
vn 0 0 -1
vn 0 0 -1
vn 0 0 -1
vn 0 0 -1
f 1//1 2//2 3//3
f 4//4 5//5 6//6
f 7//7 8//8 9//9
f 10//10 11//11 12//12
f 13//13 14//14 15//15
f 16//16 17//17 18//18
f 19//19 20//20 21//21
f 22//22 23//23 24//24
f 25//25 26//26 27//27
f 28//28 29//29 30//30
f 31//31 32//32 33//33
f 34//34 35//35 36//36
f 37//37 38//38 39//39
f 40//40 41//41 42//42
f 43//43 44//44 45//45
f 46//46 47//47 48//48
f 49//49 50//50 51//51
f 52//52 53//53 54//54
f 55//55 56//56 57//57
f 58//58 59//59 60//60
f 61//61 62//62 63//63
f 64//64 65//65 66//66
f 67//67 68//68 69//69
f 70//70 71//71 72//72
f 73//73 74//74 75//75
f 76//76 77//77 78//78
f 79//79 80//80 81//81
f 82//82 83//83 84//84
f 85//85 86//86 87//87
f 88//88 89//89 90//90
f 91//91 92//92 93//93
f 94//94 95//95 96//96
f 97//97 98//98 99//99
f 100//100 101//101 102//102
f 103//103 104//104 105//105
f 106//106 107//107 108//108
f 109//109 110//110 111//111
f 112//112 113//113 114//114
f 115//115 116//116 117//117
f 118//118 119//119 120//120
f 121//121 122//122 123//123
f 124//124 125//125 126//126
f 127//127 128//128 129//129
f 130//130 131//131 132//132
f 133//133 134//134 135//135
f 136//136 137//137 138//138
f 139//139 140//140 141//141
f 142//142 143//143 144//144
f 145//145 146//146 147//147
f 148//148 149//149 150//150
f 151//151 152//152 153//153
f 154//154 155//155 156//156
f 157//157 158//158 159//159
f 160//160 161//161 162//162
f 163//163 164//164 165//165
f 166//166 167//167 168//168
f 169//169 170//170 171//171
f 172//172 173//173 174//174
f 175//175 176//176 177//177
f 178//178 179//179 180//180
