v 19 -7 0
v 26 13 0
v 19 -7 1
v 26 13 0
v 26 13 1
v 19 -7 1
v 26 13 0
v 19 32 0
v 26 13 1
v 19 32 0
v 19 32 1
v 26 13 1
v 19 32 0
v 11 38 0
v 19 32 1
v 11 38 0
v 11 38 1
v 19 32 1
v 11 38 0
v 10 37 0
v 11 38 1
v 10 37 0
v 10 37 1
v 11 38 1
v 10 37 0
v 10.5 35 0
v 10 37 1
v 10.5 35 0
v 10.5 35 1
v 10 37 1
v 10.5 35 0
v 14 28 0
v 10.5 35 1
v 14 28 0
v 14 28 1
v 10.5 35 1
v 14 28 0
v 18 13 0
v 14 28 1
v 18 13 0
v 18 13 1
v 14 28 1
v 18 13 0
v 13 -5 0
v 18 13 1
v 13 -5 0
v 13 -5 1
v 18 13 1
v 13 -5 0
v 11 -7.5 0
v 13 -5 1
v 11 -7.5 0
v 11 -7.5 1
v 13 -5 1
v 11 -7.5 0
v 10 -10 0
v 11 -7.5 1
v 10 -10 0
v 10 -10 1
v 11 -7.5 1
v 10 -10 0
v 10 -11 0
v 10 -10 1
v 10 -11 0
v 10 -11 1
v 10 -10 1
v 10 -11 0
v 10.5 -12.5 0
v 10 -11 1
v 10.5 -12.5 0
v 10.5 -12.5 1
v 10 -11 1
v 10.5 -12.5 0
v 11 -13 0
v 10.5 -12.5 1
v 11 -13 0
v 11 -13 1
v 10.5 -12.5 1
v 11 -13 0
v 19 -7 0
v 11 -13 1
v 19 -7 0
v 19 -7 1
v 11 -13 1
v 19 32 1
v 10 37 1
v 10.5 35 1
v 26 13 1
v 14 28 1
v 18 13 1
v 26 13 1
v 18 13 1
v 19 -7 1
v 13 -5 1
v 11 -7.5 1
v 19 -7 1
v 11 -7.5 1
v 11 -13 1
v 19 -7 1
v 19 32 1
v 11 38 1
v 10 37 1
v 11 -7.5 1
v 10 -10 1
v 11 -13 1
v 11 -13 1
v 10 -10 1
v 10 -11 1
v 18 13 1
v 13 -5 1
v 19 -7 1
v 10 -11 1
v 10.5 -12.5 1
v 11 -13 1
v 10.5 35 1
v 14 28 1
v 19 32 1
v 14 28 1
v 26 13 1
v 19 32 1
v 19 32 0
v 10.5 35 0
v 10 37 0
v 26 13 0
v 18 13 0
v 14 28 0
v 26 13 0
v 19 -7 0
v 18 13 0
v 13 -5 0
v 19 -7 0
v 11 -7.5 0
v 11 -7.5 0
v 19 -7 0
v 11 -13 0
v 19 32 0
v 10 37 0
v 11 38 0
v 11 -7.5 0
v 11 -13 0
v 10 -10 0
v 11 -13 0
v 10 -11 0
v 10 -10 0
v 18 13 0
v 19 -7 0
v 13 -5 0
v 10 -11 0
v 11 -13 0
v 10.5 -12.5 0
v 10.5 35 0
v 19 32 0
v 14 28 0
v 14 28 0
v 19 32 0
v 26 13 0
vn 0.943858 -0.33035 0
vn 0.999967 0.00815766 0
vn 0.943858 -0.33035 0
vn 0.999967 0.00815766 0
vn 0.999967 0.00815766 0
vn 0.943858 -0.33035 0
vn 0.938343 0.345705 -0
vn 0.80201 0.59731 0
vn 0.938343 0.345705 -0
vn 0.80201 0.59731 0
vn 0.80201 0.59731 0
vn 0.938343 0.345705 -0
vn 0.6 0.8 -0
vn -0.070889 0.997484 0
vn 0.6 0.8 -0
vn -0.070889 0.997484 0
vn -0.070889 0.997484 0
vn 0.6 0.8 -0
vn -0.707107 0.707107 0
vn -0.963715 0.266934 0
vn -0.707107 0.707107 0
vn -0.963715 0.266934 0
vn -0.963715 0.266934 0
vn -0.707107 0.707107 0
vn -0.970143 -0.242536 0
vn -0.937885 -0.346947 0
vn -0.970143 -0.242536 0
vn -0.937885 -0.346947 0
vn -0.937885 -0.346947 0
vn -0.970143 -0.242536 0
vn -0.894427 -0.447214 0
vn -0.935146 -0.354262 0
vn -0.894427 -0.447214 0
vn -0.935146 -0.354262 0
vn -0.935146 -0.354262 0
vn -0.894427 -0.447214 0
vn -0.966235 -0.257663 0
vn -0.999987 0.00517207 0
vn -0.966235 -0.257663 0
vn -0.999987 0.00517207 0
vn -0.999987 0.00517207 0
vn -0.966235 -0.257663 0
vn -0.963518 0.267644 0
vn -0.890277 0.45542 0
vn -0.963518 0.267644 0
vn -0.890277 0.45542 0
vn -0.890277 0.45542 0
vn -0.963518 0.267644 0
vn -0.780869 0.624695 0
vn -0.864006 0.503482 0
vn -0.780869 0.624695 0
vn -0.864006 0.503482 0
vn -0.864006 0.503482 0
vn -0.780869 0.624695 0
vn -0.928477 0.371391 0
vn -0.981956 0.189108 0
vn -0.928477 0.371391 0
vn -0.981956 0.189108 0
vn -0.981956 0.189108 0
vn -0.928477 0.371391 0
vn -1 0 0
vn -0.987087 -0.160182 0
vn -1 0 0
vn -0.987087 -0.160182 0
vn -0.987087 -0.160182 0
vn -1 0 0
vn -0.948683 -0.316228 0
vn -0.850651 -0.525731 0
vn -0.948683 -0.316228 0
vn -0.850651 -0.525731 0
vn -0.850651 -0.525731 0
vn -0.948683 -0.316228 0
vn -0.707107 -0.707107 0
vn -0.070889 -0.997484 0
vn -0.707107 -0.707107 0
vn -0.070889 -0.997484 0
vn -0.070889 -0.997484 0
vn -0.707107 -0.707107 0
vn 0.6 -0.8 0
vn 0.806857 -0.590747 0
vn 0.6 -0.8 0
vn 0.806857 -0.590747 0
vn 0.806857 -0.590747 0
vn 0.6 -0.8 0
vn 0 0 1
vn 0 0 1
vn 0 0 1
vn 0 0 1
vn 0 0 1
vn 0 0 1
vn 0 0 1
vn 0 0 1
vn 0 0 1
vn 0 0 1
vn 0 0 1
vn 0 0 1
vn 0 0 1
vn 0 0 1
vn 0 0 1
vn 0 0 1
vn 0 0 1
vn 0 0 1
vn 0 0 1
vn 0 0 1
vn 0 0 1
vn 0 0 1
vn 0 0 1
vn 0 0 1
vn 0 0 1
vn 0 0 1
vn 0 0 1
vn 0 0 1
vn 0 0 1
vn 0 0 1
vn 0 0 1
vn 0 0 1
vn 0 0 1
vn 0 0 1
vn 0 0 1
vn 0 0 1
vn 0 0 -1
vn 0 0 -1
vn 0 0 -1
vn 0 0 -1
vn 0 0 -1
vn 0 0 -1
vn 0 0 -1
vn 0 0 -1
vn 0 0 -1
vn 0 0 -1
vn 0 0 -1
vn 0 0 -1
vn 0 0 -1
vn 0 0 -1
vn 0 0 -1
vn 0 0 -1
vn 0 0 -1
vn 0 0 -1
vn 0 0 -1
vn 0 0 -1
vn 0 0 -1
vn 0 0 -1
vn 0 0 -1
vn 0 0 -1
vn 0 0 -1
vn 0 0 -1
vn 0 0 -1
vn 0 0 -1
vn 0 0 -1
vn 0 0 -1
vn 0 0 -1
vn 0 0 -1
vn 0 0 -1
vn 0 0 -1
vn 0 0 -1
vn 0 0 -1
f 1//1 2//2 3//3
f 4//4 5//5 6//6
f 7//7 8//8 9//9
f 10//10 11//11 12//12
f 13//13 14//14 15//15
f 16//16 17//17 18//18
f 19//19 20//20 21//21
f 22//22 23//23 24//24
f 25//25 26//26 27//27
f 28//28 29//29 30//30
f 31//31 32//32 33//33
f 34//34 35//35 36//36
f 37//37 38//38 39//39
f 40//40 41//41 42//42
f 43//43 44//44 45//45
f 46//46 47//47 48//48
f 49//49 50//50 51//51
f 52//52 53//53 54//54
f 55//55 56//56 57//57
f 58//58 59//59 60//60
f 61//61 62//62 63//63
f 64//64 65//65 66//66
f 67//67 68//68 69//69
f 70//70 71//71 72//72
f 73//73 74//74 75//75
f 76//76 77//77 78//78
f 79//79 80//80 81//81
f 82//82 83//83 84//84
f 85//85 86//86 87//87
f 88//88 89//89 90//90
f 91//91 92//92 93//93
f 94//94 95//95 96//96
f 97//97 98//98 99//99
f 100//100 101//101 102//102
f 103//103 104//104 105//105
f 106//106 107//107 108//108
f 109//109 110//110 111//111
f 112//112 113//113 114//114
f 115//115 116//116 117//117
f 118//118 119//119 120//120
f 121//121 122//122 123//123
f 124//124 125//125 126//126
f 127//127 128//128 129//129
f 130//130 131//131 132//132
f 133//133 134//134 135//135
f 136//136 137//137 138//138
f 139//139 140//140 141//141
f 142//142 143//143 144//144
f 145//145 146//146 147//147
f 148//148 149//149 150//150
f 151//151 152//152 153//153
f 154//154 155//155 156//156
