v -1 11.5 0
v 0 11 0
v -1 11.5 1
v 0 11 0
v 0 11 1
v -1 11.5 1
v 0 11 0
v 39 11 0
v 0 11 1
v 39 11 0
v 39 11 1
v 0 11 1
v 39 11 0
v 39.5 11.5 0
v 39 11 1
v 39.5 11.5 0
v 39.5 11.5 1
v 39 11 1
v 39.5 11.5 0
v 40 13 0
v 39.5 11.5 1
v 40 13 0
v 40 13 1
v 39.5 11.5 1
v 40 13 0
v 40 16 0
v 40 13 1
v 40 16 0
v 40 16 1
v 40 13 1
v 40 16 0
v 39 17 0
v 40 16 1
v 39 17 0
v 39 17 1
v 40 16 1
v 39 17 0
v -1 17 0
v 39 17 1
v -1 17 0
v -1 17 1
v 39 17 1
v -1 17 0
v -1 11.5 0
v -1 17 1
v -1 11.5 0
v -1 11.5 1
v -1 17 1
v 40 16 1
v -1 17 1
v -1 11.5 1
v -1 11.5 1
v 39.5 11.5 1
v 40 13 1
v -1 17 1
v 40 16 1
v 39 17 1
v -1 11.5 1
v 39 11 1
v 39.5 11.5 1
v -1 11.5 1
v 0 11 1
v 39 11 1
v 40 16 1
v -1 11.5 1
v 40 13 1
v 40 16 0
v -1 11.5 0
v -1 17 0
v -1 11.5 0
v 40 13 0
v 39.5 11.5 0
v -1 17 0
v 39 17 0
v 40 16 0
v -1 11.5 0
v 39.5 11.5 0
v 39 11 0
v -1 11.5 0
v 39 11 0
v 0 11 0
v 40 16 0
v 40 13 0
v -1 11.5 0
vn -0.447214 -0.894427 0
vn -0.229753 -0.973249 0
vn -0.447214 -0.894427 0
vn -0.229753 -0.973249 0
vn -0.229753 -0.973249 0
vn -0.447214 -0.894427 0
vn 0 -1 0
vn 0.382683 -0.92388 0
vn 0 -1 0
vn 0.382683 -0.92388 0
vn 0.382683 -0.92388 0
vn 0 -1 0
vn 0.707107 -0.707107 0
vn 0.850651 -0.525731 0
vn 0.707107 -0.707107 0
vn 0.850651 -0.525731 0
vn 0.850651 -0.525731 0
vn 0.707107 -0.707107 0
vn 0.948683 -0.316228 0
vn 0.987087 -0.160182 0
vn 0.948683 -0.316228 0
vn 0.987087 -0.160182 0
vn 0.987087 -0.160182 0
vn 0.948683 -0.316228 0
vn 1 0 0
vn 0.92388 0.382683 0
vn 1 0 0
vn 0.92388 0.382683 0
vn 0.92388 0.382683 0
vn 1 0 0
vn 0.707107 0.707107 -0
vn 0.382683 0.92388 0
vn 0.707107 0.707107 -0
vn 0.382683 0.92388 0
vn 0.382683 0.92388 0
vn 0.707107 0.707107 -0
vn 0 1 -0
vn -0.707107 0.707107 0
vn 0 1 -0
vn -0.707107 0.707107 0
vn -0.707107 0.707107 0
vn 0 1 -0
vn -1 0 0
vn -0.850651 -0.525731 0
vn -1 0 0
vn -0.850651 -0.525731 0
vn -0.850651 -0.525731 0
vn -1 0 0
vn 0 0 1
vn 0 0 1
vn 0 0 1
vn 0 0 1
vn 0 0 1
vn 0 0 1
vn 0 0 1
vn 0 0 1
vn 0 0 1
vn 0 0 1
vn 0 0 1
vn 0 0 1
vn 0 0 1
vn 0 0 1
vn 0 0 1
vn 0 0 1
vn 0 0 1
vn 0 0 1
vn 0 0 -1
vn 0 0 -1
vn 0 0 -1
vn 0 0 -1
vn 0 0 -1
vn 0 0 -1
vn 0 0 -1
vn 0 0 -1
vn 0 0 -1
vn 0 0 -1
vn 0 0 -1
vn 0 0 -1
vn 0 0 -1
vn 0 0 -1
vn 0 0 -1
vn 0 0 -1
vn 0 0 -1
vn 0 0 -1
f 1//1 2//2 3//3
f 4//4 5//5 6//6
f 7//7 8//8 9//9
f 10//10 11//11 12//12
f 13//13 14//14 15//15
f 16//16 17//17 18//18
f 19//19 20//20 21//21
f 22//22 23//23 24//24
f 25//25 26//26 27//27
f 28//28 29//29 30//30
f 31//31 32//32 33//33
f 34//34 35//35 36//36
f 37//37 38//38 39//39
f 40//40 41//41 42//42
f 43//43 44//44 45//45
f 46//46 47//47 48//48
f 49//49 50//50 51//51
f 52//52 53//53 54//54
f 55//55 56//56 57//57
f 58//58 59//59 60//60
f 61//61 62//62 63//63
f 64//64 65//65 66//66
f 67//67 68//68 69//69
f 70//70 71//71 72//72
f 73//73 74//74 75//75
f 76//76 77//77 78//78
f 79//79 80//80 81//81
f 82//82 83//83 84//84
