v 14 6 0
v 14 5 0
v 14 6 1
v 14 5 0
v 14 5 1
v 14 6 1
v 14 5 0
v 15 3 0
v 14 5 1
v 15 3 0
v 15 3 1
v 14 5 1
v 15 3 0
v 17 2 0
v 15 3 1
v 17 2 0
v 17 2 1
v 15 3 1
v 17 2 0
v 19 3 0
v 17 2 1
v 19 3 0
v 19 3 1
v 17 2 1
v 19 3 0
v 24 13 0
v 19 3 1
v 24 13 0
v 24 13 1
v 19 3 1
v 24 13 0
v 24 16 0
v 24 13 1
v 24 16 0
v 24 16 1
v 24 13 1
v 24 16 0
v 19 25 0
v 24 16 1
v 19 25 0
v 19 25 1
v 24 16 1
v 19 25 0
v 17 26 0
v 19 25 1
v 17 26 0
v 17 26 1
v 19 25 1
v 17 26 0
v 15 25.5 0
v 17 26 1
v 15 25.5 0
v 15 25.5 1
v 17 26 1
v 15 25.5 0
v 14 24 0
v 15 25.5 1
v 14 24 0
v 14 24 1
v 15 25.5 1
v 14 24 0
v 14 23 0
v 14 24 1
v 14 23 0
v 14 23 1
v 14 24 1
v 14 23 0
v 18 14 0
v 14 23 1
v 18 14 0
v 18 14 1
v 14 23 1
v 18 14 0
v 14 6 0
v 18 14 1
v 14 6 0
v 14 6 1
v 18 14 1
v 19 25 1
v 15 25.5 1
v 14 24 1
v 24 16 1
v 14 24 1
v 14 23 1
v 18 14 1
v 24 13 1
v 24 16 1
v 17 26 1
v 15 25.5 1
v 19 25 1
v 24 13 1
v 14 6 1
v 19 3 1
v 19 25 1
v 14 24 1
v 24 16 1
v 14 23 1
v 18 14 1
v 24 16 1
v 18 14 1
v 14 6 1
v 24 13 1
v 19 3 1
v 15 3 1
v 17 2 1
v 19 3 1
v 14 6 1
v 14 5 1
v 19 3 1
v 14 5 1
v 15 3 1
v 19 25 0
v 14 24 0
v 15 25.5 0
v 24 16 0
v 14 23 0
v 14 24 0
v 18 14 0
v 24 16 0
v 24 13 0
v 17 26 0
v 19 25 0
v 15 25.5 0
v 24 13 0
v 19 3 0
v 14 6 0
v 19 25 0
v 24 16 0
v 14 24 0
v 14 23 0
v 24 16 0
v 18 14 0
v 18 14 0
v 24 13 0
v 14 6 0
v 19 3 0
v 17 2 0
v 15 3 0
v 19 3 0
v 14 5 0
v 14 6 0
v 19 3 0
v 15 3 0
v 14 5 0
vn -1 0 0
vn -0.973249 -0.229753 0
vn -1 0 0
vn -0.973249 -0.229753 0
vn -0.973249 -0.229753 0
vn -1 0 0
vn -0.894427 -0.447214 0
vn -0.707107 -0.707107 0
vn -0.894427 -0.447214 0
vn -0.707107 -0.707107 0
vn -0.707107 -0.707107 0
vn -0.894427 -0.447214 0
vn -0.447214 -0.894427 0
vn 0 -1 0
vn -0.447214 -0.894427 0
vn 0 -1 0
vn 0 -1 0
vn -0.447214 -0.894427 0
vn 0.447214 -0.894427 0
vn 0.707107 -0.707107 0
vn 0.447214 -0.894427 0
vn 0.707107 -0.707107 0
vn 0.707107 -0.707107 0
vn 0.447214 -0.894427 0
vn 0.894427 -0.447214 0
vn 0.973249 -0.229753 0
vn 0.894427 -0.447214 0
vn 0.973249 -0.229753 0
vn 0.973249 -0.229753 0
vn 0.894427 -0.447214 0
vn 1 0 0
vn 0.968028 0.250841 0
vn 1 0 0
vn 0.968028 0.250841 0
vn 0.968028 0.250841 0
vn 1 0 0
vn 0.874157 0.485643 -0
vn 0.691579 0.722301 0
vn 0.874157 0.485643 -0
vn 0.691579 0.722301 0
vn 0.691579 0.722301 0
vn 0.874157 0.485643 -0
vn 0.447214 0.894427 -0
vn 0.109117 0.994029 0
vn 0.447214 0.894427 -0
vn 0.109117 0.994029 0
vn 0.109117 0.994029 0
vn 0.447214 0.894427 -0
vn -0.242536 0.970143 0
vn -0.576048 0.817416 0
vn -0.242536 0.970143 0
vn -0.576048 0.817416 0
vn -0.576048 0.817416 0
vn -0.242536 0.970143 0
vn -0.83205 0.5547 0
vn -0.957092 0.289784 0
vn -0.83205 0.5547 0
vn -0.957092 0.289784 0
vn -0.957092 0.289784 0
vn -0.83205 0.5547 0
vn -1 0 0
vn -0.978216 -0.207592 0
vn -1 0 0
vn -0.978216 -0.207592 0
vn -0.978216 -0.207592 0
vn -1 0 0
vn -0.913812 -0.406139 0
vn -0.999742 0.0227096 0
vn -0.913812 -0.406139 0
vn -0.999742 0.0227096 0
vn -0.999742 0.0227096 0
vn -0.913812 -0.406139 0
vn -0.894427 0.447214 0
vn -0.973249 0.229753 0
vn -0.894427 0.447214 0
vn -0.973249 0.229753 0
vn -0.973249 0.229753 0
vn -0.894427 0.447214 0
vn 0 0 1
vn 0 0 1
vn 0 0 1
vn 0 0 1
vn 0 0 1
vn 0 0 1
vn 0 0 1
vn 0 0 1
vn 0 0 1
vn 0 0 1
vn 0 0 1
vn 0 0 1
vn 0 0 1
vn 0 0 1
vn 0 0 1
vn 0 0 1
vn 0 0 1
vn 0 0 1
vn 0 0 1
vn 0 0 1
vn 0 0 1
vn 0 0 1
vn 0 0 1
vn 0 0 1
vn 0 0 1
vn 0 0 1
vn 0 0 1
vn 0 0 1
vn 0 0 1
vn 0 0 1
vn 0 0 1
vn 0 0 1
vn 0 0 1
vn 0 0 -1
vn 0 0 -1
vn 0 0 -1
vn 0 0 -1
vn 0 0 -1
vn 0 0 -1
vn 0 0 -1
vn 0 0 -1
vn 0 0 -1
vn 0 0 -1
vn 0 0 -1
vn 0 0 -1
vn 0 0 -1
vn 0 0 -1
vn 0 0 -1
vn 0 0 -1
vn 0 0 -1
vn 0 0 -1
vn 0 0 -1
vn 0 0 -1
vn 0 0 -1
vn 0 0 -1
vn 0 0 -1
vn 0 0 -1
vn 0 0 -1
vn 0 0 -1
vn 0 0 -1
vn 0 0 -1
vn 0 0 -1
vn 0 0 -1
vn 0 0 -1
vn 0 0 -1
vn 0 0 -1
f 1//1 2//2 3//3
f 4//4 5//5 6//6
f 7//7 8//8 9//9
f 10//10 11//11 12//12
f 13//13 14//14 15//15
f 16//16 17//17 18//18
f 19//19 20//20 21//21
f 22//22 23//23 24//24
f 25//25 26//26 27//27
f 28//28 29//29 30//30
f 31//31 32//32 33//33
f 34//34 35//35 36//36
f 37//37 38//38 39//39
f 40//40 41//41 42//42
f 43//43 44//44 45//45
f 46//46 47//47 48//48
f 49//49 50//50 51//51
f 52//52 53//53 54//54
f 55//55 56//56 57//57
f 58//58 59//59 60//60
f 61//61 62//62 63//63
f 64//64 65//65 66//66
f 67//67 68//68 69//69
f 70//70 71//71 72//72
f 73//73 74//74 75//75
f 76//76 77//77 78//78
f 79//79 80//80 81//81
f 82//82 83//83 84//84
f 85//85 86//86 87//87
f 88//88 89//89 90//90
f 91//91 92//92 93//93
f 94//94 95//95 96//96
f 97//97 98//98 99//99
f 100//100 101//101 102//102
f 103//103 104//104 105//105
f 106//106 107//107 108//108
f 109//109 110//110 111//111
f 112//112 113//113 114//114
f 115//115 116//116 117//117
f 118//118 119//119 120//120
f 121//121 122//122 123//123
f 124//124 125//125 126//126
f 127//127 128//128 129//129
f 130//130 131//131 132//132
f 133//133 134//134 135//135
f 136//136 137//137 138//138
f 139//139 140//140 141//141
f 142//142 143//143 144//144
