v 30 27 0
v 32 29 0
v 30 27 1
v 32 29 0
v 32 29 1
v 30 27 1
v 32 29 0
v 31 31 0
v 32 29 1
v 31 31 0
v 31 31 1
v 32 29 1
v 31 31 0
v 21 42 0
v 31 31 1
v 21 42 0
v 21 42 1
v 31 31 1
v 21 42 0
v 19.5 43 0
v 21 42 1
v 19.5 43 0
v 19.5 43 1
v 21 42 1
v 19.5 43 0
v 17 42 0
v 19.5 43 1
v 17 42 0
v 17 42 1
v 19.5 43 1
v 17 42 0
v 7 31 0
v 17 42 1
v 7 31 0
v 7 31 1
v 17 42 1
v 7 31 0
v 7 28 0
v 7 31 1
v 7 28 0
v 7 28 1
v 7 31 1
v 7 28 0
v 8.5 27 0
v 7 28 1
v 8.5 27 0
v 8.5 27 1
v 7 28 1
v 8.5 27 0
v 10 28 0
v 8.5 27 1
v 10 28 0
v 10 28 1
v 8.5 27 1
v 10 28 0
v 19 36 0
v 10 28 1
v 19 36 0
v 19 36 1
v 10 28 1
v 19 36 0
v 29 27 0
v 19 36 1
v 29 27 0
v 29 27 1
v 19 36 1
v 29 27 0
v 30 27 0
v 29 27 1
v 30 27 0
v 30 27 1
v 29 27 1
v 17 42 1
v 19 36 1
v 31 31 1
v 19 36 1
v 29 27 1
v 31 31 1
v 29 27 1
v 32 29 1
v 31 31 1
v 17 42 1
v 31 31 1
v 21 42 1
v 29 27 1
v 30 27 1
v 32 29 1
v 7 31 1
v 10 28 1
v 19 36 1
v 10 28 1
v 7 31 1
v 7 28 1
v 10 28 1
v 7 28 1
v 8.5 27 1
v 7 31 1
v 19 36 1
v 17 42 1
v 21 42 1
v 19.5 43 1
v 17 42 1
v 17 42 0
v 31 31 0
v 19 36 0
v 19 36 0
v 31 31 0
v 29 27 0
v 29 27 0
v 31 31 0
v 32 29 0
v 17 42 0
v 21 42 0
v 31 31 0
v 29 27 0
v 32 29 0
v 30 27 0
v 7 31 0
v 19 36 0
v 10 28 0
v 10 28 0
v 7 28 0
v 7 31 0
v 10 28 0
v 8.5 27 0
v 7 28 0
v 7 31 0
v 17 42 0
v 19 36 0
v 21 42 0
v 17 42 0
v 19.5 43 0
vn 0.707107 -0.707107 0
vn 0.987087 -0.160182 0
vn 0.707107 -0.707107 0
vn 0.987087 -0.160182 0
vn 0.987087 -0.160182 0
vn 0.707107 -0.707107 0
vn 0.894427 0.447214 -0
vn 0.824922 0.565246 0
vn 0.894427 0.447214 -0
vn 0.824922 0.565246 0
vn 0.824922 0.565246 0
vn 0.894427 0.447214 -0
vn 0.73994 0.672673 -0
vn 0.652207 0.758041 0
vn 0.73994 0.672673 -0
vn 0.652207 0.758041 0
vn 0.652207 0.758041 0
vn 0.73994 0.672673 -0
vn 0.5547 0.83205 -0
vn 0.103562 0.994623 0
vn 0.5547 0.83205 -0
vn 0.103562 0.994623 0
vn 0.103562 0.994623 0
vn 0.5547 0.83205 -0
vn -0.371391 0.928477 0
vn -0.570196 0.821509 0
vn -0.371391 0.928477 0
vn -0.570196 0.821509 0
vn -0.570196 0.821509 0
vn -0.371391 0.928477 0
vn -0.73994 0.672673 0
vn -0.932722 0.360597 0
vn -0.73994 0.672673 0
vn -0.932722 0.360597 0
vn -0.932722 0.360597 0
vn -0.73994 0.672673 0
vn -1 0 0
vn -0.881675 -0.471858 0
vn -1 0 0
vn -0.881675 -0.471858 0
vn -0.881675 -0.471858 0
vn -1 0 0
vn -0.5547 -0.83205 0
vn 0 -1 0
vn -0.5547 -0.83205 0
vn 0 -1 0
vn 0 -1 0
vn -0.5547 -0.83205 0
vn 0.5547 -0.83205 0
vn 0.610999 -0.791631 0
vn 0.5547 -0.83205 0
vn 0.610999 -0.791631 0
vn 0.610999 -0.791631 0
vn 0.5547 -0.83205 0
vn 0.664364 -0.747409 0
vn -0.00308641 -0.999995 0
vn 0.664364 -0.747409 0
vn -0.00308641 -0.999995 0
vn -0.00308641 -0.999995 0
vn 0.664364 -0.747409 0
vn -0.668965 -0.743294 0
vn -0.358264 -0.93362 0
vn -0.668965 -0.743294 0
vn -0.358264 -0.93362 0
vn -0.358264 -0.93362 0
vn -0.668965 -0.743294 0
vn 0 -1 0
vn 0.382683 -0.92388 0
vn 0 -1 0
vn 0.382683 -0.92388 0
vn 0.382683 -0.92388 0
vn 0 -1 0
vn 0 0 1
vn 0 0 1
vn 0 0 1
vn 0 0 1
vn 0 0 1
vn 0 0 1
vn 0 0 1
vn 0 0 1
vn 0 0 1
vn 0 0 1
vn 0 0 1
vn 0 0 1
vn 0 0 1
vn 0 0 1
vn 0 0 1
vn 0 0 1
vn 0 0 1
vn 0 0 1
vn 0 0 1
vn 0 0 1
vn 0 0 1
vn 0 0 1
vn 0 0 1
vn 0 0 1
vn 0 0 1
vn 0 0 1
vn 0 0 1
vn 0 0 1
vn 0 0 1
vn 0 0 1
vn 0 0 -1
vn 0 0 -1
vn 0 0 -1
vn 0 0 -1
vn 0 0 -1
vn 0 0 -1
vn 0 0 -1
vn 0 0 -1
vn 0 0 -1
vn 0 0 -1
vn 0 0 -1
vn 0 0 -1
vn 0 0 -1
vn 0 0 -1
vn 0 0 -1
vn 0 0 -1
vn 0 0 -1
vn 0 0 -1
vn 0 0 -1
vn 0 0 -1
vn 0 0 -1
vn 0 0 -1
vn 0 0 -1
vn 0 0 -1
vn 0 0 -1
vn 0 0 -1
vn 0 0 -1
vn 0 0 -1
vn 0 0 -1
vn 0 0 -1
f 1//1 2//2 3//3
f 4//4 5//5 6//6
f 7//7 8//8 9//9
f 10//10 11//11 12//12
f 13//13 14//14 15//15
f 16//16 17//17 18//18
f 19//19 20//20 21//21
f 22//22 23//23 24//24
f 25//25 26//26 27//27
f 28//28 29//29 30//30
f 31//31 32//32 33//33
f 34//34 35//35 36//36
f 37//37 38//38 39//39
f 40//40 41//41 42//42
f 43//43 44//44 45//45
f 46//46 47//47 48//48
f 49//49 50//50 51//51
f 52//52 53//53 54//54
f 55//55 56//56 57//57
f 58//58 59//59 60//60
f 61//61 62//62 63//63
f 64//64 65//65 66//66
f 67//67 68//68 69//69
f 70//70 71//71 72//72
f 73//73 74//74 75//75
f 76//76 77//77 78//78
f 79//79 80//80 81//81
f 82//82 83//83 84//84
f 85//85 86//86 87//87
f 88//88 89//89 90//90
f 91//91 92//92 93//93
f 94//94 95//95 96//96
f 97//97 98//98 99//99
f 100//100 101//101 102//102
f 103//103 104//104 105//105
f 106//106 107//107 108//108
f 109//109 110//110 111//111
f 112//112 113//113 114//114
f 115//115 116//116 117//117
f 118//118 119//119 120//120
f 121//121 122//122 123//123
f 124//124 125//125 126//126
f 127//127 128//128 129//129
f 130//130 131//131 132//132
