v 31.3577 28.9899 0
v 28.7019 28.094 0
v 31.3577 28.9899 1
v 28.7019 28.094 0
v 28.7019 28.094 1
v 31.3577 28.9899 1
v 28.7019 28.094 0
v 27.454 25.2142 0
v 28.7019 28.094 1
v 27.454 25.2142 0
v 27.454 25.2142 1
v 28.7019 28.094 1
v 27.454 25.2142 0
v 25.2142 15.3589 0
v 27.454 25.2142 1
v 25.2142 15.3589 0
v 25.2142 15.3589 1
v 27.454 25.2142 1
v 25.2142 15.3589 0
v 15.9988 5.43961 0
v 25.2142 15.3589 1
v 15.9988 5.43961 0
v 15.9988 5.43961 1
v 25.2142 15.3589 1
v 15.9988 5.43961 0
v 12.6711 8.19141 0
v 15.9988 5.43961 1
v 12.6711 8.19141 0
v 12.6711 8.19141 1
v 15.9988 5.43961 1
v 12.6711 8.19141 0
v 12.9911 10.5592 0
v 12.6711 8.19141 1
v 12.9911 10.5592 0
v 12.9911 10.5592 1
v 12.6711 8.19141 1
v 12.9911 10.5592 0
v 16.1908 24.5742 0
v 12.9911 10.5592 1
v 16.1908 24.5742 0
v 16.1908 24.5742 1
v 12.9911 10.5592 1
v 16.1908 24.5742 0
v 16.3188 25.9821 0
v 16.1908 24.5742 1
v 16.3188 25.9821 0
v 16.3188 25.9821 1
v 16.1908 24.5742 1
v 16.3188 25.9821 0
v 12.9271 28.9899 0
v 16.3188 25.9821 1
v 12.9271 28.9899 0
v 12.9271 28.9899 1
v 16.3188 25.9821 1
v 12.9271 28.9899 0
v 8.76736 28.9899 0
v 12.9271 28.9899 1
v 8.76736 28.9899 0
v 8.76736 28.9899 1
v 12.9271 28.9899 1
v 8.76736 28.9899 0
v 5.75958 28.062 0
v 8.76736 28.9899 1
v 5.75958 28.062 0
v 5.75958 28.062 1
v 8.76736 28.9899 1
v 5.75958 28.062 0
v 4.67166 25.4702 0
v 5.75958 28.062 1
v 4.67166 25.4702 0
v 4.67166 25.4702 1
v 5.75958 28.062 1
v 4.67166 25.4702 0
v 5.4716 23.3903 0
v 4.67166 25.4702 1
v 5.4716 23.3903 0
v 5.4716 23.3903 1
v 4.67166 25.4702 1
v 5.4716 23.3903 0
v 7.42346 22.5904 0
v 5.4716 23.3903 1
v 7.42346 22.5904 0
v 7.42346 22.5904 1
v 5.4716 23.3903 1
v 7.42346 22.5904 0
v 8.51138 22.5904 0
v 7.42346 22.5904 1
v 8.51138 22.5904 0
v 8.51138 22.5904 1
v 7.42346 22.5904 1
v 8.51138 22.5904 0
v 1.79187 -7.93542 0
v 8.51138 22.5904 1
v 1.79187 -7.93542 0
v 1.79187 -7.93542 1
v 8.51138 22.5904 1
v 1.79187 -7.93542 0
v 1.59988 -9.34332 0
v 1.79187 -7.93542 1
v 1.59988 -9.34332 0
v 1.59988 -9.34332 1
v 1.79187 -7.93542 1
v 1.59988 -9.34332 0
v 4.99164 -12.4791 0
v 1.59988 -9.34332 1
v 4.99164 -12.4791 0
v 4.99164 -12.4791 1
v 1.59988 -9.34332 1
v 4.99164 -12.4791 0
v 8.76736 -8.83136 0
v 4.99164 -12.4791 1
v 8.76736 -8.83136 0
v 8.76736 -8.83136 1
v 4.99164 -12.4791 1
v 8.76736 -8.83136 0
v 10.8152 1.27991 0
v 8.76736 -8.83136 1
v 10.8152 1.27991 0
v 10.8152 1.27991 1
v 8.76736 -8.83136 1
v 10.8152 1.27991 0
v 15.1669 -0.639954 0
v 10.8152 1.27991 1
v 15.1669 -0.639954 0
v 15.1669 -0.639954 1
v 10.8152 1.27991 1
v 15.1669 -0.639954 0
v 22.9743 4.28769 0
v 15.1669 -0.639954 1
v 22.9743 4.28769 0
v 22.9743 4.28769 1
v 15.1669 -0.639954 1
v 22.9743 4.28769 0
v 22.9103 2.87979 0
v 22.9743 4.28769 1
v 22.9103 2.87979 0
v 22.9103 2.87979 1
v 22.9743 4.28769 1
v 22.9103 2.87979 0
v 26.2381 0 0
v 22.9103 2.87979 1
v 26.2381 0 0
v 26.2381 0 1
v 22.9103 2.87979 1
v 26.2381 0 0
v 30.4618 0 0
v 26.2381 0 1
v 30.4618 0 0
v 30.4618 0 1
v 26.2381 0 1
v 30.4618 0 0
v 33.4376 0.895935 0
v 30.4618 0 1
v 33.4376 0.895935 0
v 33.4376 0.895935 1
v 30.4618 0 1
v 33.4376 0.895935 0
v 34.4935 3.45575 0
v 33.4376 0.895935 1
v 34.4935 3.45575 0
v 34.4935 3.45575 1
v 33.4376 0.895935 1
v 34.4935 3.45575 0
v 33.7256 5.5356 0
v 34.4935 3.45575 1
v 33.7256 5.5356 0
v 33.7256 5.5356 1
v 34.4935 3.45575 1
v 33.7256 5.5356 0
v 31.8057 6.33554 0
v 33.7256 5.5356 1
v 31.8057 6.33554 0
v 31.8057 6.33554 1
v 33.7256 5.5356 1
v 31.8057 6.33554 0
v 30.5258 6.33554 0
v 31.8057 6.33554 1
v 30.5258 6.33554 0
v 30.5258 6.33554 1
v 31.8057 6.33554 1
v 30.5258 6.33554 0
v 34.4295 24.3182 0
v 30.5258 6.33554 1
v 34.4295 24.3182 0
v 34.4295 24.3182 1
v 30.5258 6.33554 1
v 34.4295 24.3182 0
v 34.6215 25.7901 0
v 34.4295 24.3182 1
v 34.6215 25.7901 0
v 34.6215 25.7901 1
v 34.4295 24.3182 1
v 34.6215 25.7901 0
v 31.3577 28.9899 0
v 34.6215 25.7901 1
v 31.3577 28.9899 0
v 31.3577 28.9899 1
v 34.6215 25.7901 1
v 30.5258 6.33554 1
v 22.9743 4.28769 1
v 33.7256 5.5356 1
v 22.9103 2.87979 1
v 33.4376 0.895935 1
v 34.4935 3.45575 1
v 22.9743 4.28769 1
v 22.9103 2.87979 1
v 34.4935 3.45575 1
v 22.9103 2.87979 1
v 26.2381 0 1
v 33.4376 0.895935 1
v 26.2381 0 1
v 30.4618 0 1
v 33.4376 0.895935 1
v 16.3188 25.9821 1
v 8.76736 28.9899 1
v 8.51138 22.5904 1
v 22.9743 4.28769 1
v 34.4935 3.45575 1
v 33.7256 5.5356 1
v 27.454 25.2142 1
v 25.2142 15.3589 1
v 34.4295 24.3182 1
v 16.1908 24.5742 1
v 8.51138 22.5904 1
v 12.9911 10.5592 1
v 12.6711 8.19141 1
v 10.8152 1.27991 1
v 15.9988 5.43961 1
v 1.79187 -7.93542 1
v 1.59988 -9.34332 1
v 8.76736 -8.83136 1
v 12.9911 10.5592 1
v 8.51138 22.5904 1
v 1.79187 -7.93542 1
v 8.76736 -8.83136 1
v 1.59988 -9.34332 1
v 4.99164 -12.4791 1
v 16.3188 25.9821 1
v 8.51138 22.5904 1
v 16.1908 24.5742 1
v 34.6215 25.7901 1
v 27.454 25.2142 1
v 34.4295 24.3182 1
v 8.76736 28.9899 1
v 5.75958 28.062 1
v 8.51138 22.5904 1
v 34.4295 24.3182 1
v 25.2142 15.3589 1
v 30.5258 6.33554 1
v 10.8152 1.27991 1
v 1.79187 -7.93542 1
v 8.76736 -8.83136 1
v 12.6711 8.19141 1
v 1.79187 -7.93542 1
v 10.8152 1.27991 1
v 28.7019 28.094 1
v 27.454 25.2142 1
v 34.6215 25.7901 1
v 30.5258 6.33554 1
v 15.9988 5.43961 1
v 22.9743 4.28769 1
v 4.67166 25.4702 1
v 5.4716 23.3903 1
v 8.51138 22.5904 1
v 10.8152 1.27991 1
v 15.1669 -0.639954 1
v 22.9743 4.28769 1
v 10.8152 1.27991 1
v 22.9743 4.28769 1
v 15.9988 5.43961 1
v 8.51138 22.5904 1
v 5.4716 23.3903 1
v 7.42346 22.5904 1
v 12.9911 10.5592 1
v 1.79187 -7.93542 1
v 12.6711 8.19141 1
v 33.7256 5.5356 1
v 31.8057 6.33554 1
v 30.5258 6.33554 1
v 30.5258 6.33554 1
v 25.2142 15.3589 1
v 15.9988 5.43961 1
v 5.75958 28.062 1
v 4.67166 25.4702 1
v 8.51138 22.5904 1
v 28.7019 28.094 1
v 34.6215 25.7901 1
v 31.3577 28.9899 1
v 16.3188 25.9821 1
v 12.9271 28.9899 1
v 8.76736 28.9899 1
v 30.5258 6.33554 0
v 33.7256 5.5356 0
v 22.9743 4.28769 0
v 22.9103 2.87979 0
v 34.4935 3.45575 0
v 33.4376 0.895935 0
v 22.9743 4.28769 0
v 34.4935 3.45575 0
v 22.9103 2.87979 0
v 22.9103 2.87979 0
v 33.4376 0.895935 0
v 26.2381 0 0
v 26.2381 0 0
v 33.4376 0.895935 0
v 30.4618 0 0
v 16.3188 25.9821 0
v 8.51138 22.5904 0
v 8.76736 28.9899 0
v 22.9743 4.28769 0
v 33.7256 5.5356 0
v 34.4935 3.45575 0
v 27.454 25.2142 0
v 34.4295 24.3182 0
v 25.2142 15.3589 0
v 16.1908 24.5742 0
v 12.9911 10.5592 0
v 8.51138 22.5904 0
v 12.6711 8.19141 0
v 15.9988 5.43961 0
v 10.8152 1.27991 0
v 1.79187 -7.93542 0
v 8.76736 -8.83136 0
v 1.59988 -9.34332 0
v 12.9911 10.5592 0
v 1.79187 -7.93542 0
v 8.51138 22.5904 0
v 8.76736 -8.83136 0
v 4.99164 -12.4791 0
v 1.59988 -9.34332 0
v 16.3188 25.9821 0
v 16.1908 24.5742 0
v 8.51138 22.5904 0
v 34.6215 25.7901 0
v 34.4295 24.3182 0
v 27.454 25.2142 0
v 8.76736 28.9899 0
v 8.51138 22.5904 0
v 5.75958 28.062 0
v 34.4295 24.3182 0
v 30.5258 6.33554 0
v 25.2142 15.3589 0
v 10.8152 1.27991 0
v 8.76736 -8.83136 0
v 1.79187 -7.93542 0
v 12.6711 8.19141 0
v 10.8152 1.27991 0
v 1.79187 -7.93542 0
v 28.7019 28.094 0
v 34.6215 25.7901 0
v 27.454 25.2142 0
v 30.5258 6.33554 0
v 22.9743 4.28769 0
v 15.9988 5.43961 0
v 4.67166 25.4702 0
v 8.51138 22.5904 0
v 5.4716 23.3903 0
v 10.8152 1.27991 0
v 22.9743 4.28769 0
v 15.1669 -0.639954 0
v 10.8152 1.27991 0
v 15.9988 5.43961 0
v 22.9743 4.28769 0
v 8.51138 22.5904 0
v 7.42346 22.5904 0
v 5.4716 23.3903 0
v 12.9911 10.5592 0
v 12.6711 8.19141 0
v 1.79187 -7.93542 0
v 33.7256 5.5356 0
v 30.5258 6.33554 0
v 31.8057 6.33554 0
v 30.5258 6.33554 0
v 15.9988 5.43961 0
v 25.2142 15.3589 0
v 5.75958 28.062 0
v 8.51138 22.5904 0
v 4.67166 25.4702 0
v 28.7019 28.094 0
v 31.3577 28.9899 0
v 34.6215 25.7901 0
v 16.3188 25.9821 0
v 8.76736 28.9899 0
v 12.9271 28.9899 0
vn -0.319651 0.947536 0
vn -0.67696 0.73602 0
vn -0.319651 0.947536 0
vn -0.67696 0.73602 0
vn -0.67696 0.73602 0
vn -0.319651 0.947536 0
vn -0.917556 0.397607 0
vn -0.950426 0.31095 0
vn -0.917556 0.397607 0
vn -0.950426 0.31095 0
vn -0.950426 0.31095 0
vn -0.917556 0.397607 0
vn -0.975133 0.221621 0
vn -0.884184 0.467138 0
vn -0.975133 0.221621 0
vn -0.884184 0.467138 0
vn -0.884184 0.467138 0
vn -0.975133 0.221621 0
vn -0.732625 0.680632 0
vn -0.0655667 0.997848 0
vn -0.732625 0.680632 0
vn -0.0655667 0.997848 0
vn -0.0655667 0.997848 0
vn -0.732625 0.680632 0
vn 0.637264 0.770645 -0
vn 0.931324 0.364193 0
vn 0.637264 0.770645 -0
vn 0.931324 0.364193 0
vn 0.931324 0.364193 0
vn 0.637264 0.770645 -0
vn 0.990992 -0.133918 0
vn 0.983953 -0.178431 0
vn 0.990992 -0.133918 0
vn 0.983953 -0.178431 0
vn 0.983953 -0.178431 0
vn 0.990992 -0.133918 0
vn 0.974914 -0.222583 0
vn 0.987613 -0.156909 0
vn 0.974914 -0.222583 0
vn 0.987613 -0.156909 0
vn 0.987613 -0.156909 0
vn 0.974914 -0.222583 0
vn 0.995893 -0.0905358 0
vn 0.929651 0.368443 0
vn 0.995893 -0.0905358 0
vn 0.929651 0.368443 0
vn 0.929651 0.368443 0
vn 0.995893 -0.0905358 0
vn 0.663487 0.748188 -0
vn 0.354833 0.93493 0
vn 0.663487 0.748188 -0
vn 0.354833 0.93493 0
vn 0.354833 0.93493 0
vn 0.663487 0.748188 -0
vn 0 1 -0
vn -0.149065 0.988827 0
vn 0 1 -0
vn -0.149065 0.988827 0
vn -0.149065 0.988827 0
vn 0 1 -0
vn -0.2948 0.955559 0
vn -0.67156 0.74095 0
vn -0.2948 0.955559 0
vn -0.67156 0.74095 0
vn -0.67156 0.74095 0
vn -0.2948 0.955559 0
vn -0.922063 0.387039 0
vn -0.999886 0.0151215 0
vn -0.922063 0.387039 0
vn -0.999886 0.0151215 0
vn -0.999886 0.0151215 0
vn -0.922063 0.387039 0
vn -0.933346 -0.358979 0
vn -0.714766 -0.699364 0
vn -0.933346 -0.358979 0
vn -0.714766 -0.699364 0
vn -0.714766 -0.699364 0
vn -0.933346 -0.358979 0
vn -0.379223 -0.925305 0
vn -0.193255 -0.981149 0
vn -0.379223 -0.925305 0
vn -0.193255 -0.981149 0
vn -0.193255 -0.981149 0
vn -0.379223 -0.925305 0
vn 0 -1 0
vn -0.779416 -0.626507 0
vn 0 -1 0
vn -0.779416 -0.626507 0
vn -0.779416 -0.626507 0
vn 0 -1 0
vn -0.976619 0.214979 0
vn -0.984535 0.17519 0
vn -0.976619 0.214979 0
vn -0.984535 0.17519 0
vn -0.984535 0.17519 0
vn -0.976619 0.214979 0
vn -0.99083 0.135113 0
vn -0.941233 -0.337757 0
vn -0.99083 0.135113 0
vn -0.941233 -0.337757 0
vn -0.941233 -0.337757 0
vn -0.99083 0.135113 0
vn -0.678855 -0.734272 0
vn 0.0109778 -0.99994 0
vn -0.678855 -0.734272 0
vn 0.0109778 -0.99994 0
vn 0.0109778 -0.99994 0
vn -0.678855 -0.734272 0
vn 0.694812 -0.719191 0
vn 0.876991 -0.480508 0
vn 0.694812 -0.719191 0
vn 0.876991 -0.480508 0
vn 0.876991 -0.480508 0
vn 0.694812 -0.719191 0
vn 0.980101 -0.198501 0
vn 0.459771 -0.888037 0
vn 0.980101 -0.198501 0
vn 0.459771 -0.888037 0
vn 0.459771 -0.888037 0
vn 0.980101 -0.198501 0
vn -0.40364 -0.914918 0
vn 0.073691 -0.997281 0
vn -0.40364 -0.914918 0
vn 0.073691 -0.997281 0
vn 0.073691 -0.997281 0
vn -0.40364 -0.914918 0
vn 0.533732 -0.845654 0
vn -0.502602 -0.864518 0
vn 0.533732 -0.845654 0
vn -0.502602 -0.864518 0
vn -0.502602 -0.864518 0
vn 0.533732 -0.845654 0
vn -0.998969 0.0454077 0
vn -0.918705 -0.394944 0
vn -0.998969 0.0454077 0
vn -0.918705 -0.394944 0
vn -0.918705 -0.394944 0
vn -0.998969 0.0454077 0
vn -0.654377 -0.756169 0
vn -0.349164 -0.937062 0
vn -0.654377 -0.756169 0
vn -0.349164 -0.937062 0
vn -0.349164 -0.937062 0
vn -0.654377 -0.756169 0
vn 0 -1 0
vn 0.145701 -0.989329 0
vn 0 -1 0
vn 0.145701 -0.989329 0
vn 0.145701 -0.989329 0
vn 0 -1 0
vn 0.288292 -0.957542 0
vn 0.67133 -0.741159 0
vn 0.288292 -0.957542 0
vn 0.67133 -0.741159 0
vn 0.67133 -0.741159 0
vn 0.288292 -0.957542 0
vn 0.924439 -0.381331 0
vn 0.999824 -0.0187652 0
vn 0.924439 -0.381331 0
vn 0.999824 -0.0187652 0
vn 0.999824 -0.0187652 0
vn 0.924439 -0.381331 0
vn 0.938097 0.346374 -0
vn 0.721483 0.692432 0
vn 0.938097 0.346374 -0
vn 0.721483 0.692432 0
vn 0.721483 0.692432 0
vn 0.938097 0.346374 -0
vn 0.384615 0.923077 -0
vn 0.196116 0.980581 0
vn 0.384615 0.923077 -0
vn 0.196116 0.980581 0
vn 0.196116 0.980581 0
vn 0.384615 0.923077 -0
vn 0 1 -0
vn 0.778505 0.627638 0
vn 0 1 -0
vn 0.778505 0.627638 0
vn 0.778505 0.627638 0
vn 0 1 -0
vn 0.977239 -0.212141 0
vn 0.98529 -0.170892 0
vn 0.977239 -0.212141 0
vn 0.98529 -0.170892 0
vn 0.98529 -0.170892 0
vn 0.977239 -0.212141 0
vn 0.9916 -0.129339 0
vn 0.945132 0.326689 0
vn 0.9916 -0.129339 0
vn 0.945132 0.326689 0
vn 0.945132 0.326689 0
vn 0.9916 -0.129339 0
vn 0.700071 0.714073 -0
vn 0.223173 0.974779 0
vn 0.700071 0.714073 -0
vn 0.223173 0.974779 0
vn 0.223173 0.974779 0
vn 0.700071 0.714073 -0
vn 0 0 1
vn 0 0 1
vn 0 0 1
vn 0 0 1
vn 0 0 1
vn 0 0 1
vn 0 0 1
vn 0 0 1
vn 0 0 1
vn 0 0 1
vn 0 0 1
vn 0 0 1
vn 0 0 1
vn 0 0 1
vn 0 0 1
vn 0 0 1
vn 0 0 1
vn 0 0 1
vn 0 0 1
vn 0 0 1
vn 0 0 1
vn 0 0 1
vn 0 0 1
vn 0 0 1
vn 0 0 1
vn 0 0 1
vn 0 0 1
vn 0 0 1
vn 0 0 1
vn 0 0 1
vn 0 0 1
vn 0 0 1
vn 0 0 1
vn 0 0 1
vn 0 0 1
vn 0 0 1
vn 0 0 1
vn 0 0 1
vn 0 0 1
vn 0 0 1
vn 0 0 1
vn 0 0 1
vn 0 0 1
vn 0 0 1
vn 0 0 1
vn 0 0 1
vn 0 0 1
vn 0 0 1
vn 0 0 1
vn 0 0 1
vn 0 0 1
vn 0 0 1
vn 0 0 1
vn 0 0 1
vn 0 0 1
vn 0 0 1
vn 0 0 1
vn 0 0 1
vn 0 0 1
vn 0 0 1
vn 0 0 1
vn 0 0 1
vn 0 0 1
vn 0 0 1
vn 0 0 1
vn 0 0 1
vn 0 0 1
vn 0 0 1
vn 0 0 1
vn 0 0 1
vn 0 0 1
vn 0 0 1
vn 0 0 1
vn 0 0 1
vn 0 0 1
vn 0 0 1
vn 0 0 1
vn 0 0 1
vn 0 0 1
vn 0 0 1
vn 0 0 1
vn 0 0 1
vn 0 0 1
vn 0 0 1
vn 0 0 1
vn 0 0 1
vn 0 0 1
vn 0 0 1
vn 0 0 1
vn 0 0 1
vn 0 0 1
vn 0 0 1
vn 0 0 1
vn 0 0 -1
vn 0 0 -1
vn 0 0 -1
vn 0 0 -1
vn 0 0 -1
vn 0 0 -1
vn 0 0 -1
vn 0 0 -1
vn 0 0 -1
vn 0 0 -1
vn 0 0 -1
vn 0 0 -1
vn 0 0 -1
vn 0 0 -1
vn 0 0 -1
vn 0 0 -1
vn 0 0 -1
vn 0 0 -1
vn 0 0 -1
vn 0 0 -1
vn 0 0 -1
vn 0 0 -1
vn 0 0 -1
vn 0 0 -1
vn 0 0 -1
vn 0 0 -1
vn 0 0 -1
vn 0 0 -1
vn 0 0 -1
vn 0 0 -1
vn 0 0 -1
vn 0 0 -1
vn 0 0 -1
vn 0 0 -1
vn 0 0 -1
vn 0 0 -1
vn 0 0 -1
vn 0 0 -1
vn 0 0 -1
vn 0 0 -1
vn 0 0 -1
vn 0 0 -1
vn 0 0 -1
vn 0 0 -1
vn 0 0 -1
vn 0 0 -1
vn 0 0 -1
vn 0 0 -1
vn 0 0 -1
vn 0 0 -1
vn 0 0 -1
vn 0 0 -1
vn 0 0 -1
vn 0 0 -1
vn 0 0 -1
vn 0 0 -1
vn 0 0 -1
vn 0 0 -1
vn 0 0 -1
vn 0 0 -1
vn 0 0 -1
vn 0 0 -1
vn 0 0 -1
vn 0 0 -1
vn 0 0 -1
vn 0 0 -1
vn 0 0 -1
vn 0 0 -1
vn 0 0 -1
vn 0 0 -1
vn 0 0 -1
vn 0 0 -1
vn 0 0 -1
vn 0 0 -1
vn 0 0 -1
vn 0 0 -1
vn 0 0 -1
vn 0 0 -1
vn 0 0 -1
vn 0 0 -1
vn 0 0 -1
vn 0 0 -1
vn 0 0 -1
vn 0 0 -1
vn 0 0 -1
vn 0 0 -1
vn 0 0 -1
vn 0 0 -1
vn 0 0 -1
vn 0 0 -1
vn 0 0 -1
vn 0 0 -1
vn 0 0 -1
f 1//1 2//2 3//3
f 4//4 5//5 6//6
f 7//7 8//8 9//9
f 10//10 11//11 12//12
f 13//13 14//14 15//15
f 16//16 17//17 18//18
f 19//19 20//20 21//21
f 22//22 23//23 24//24
f 25//25 26//26 27//27
f 28//28 29//29 30//30
f 31//31 32//32 33//33
f 34//34 35//35 36//36
f 37//37 38//38 39//39
f 40//40 41//41 42//42
f 43//43 44//44 45//45
f 46//46 47//47 48//48
f 49//49 50//50 51//51
f 52//52 53//53 54//54
f 55//55 56//56 57//57
f 58//58 59//59 60//60
f 61//61 62//62 63//63
f 64//64 65//65 66//66
f 67//67 68//68 69//69
f 70//70 71//71 72//72
f 73//73 74//74 75//75
f 76//76 77//77 78//78
f 79//79 80//80 81//81
f 82//82 83//83 84//84
f 85//85 86//86 87//87
f 88//88 89//89 90//90
f 91//91 92//92 93//93
f 94//94 95//95 96//96
f 97//97 98//98 99//99
f 100//100 101//101 102//102
f 103//103 104//104 105//105
f 106//106 107//107 108//108
f 109//109 110//110 111//111
f 112//112 113//113 114//114
f 115//115 116//116 117//117
f 118//118 119//119 120//120
f 121//121 122//122 123//123
f 124//124 125//125 126//126
f 127//127 128//128 129//129
f 130//130 131//131 132//132
f 133//133 134//134 135//135
f 136//136 137//137 138//138
f 139//139 140//140 141//141
f 142//142 143//143 144//144
f 145//145 146//146 147//147
f 148//148 149//149 150//150
f 151//151 152//152 153//153
f 154//154 155//155 156//156
f 157//157 158//158 159//159
f 160//160 161//161 162//162
f 163//163 164//164 165//165
f 166//166 167//167 168//168
f 169//169 170//170 171//171
f 172//172 173//173 174//174
f 175//175 176//176 177//177
f 178//178 179//179 180//180
f 181//181 182//182 183//183
f 184//184 185//185 186//186
f 187//187 188//188 189//189
f 190//190 191//191 192//192
f 193//193 194//194 195//195
f 196//196 197//197 198//198
f 199//199 200//200 201//201
f 202//202 203//203 204//204
f 205//205 206//206 207//207
f 208//208 209//209 210//210
f 211//211 212//212 213//213
f 214//214 215//215 216//216
f 217//217 218//218 219//219
f 220//220 221//221 222//222
f 223//223 224//224 225//225
f 226//226 227//227 228//228
f 229//229 230//230 231//231
f 232//232 233//233 234//234
f 235//235 236//236 237//237
f 238//238 239//239 240//240
f 241//241 242//242 243//243
f 244//244 245//245 246//246
f 247//247 248//248 249//249
f 250//250 251//251 252//252
f 253//253 254//254 255//255
f 256//256 257//257 258//258
f 259//259 260//260 261//261
f 262//262 263//263 264//264
f 265//265 266//266 267//267
f 268//268 269//269 270//270
f 271//271 272//272 273//273
f 274//274 275//275 276//276
f 277//277 278//278 279//279
f 280//280 281//281 282//282
f 283//283 284//284 285//285
f 286//286 287//287 288//288
f 289//289 290//290 291//291
f 292//292 293//293 294//294
f 295//295 296//296 297//297
f 298//298 299//299 300//300
f 301//301 302//302 303//303
f 304//304 305//305 306//306
f 307//307 308//308 309//309
f 310//310 311//311 312//312
f 313//313 314//314 315//315
f 316//316 317//317 318//318
f 319//319 320//320 321//321
f 322//322 323//323 324//324
f 325//325 326//326 327//327
f 328//328 329//329 330//330
f 331//331 332//332 333//333
f 334//334 335//335 336//336
f 337//337 338//338 339//339
f 340//340 341//341 342//342
f 343//343 344//344 345//345
f 346//346 347//347 348//348
f 349//349 350//350 351//351
f 352//352 353//353 354//354
f 355//355 356//356 357//357
f 358//358 359//359 360//360
f 361//361 362//362 363//363
f 364//364 365//365 366//366
f 367//367 368//368 369//369
f 370//370 371//371 372//372
f 373//373 374//374 375//375
f 376//376 377//377 378//378
f 379//379 380//380 381//381
f 382//382 383//383 384//384
